{
.formatVersion = 3;
axes = (
{
name = Weight;
tag = wght;
}
);
classes = (
{
code = "slash A G O W.ss09 d l o q t u w.ss09 y periodcentered Scedilla scedilla Tcedilla tcedilla Decyr Elcyr Efcyr becyr vecyr gecyr decyr zhecyr zecyr icyr ishortcyr kacyr elcyr pecyr tecyr tsecyr shacyr shchacyr hardcyr softcyr igravecyr Gestrokecyr gestrokecyr Zetailcyr zetailcyr";
name = aalt;
},
{
code = "fraction ordfeminine G.ss11 ordmasculine l.ss05 ordmasculine q.ss06 t.ss07 y.ss10 periodcentered.loclCAT Scommaaccent scommaaccent Tcommaaccent tcommaaccent Decyr.loclBGR Elcyr.loclBGR Efcyr.loclBGR becyr.loclSRB vecyr.loclBGR gecyr.loclBGR decyr.loclBGR zhecyr.loclBGR zecyr.loclBGR icyr.loclBGR ishortcyr.loclBGR kacyr.loclBGR elcyr.loclBGR pecyr.loclBGR tecyr.loclBGR tsecyr.loclBGR shacyr.loclBGR shchacyr.loclBGR hardcyr.loclBGR softcyr.loclBGR igravecyr.loclBGR Gestrokecyr.loclBSH gestrokecyr.loclBSH Zetailcyr.loclBSH zetailcyr.loclBSH";
name = aalt2;
},
{
code = "gravecomb acutecomb circumflexcomb tildecomb macroncomb brevecomb dotaccentcomb dieresiscomb ringcomb hungarumlautcomb caroncomb commaturnedabovecomb hookabovecomb dblgravecomb breveinvertedcomb";
name = ccmp;
},
{
code = "zero.dnom one.dnom two.dnom three.dnom four.dnom five.dnom six.dnom seven.dnom eight.dnom nine.dnom";
name = dnom;
},
{
code = "zero.lf one.lf two.lf three.lf four.lf five.lf six.lf seven.lf eight.lf nine.lf";
name = dnom_numr_ordn_pnum_sinf_subs_sups_tnum;
},
{
code = "Decyr Elcyr Efcyr vecyr gecyr decyr zhecyr zecyr icyr ishortcyr kacyr elcyr pecyr tecyr tsecyr shacyr shchacyr hardcyr softcyr igravecyr";
name = locl;
},
{
code = "Decyr.loclBGR Elcyr.loclBGR Efcyr.loclBGR vecyr.loclBGR gecyr.loclBGR decyr.loclBGR zhecyr.loclBGR zecyr.loclBGR icyr.loclBGR ishortcyr.loclBGR kacyr.loclBGR elcyr.loclBGR pecyr.loclBGR tecyr.loclBGR tsecyr.loclBGR shacyr.loclBGR shchacyr.loclBGR hardcyr.loclBGR softcyr.loclBGR igravecyr.loclBGR";
name = locl2;
},
{

glyphs = (
{
glyphname = .notdef;
layers = (
{
layerId = "BB3EF6CB-1E12-4008-9D80-E52F161ACC69";
shapes = (
{
closed = 1;
nodes = (
(558,689,ls),
(558,702,o),
(551,710,o),
(540,710,cs),
(69,710,ls),
(58,710,o),
(50,702,o),
(50,687,cs),
(50,25,ls),
(50,8,o),
(56,0,o),
(77,0,cs),
(525,0,ls),
(548,0,o),
(558,8,o),
(558,29,cs)
);
},
{
closed = 1;
nodes = (
(506,74,ls),
(506,57,o),
(497,50,o),
(478,50,cs),
(125,50,ls),
(106,50,o),
(102,56,o),
(102,71,cs),
(102,641,ls),
(102,653,o),
(109,660,o),
(118,660,cs),
(491,660,ls),
(500,660,o),
(506,653,o),
(506,642,cs)
);
},
{
closed = 1;
nodes = (
(538,33,l),
(123,696,l),
(71,669,l),
(478,28,l)
);
}
);
width = 608;
}
);
},
{
glyphname = exclam;
layers = (
{
layerId = "6504B2D0-4073-42C8-9B7C-2A4329A12EFE";
shapes = (
{
closed = 1;
nodes = (
(236,262,l),
(276,512,l),
(276,717,l),
(86,717,l),
(86,512,l),
(126,262,l)
);
},
{
closed = 1;
nodes = (
(87,58,o),
(96,36,o),
(115,18,c),
(133,-1,o),
(155,-10,o),
(181,-10,cs),
(207,-10,o),
(229,-1,o),
(248,18,cs),
(266,36,o),
(275,58,o),
(275,84,cs),
(275,136,o),
(233,178,o),
(181,178,cs),
(155,178,o),
(133,169,o),
(115,151,cs),
(96,132,o),
(87,110,o),
(87,84,cs)
);
}
);
width = 362;
},
{
layerId = "16C3235A-0965-4506-9E91-995A1F108181";
shapes = (
{
closed = 1;
nodes = (
(195,243,l),
(221,499,l),
(221,717,l),
(86,717,l),
(86,499,l),
(112,243,l)
);
},
{
closed = 1;
nodes = (
(80,43,o),
(87,26,o),
(102,12,c),
(116,-3,o),
(133,-10,o),
(153,-10,cs),
(173,-10,o),
(190,-3,o),
(205,12,cs),
(219,26,o),
(226,43,o),
(226,63,cs),
(226,103,o),
(193,137,o),
(153,137,cs),
(133,137,o),
(116,130,o),
(102,115,cs),
(87,100,o),
(80,83,o),
(80,63,cs)
);
}
);
width = 307;
},
{
layerId = "BB3EF6CB-1E12-4008-9D80-E52F161ACC69";
shapes = (
{
closed = 1;
nodes = (
(160,231,l),
(175,491,l),
(175,717,l),
(87,717,l),
(87,491,l),
(102,231,l)
);
},
{
closed = 1;
nodes = (
(75,31,o),
(81,18,o),
(92,7,cs),
(103,-5,o),
(116,-10,o),
(131,-10,cs),
(146,-10,o),
(160,-5,o),
(171,7,cs),
(182,18,o),
(187,31,o),
(187,46,cs),
(187,77,o),
(162,102,o),
(131,102,cs),
(116,102,o),
(103,97,o),
(92,86,cs),
(81,75,o),
(75,61,o),
(75,46,cs)
);
}
);
width = 262;
},
{
layerId = "3FABAEC4-ABD6-4E2D-B151-012D8FCAB9DA";
shapes = (
{
closed = 1;
nodes = (
(124,200,l),
(124,400,l),
(124,717,l),
(104,717,l),
(104,400,l),
(104,200,l)
);
},
{
closed = 1;
nodes = (
(79,20,o),
(82,12,o),
(89,5,cs),
(96,-2,o),
(104,-5,o),
(113,-5,cs),
(122,-5,o),
(130,-2,o),
(137,5,cs),
(144,12,o),
(147,20,o),
(147,29,cs),
(147,48,o),
(132,62,o),
(113,62,cs),
(104,62,o),
(96,59,o),
(89,53,cs),
(82,46,o),
(79,38,o),
(79,29,cs)
);
}
);
width = 228;
}
);
unicode = 33;
},
{
glyphname = numbersign;
layers = (
{
layerId = "6504B2D0-4073-42C8-9B7C-2A4329A12EFE";
shapes = (
{
closed = 1;
nodes = (
(721,527,l),
(594,527,l),
(640,710,l),
(489,710,l),
(444,527,l),
(384,527,l),
(430,710,l),
(279,710,l),
(234,527,l),
(87,527,l),
(87,397,l),
(202,397,l),
(182,310,l),
(36,310,l),
(36,170,l),
(148,170,l),
(106,0,l),
(257,0,l),
(298,170,l),
(358,170,l),
(316,0,l),
(467,0,l),
(508,170,l),
(670,170,l),
(670,310,l),
(542,310,l),
(562,397,l),
(721,397,l)
);
},
{
closed = 1;
nodes = (
(332,310,l),
(352,397,l),
(412,397,l),
(392,310,l)
);
}
);
width = 757;
},
{
layerId = "16C3235A-0965-4506-9E91-995A1F108181";
shapes = (
{
closed = 1;
nodes = (
(684,518,l),
(563,518,l),
(610,710,l),
(503,710,l),
(455,518,l),
(336,518,l),
(384,710,l),
(276,710,l),
(229,518,l),
(84,518,l),
(84,424,l),
(206,424,l),
(173,287,l),
(36,287,l),
(36,187,l),
(149,187,l),
(103,0,l),
(211,0,l),
(257,187,l),
(375,187,l),
(330,0,l),
(437,0,l),
(483,187,l),
(638,187,l),
(638,287,l),
(507,287,l),
(539,424,l),
(684,424,l)
);
},
{
closed = 1;
nodes = (
(280,287,l),
(313,424,l),
(433,424,l),
(400,287,l)
);
}
);
width = 721;
},
{
layerId = "BB3EF6CB-1E12-4008-9D80-E52F161ACC69";
shapes = (
{
closed = 1;
nodes = (
(655,511,l),
(537,511,l),
(586,710,l),
(513,710,l),
(465,511,l),
(297,511,l),
(346,710,l),
(273,710,l),
(225,511,l),
(81,511,l),
(81,447,l),
(209,447,l),
(166,269,l),
(37,269,l),
(37,201,l),
(150,201,l),
(100,0,l),
(173,0,l),
(222,201,l),
(390,201,l),
(340,0,l),
(413,0,l),
(462,201,l),
(611,201,l),
(611,269,l),
(478,269,l),
(521,447,l),
(655,447,l)
);
},
{
closed = 1;
nodes = (
(238,269,l),
(281,447,l),
(449,447,l),
(406,269,l)
);
}
);
width = 692;
},
{
layerId = "3FABAEC4-ABD6-4E2D-B151-012D8FCAB9DA";
shapes = (
{
closed = 1;
nodes = (
(612,501,l),
(499,501,l),
(551,710,l),
(530,710,l),
(479,501,l),
(239,501,l),
(291,710,l),
(270,710,l),
(219,501,l),
(78,501,l),
(78,481,l),
(214,481,l),
(156,241,l),
(38,241,l),
(38,221,l),
(151,221,l),
(97,0,l),
(118,0,l),
(171,221,l),
(411,221,l),
(357,0,l),
(378,0,l),
(431,221,l),
(572,221,l),
(572,241,l),
(436,241,l),
(494,481,l),
(612,481,l)
);
},
{
closed = 1;
nodes = (
(176,241,l),
(234,481,l),
(474,481,l),
(416,241,l)
);
}
);
width = 650;
}
);
unicode = 35;
},
{
glyphname = dollar;
layers = (
{
layerId = "6504B2D0-4073-42C8-9B7C-2A4329A12EFE";
shapes = (
{
closed = 1;
nodes = (
(291,-129,l),
(371,-129,l),
(371,95,l),
(291,95,l)
);
},
{
closed = 1;
nodes = (
(357,115,l),
(305,117,l),
(305,589,l),
(357,603,l)
);
},
{
closed = 1;
nodes = (
(291,609,l),
(371,623,l),
(371,815,l),
(291,815,l)
);
},
{
closed = 1;
nodes = (
(594,639,l),
(562,655,o),
(522,674,o),
(476,690,cs),
(430,705,o),
(380,716,o),
(328,716,cs),
(259,716,o),
(192,695,o),
(143,655,cs),
(94,615,o),
(63,555,o),
(63,476,cs),
(63,424,o),
(77,385,o),
(106,354,cs),
(135,322,o),
(180,298,o),
(243,277,cs),
(286,262,o),
(325,253,o),
(354,242,cs),
(383,231,o),
(401,218,o),
(401,198,cs),
(401,179,o),
(387,167,o),
(344,167,cs),
(289,167,o),
(233,186,o),
(190,206,cs),
(146,226,o),
(116,245,o),
(116,245,c),
(32,74,l),
(75,49,o),
(126,29,o),
(180,14,cs),
(234,-1,o),
(289,-9,o),
(341,-9,cs),
(408,-9,o),
(474,5,o),
(526,40,cs),
(577,75,o),
(611,132,o),
(611,217,cs),
(611,284,o),
(590,329,o),
(553,362,cs),
(516,394,o),
(462,417,o),
(397,437,cs),
(356,450,o),
(323,459,o),
(300,469,cs),
(277,479,o),
(265,489,o),
(265,508,cs),
(265,533,o),
(289,543,o),
(322,543,cs),
(365,543,o),
(412,527,o),
(448,511,cs),
(484,494,o),
(510,478,o),
(510,478,c)
);
}
);
width = 649;
},
{
layerId = "16C3235A-0965-4506-9E91-995A1F108181";
shapes = (
{
closed = 1;
nodes = (
(288,-117,l),
(355,-117,l),
(355,64,l),
(288,64,l)
);
},
{
closed = 1;
nodes = (
(345,78,l),
(345,637,l),
(297,628,l),
(297,80,l)
);
},
{
closed = 1;
nodes = (
(288,640,l),
(355,650,l),
(355,815,l),
(288,815,l)
);
},
{
closed = 1;
nodes = (
(570,637,l),
(539,656,o),
(503,676,o),
(460,691,cs),
(416,706,o),
(371,716,o),
(322,716,cs),
(250,716,o),
(185,695,o),
(138,658,cs),
(91,621,o),
(63,564,o),
(63,492,cs),
(63,437,o),
(79,398,o),
(112,369,cs),
(145,340,o),
(196,319,o),
(264,300,cs),
(320,284,o),
(365,272,o),
(398,256,cs),
(430,240,o),
(448,221,o),
(448,189,cs),
(448,141,o),
(409,116,o),
(334,116,cs),
(281,116,o),
(226,131,o),
(183,151,c),
(139,170,o),
(107,191,o),
(95,204,c),
(33,84,l),
(74,56,o),
(122,32,o),
(174,16,cs),
(225,0,o),
(279,-8,o),
(332,-8,cs),
(401,-8,o),
(467,7,o),
(516,41,cs),
(564,75,o),
(595,127,o),
(595,203,cs),
(595,268,o),
(574,312,o),
(534,344,c),
(493,375,o),
(438,396,o),
(367,413,c),
(312,428,o),
(273,438,o),
(246,452,cs),
(218,466,o),
(204,486,o),
(204,514,cs),
(204,565,o),
(243,593,o),
(318,593,cs),
(361,593,o),
(404,582,o),
(439,566,cs),
(474,550,o),
(500,535,o),
(509,524,c)
);
}
);
width = 634;
},
{
layerId = "BB3EF6CB-1E12-4008-9D80-E52F161ACC69";
shapes = (
{
closed = 1;
nodes = (
(285,-107,l),
(341,-107,l),
(341,38,l),
(285,39,l)
);
},
{
closed = 1;
nodes = (
(335,48,l),
(335,666,l),
(290,659,l),
(290,50,l)
);
},
{
closed = 1;
nodes = (
(285,665,l),
(341,672,l),
(341,815,l),
(285,815,l)
);
},
{
closed = 1;
nodes = (
(550,634,l),
(521,658,o),
(486,679,o),
(447,693,cs),
(407,707,o),
(365,715,o),
(317,715,cs),
(244,715,o),
(179,697,o),
(134,661,cs),
(89,625,o),
(62,573,o),
(62,505,cs),
(62,449,o),
(81,410,o),
(118,382,cs),
(154,354,o),
(209,335,o),
(281,318,cs),
(348,302,o),
(398,288,o),
(433,268,cs),
(468,248,o),
(486,222,o),
(486,182,cs),
(486,110,o),
(427,74,o),
(326,74,cs),
(273,74,o),
(221,87,o),
(178,105,cs),
(134,123,o),
(99,146,o),
(78,169,c),
(35,93,l),
(75,61,o),
(120,35,o),
(169,19,cs),
(217,2,o),
(269,-7,o),
(324,-7,cs),
(397,-7,o),
(462,8,o),
(508,41,cs),
(554,73,o),
(582,123,o),
(582,191,cs),
(582,255,o),
(560,297,o),
(518,328,cs),
(476,359,o),
(417,378,o),
(342,394,cs),
(278,409,o),
(232,421,o),
(201,439,cs),
(169,457,o),
(155,482,o),
(155,519,cs),
(155,591,o),
(206,635,o),
(315,635,cs),
(358,635,o),
(398,626,o),
(431,612,cs),
(464,598,o),
(492,580,o),
(508,561,c)
);
}
);
width = 622;
},
{
layerId = "3FABAEC4-ABD6-4E2D-B151-012D8FCAB9DA";
shapes = (
{
closed = 1;
nodes = (
(300,-93,l),
(320,-93,l),
(320,0,l),
(300,1,l)
);
},
{
closed = 1;
nodes = (
(320,4,l),
(320,708,l),
(300,706,l),
(300,5,l)
);
},
{
closed = 1;
nodes = (
(300,702,l),
(320,704,l),
(320,815,l),
(300,815,l)
);
},
{
closed = 1;
nodes = (
(529,630,l),
(501,661,o),
(471,682,o),
(436,696,cs),
(401,710,o),
(363,715,o),
(318,715,cs),
(242,715,o),
(181,698,o),
(138,666,cs),
(94,633,o),
(70,585,o),
(70,524,cs),
(70,465,o),
(92,429,o),
(134,403,cs),
(176,377,o),
(236,361,o),
(315,346,cs),
(398,330,o),
(456,313,o),
(495,286,cs),
(534,259,o),
(552,224,o),
(552,171,cs),
(552,64,o),
(464,12,o),
(323,12,cs),
(270,12,o),
(222,20,o),
(179,37,cs),
(135,54,o),
(97,81,o),
(61,118,c),
(46,105,l),
(85,68,o),
(125,40,o),
(170,22,cs),
(215,4,o),
(265,-5,o),
(322,-5,cs),
(399,-5,o),
(462,12,o),
(505,42,cs),
(548,72,o),
(572,117,o),
(572,174,cs),
(572,237,o),
(547,276,o),
(503,304,cs),
(458,332,o),
(393,349,o),
(314,365,cs),
(235,381,o),
(179,396,o),
(143,420,cs),
(107,443,o),
(90,475,o),
(90,526,cs),
(90,629,o),
(159,696,o),
(320,696,cs),
(363,696,o),
(397,691,o),
(429,679,cs),
(460,667,o),
(488,647,o),
(516,616,c)
);
}
);
width = 613;
}
);
unicode = 36;
},
{
glyphname = percent;
layers = (
{
layerId = "6504B2D0-4073-42C8-9B7C-2A4329A12EFE";
shapes = (
{
closed = 1;
nodes = (
(262,404,o),
(306,422,o),
(338,450,cs),
(370,478,o),
(389,518,o),
(389,562,cs),
(389,606,o),
(370,646,o),
(338,674,cs),
(306,702,o),
(262,720,o),
(211,720,cs),
(162,720,o),
(117,702,o),
(85,674,cs),
(53,646,o),
(33,606,o),
(33,562,cs),
(33,518,o),
(53,478,o),
(85,450,cs),
(117,422,o),
(162,404,o),
(211,404,cs)
);
},
{
closed = 1;
nodes = (
(198,494,o),
(186,502,o),
(178,514,cs),
(169,526,o),
(163,543,o),
(163,562,cs),
(163,581,o),
(169,598,o),
(178,610,cs),
(186,622,o),
(198,630,o),
(211,630,cs),
(224,630,o),
(236,622,o),
(245,610,cs),
(253,598,o),
(259,581,o),
(259,562,cs),
(259,543,o),
(253,526,o),
(245,514,cs),
(236,502,o),
(224,494,o),
(211,494,cs)
);
},
{
closed = 1;
nodes = (
(691,-10,o),
(735,8,o),
(767,36,cs),
(799,64,o),
(818,104,o),
(818,148,cs),
(818,192,o),
(799,232,o),
(767,260,cs),
(735,288,o),
(691,306,o),
(640,306,cs),
(591,306,o),
(546,288,o),
(514,260,cs),
(482,232,o),
(462,192,o),
(462,148,cs),
(462,104,o),
(482,64,o),
(514,36,cs),
(546,8,o),
(591,-10,o),
(640,-10,cs)
);
},
{
closed = 1;
nodes = (
(627,80,o),
(615,88,o),
(607,100,cs),
(598,112,o),
(592,129,o),
(592,148,cs),
(592,167,o),
(598,184,o),
(607,196,cs),
(615,208,o),
(627,216,o),
(640,216,cs),
(653,216,o),
(665,208,o),
(674,196,cs),
(682,184,o),
(688,167,o),
(688,148,cs),
(688,129,o),
(682,112,o),
(674,100,cs),
(665,88,o),
(653,80,o),
(640,80,cs)
);
},
{
closed = 1;
nodes = (
(200,-10,l),
(463,337,l),
(734,646,l),
(651,721,l),
(400,384,l),
(117,65,l)
);
}
);
width = 851;
},
{
layerId = "16C3235A-0965-4506-9E91-995A1F108181";
shapes = (
{
closed = 1;
nodes = (
(247,418,o),
(288,434,o),
(317,461,cs),
(346,488,o),
(365,526,o),
(365,569,cs),
(365,610,o),
(346,648,o),
(317,676,cs),
(288,703,o),
(247,720,o),
(200,720,cs),
(155,720,o),
(114,703,o),
(84,676,cs),
(54,648,o),
(35,610,o),
(35,569,cs),
(35,526,o),
(54,488,o),
(84,461,cs),
(114,434,o),
(155,418,o),
(200,418,cs)
);
},
{
closed = 1;
nodes = (
(181,484,o),
(163,493,o),
(150,509,cs),
(137,525,o),
(129,545,o),
(129,569,cs),
(129,592,o),
(137,612,o),
(150,628,cs),
(162,644,o),
(180,653,o),
(200,653,cs),
(219,653,o),
(237,644,o),
(250,629,c),
(262,613,o),
(271,592,o),
(271,569,cs),
(271,546,o),
(263,525,o),
(250,510,cs),
(237,494,o),
(220,484,o),
(200,484,cs)
);
},
{
closed = 1;
nodes = (
(633,-10,o),
(674,7,o),
(704,35,cs),
(734,62,o),
(751,100,o),
(751,141,cs),
(751,184,o),
(734,222,o),
(704,249,cs),
(674,276,o),
(633,292,o),
(586,292,cs),
(541,292,o),
(499,276,o),
(470,249,cs),
(441,222,o),
(421,184,o),
(421,141,cs),
(421,100,o),
(441,62,o),
(470,35,cs),
(499,7,o),
(541,-10,o),
(586,-10,cs)
);
},
{
closed = 1;
nodes = (
(567,57,o),
(549,66,o),
(537,82,c),
(524,97,o),
(515,118,o),
(515,141,cs),
(515,165,o),
(524,185,o),
(536,201,cs),
(548,216,o),
(567,226,o),
(586,226,cs),
(606,226,o),
(623,217,o),
(636,201,cs),
(649,185,o),
(657,165,o),
(657,142,cs),
(657,118,o),
(649,98,o),
(637,82,cs),
(624,66,o),
(606,57,o),
(586,57,cs)
);
},
{
closed = 1;
nodes = (
(152,-8,l),
(421,340,l),
(694,663,l),
(634,718,l),
(373,376,l),
(92,48,l)
);
}
);
width = 786;
},
{
layerId = "BB3EF6CB-1E12-4008-9D80-E52F161ACC69";
shapes = (
{
closed = 1;
nodes = (
(234,428,o),
(272,445,o),
(300,471,cs),
(328,497,o),
(345,534,o),
(345,574,cs),
(345,614,o),
(328,652,o),
(300,678,cs),
(272,704,o),
(234,720,o),
(191,720,cs),
(148,720,o),
(110,704,o),
(82,678,cs),
(54,652,o),
(37,614,o),
(37,574,cs),
(37,534,o),
(54,497,o),
(82,471,cs),
(110,445,o),
(148,428,o),
(191,428,cs)
);
},
{
closed = 1;
nodes = (
(167,476,o),
(144,487,o),
(128,505,cs),
(111,523,o),
(101,547,o),
(101,574,cs),
(101,601,o),
(111,625,o),
(127,643,cs),
(143,661,o),
(166,672,o),
(191,672,cs),
(215,672,o),
(238,662,o),
(254,644,cs),
(270,626,o),
(281,601,o),
(281,574,cs),
(281,549,o),
(271,524,o),
(255,506,cs),
(239,488,o),
(216,476,o),
(191,476,cs)
);
},
{
closed = 1;
nodes = (
(585,-10,o),
(623,7,o),
(651,33,cs),
(679,59,o),
(696,96,o),
(696,136,cs),
(696,176,o),
(679,214,o),
(651,240,cs),
(623,266,o),
(585,282,o),
(542,282,cs),
(499,282,o),
(461,266,o),
(433,240,cs),
(405,214,o),
(388,176,o),
(388,136,cs),
(388,96,o),
(405,59,o),
(433,33,cs),
(461,7,o),
(499,-10,o),
(542,-10,cs)
);
},
{
closed = 1;
nodes = (
(518,38,o),
(495,49,o),
(479,67,cs),
(462,85,o),
(452,109,o),
(452,136,cs),
(452,163,o),
(462,187,o),
(478,205,cs),
(494,223,o),
(517,234,o),
(542,234,cs),
(566,234,o),
(589,224,o),
(605,206,cs),
(621,188,o),
(632,163,o),
(632,136,cs),
(632,109,o),
(622,86,o),
(606,68,cs),
(590,50,o),
(567,38,o),
(542,38,cs)
);
},
{
closed = 1;
nodes = (
(113,-5,l),
(385,343,l),
(662,678,l),
(619,715,l),
(351,370,l),
(71,33,l)
);
}
);
width = 733;
},
{
layerId = "3FABAEC4-ABD6-4E2D-B151-012D8FCAB9DA";
shapes = (
{
closed = 1;
nodes = (
(225,444,o),
(259,460,o),
(284,485,cs),
(308,509,o),
(324,545,o),
(324,582,cs),
(324,621,o),
(308,655,o),
(284,680,c),
(259,704,o),
(225,720,o),
(186,720,cs),
(149,720,o),
(113,704,o),
(89,680,cs),
(64,655,o),
(48,620,o),
(48,583,cs),
(48,544,o),
(64,509,o),
(89,485,c),
(113,460,o),
(149,444,o),
(186,444,cs)
);
},
{
closed = 1;
nodes = (
(154,464,o),
(124,477,o),
(103,498,cs),
(82,519,o),
(68,549,o),
(68,582,cs),
(68,613,o),
(81,643,o),
(102,665,cs),
(123,687,o),
(153,700,o),
(186,700,cs),
(217,700,o),
(247,687,o),
(269,666,cs),
(291,645,o),
(304,615,o),
(304,582,cs),
(304,551,o),
(291,522,o),
(270,500,cs),
(249,478,o),
(219,464,o),
(186,464,cs)
);
},
{
closed = 1;
nodes = (
(523,-10,o),
(558,5,o),
(583,30,cs),
(607,55,o),
(623,89,o),
(623,128,cs),
(623,167,o),
(607,201,o),
(583,226,c),
(558,250,o),
(524,266,o),
(485,266,cs),
(448,266,o),
(412,250,o),
(388,226,cs),
(363,201,o),
(347,167,o),
(347,128,cs),
(347,89,o),
(363,55,o),
(388,30,cs),
(412,5,o),
(447,-10,o),
(486,-10,cs)
);
},
{
closed = 1;
nodes = (
(453,10,o),
(423,23,o),
(402,44,cs),
(381,65,o),
(367,95,o),
(367,128,cs),
(367,159,o),
(380,189,o),
(401,211,cs),
(422,233,o),
(452,246,o),
(485,246,cs),
(516,246,o),
(546,232,o),
(568,211,cs),
(590,190,o),
(603,160,o),
(603,128,cs),
(603,96,o),
(590,68,o),
(569,46,cs),
(548,24,o),
(518,10,o),
(485,10,cs)
);
},
{
closed = 1;
nodes = (
(64,-1,l),
(341,347,l),
(622,699,l),
(606,711,l),
(327,361,l),
(48,11,l)
);
}
);
width = 670;
}
);
unicode = 37;
},
{
glyphname = ampersand;
layers = (
{
layerId = "6504B2D0-4073-42C8-9B7C-2A4329A12EFE";
shapes = (
{
closed = 1;
nodes = (
(330,581,o),
(375,563,o),
(406,530,c),
(507,623,l),
(447,687,o),
(373,721,o),
(285,721,cs),
(173,721,o),
(77,657,o),
(77,536,cs),
(77,455,o),
(138,393,o),
(190,338,cs),
(506,0,l),
(755,0,l),
(340,438,ls),
(320,459,o),
(249,518,o),
(249,544,cs),
(249,565,o),
(264,581,o),
(285,581,cs)
);
},
{
closed = 1;
nodes = (
(219,456,l),
(137,405,o),
(35,337,o),
(35,216,cs),
(35,76,o),
(154,-10,o),
(285,-10,cs),
(525,-10,o),
(658,193,o),
(660,416,c),
(507,416,l),
(507,300,o),
(443,138,o),
(305,138,cs),
(261,138,o),
(217,169,o),
(217,216,cs),
(217,256,o),
(272,286,o),
(332,324,c)
);
}
);
width = 749;
},
{
layerId = "16C3235A-0965-4506-9E91-995A1F108181";
shapes = (
{
closed = 1;
nodes = (
(338,620,o),
(389,594,o),
(418,545,c),
(497,606,l),
(446,679,o),
(371,719,o),
(282,719,cs),
(181,719,o),
(87,658,o),
(87,549,cs),
(87,471,o),
(152,407,o),
(202,354,cs),
(536,0,l),
(712,0,l),
(307,425,ls),
(281,452,o),
(209,516,o),
(209,553,cs),
(209,593,o),
(244,620,o),
(282,620,cs)
);
},
{
closed = 1;
nodes = (
(212,431,l),
(127,377,o),
(41,312,o),
(41,201,cs),
(41,69,o),
(156,-10,o),
(279,-10,cs),
(499,-10,o),
(627,185,o),
(627,389,c),
(518,389,l),
(518,259,o),
(444,96,o),
(294,96,cs),
(233,96,o),
(169,133,o),
(169,200,cs),
(169,266,o),
(246,315,o),
(297,345,c)
);
}
);
width = 711;
},
{
layerId = "BB3EF6CB-1E12-4008-9D80-E52F161ACC69";
shapes = (
{
closed = 1;
nodes = (
(342,652,o),
(393,614,o),
(422,561,c),
(486,591,l),
(446,673,o),
(370,719,o),
(279,719,cs),
(185,719,o),
(96,660,o),
(96,559,cs),
(96,484,o),
(164,418,o),
(212,367,cs),
(560,0,l),
(676,0,l),
(279,415,ls),
(248,448,o),
(177,515,o),
(177,561,cs),
(177,618,o),
(226,652,o),
(279,652,cs)
);
},
{
closed = 1;
nodes = (
(220,418,l),
(136,364,o),
(45,299,o),
(45,188,cs),
(45,62,o),
(159,-10,o),
(275,-10,cs),
(478,-10,o),
(600,179,o),
(600,366,c),
(527,366,l),
(527,226,o),
(442,60,o),
(284,60,cs),
(209,60,o),
(130,103,o),
(130,187,cs),
(130,269,o),
(210,326,o),
(272,365,c)
);
}
);
width = 681;
},
{
layerId = "3FABAEC4-ABD6-4E2D-B151-012D8FCAB9DA";
shapes = (
{
closed = 1;
nodes = (
(361,699,o),
(430,649,o),
(455,567,c),
(474,574,l),
(448,659,o),
(377,719,o),
(286,719,cs),
(202,719,o),
(110,668,o),
(110,574,cs),
(110,507,o),
(185,432,o),
(229,386,cs),
(598,0,l),
(625,0,l),
(240,400,ls),
(201,440,o),
(130,515,o),
(130,573,cs),
(130,650,o),
(205,699,o),
(276,699,cs)
);
},
{
closed = 1;
nodes = (
(233,398,l),
(153,344,o),
(53,278,o),
(53,170,cs),
(53,52,o),
(163,-10,o),
(270,-10,cs),
(451,-10,o),
(562,167,o),
(562,333,c),
(542,333,l),
(542,179,o),
(443,8,o),
(273,8,cs),
(178,8,o),
(73,61,o),
(73,168,cs),
(73,270,o),
(168,332,o),
(243,384,c)
);
}
);
width = 635;
}
);
unicode = 38;
},
{
glyphname = parenleft;
layers = (
{
layerId = "6504B2D0-4073-42C8-9B7C-2A4329A12EFE";
shapes = (
{
closed = 1;
nodes = (
(25,276,o),
(44,204,o),
(73,134,cs),
(102,64,o),
(142,-5,o),
(183,-66,c),
(321,1,l),
(288,64,o),
(257,123,o),
(236,180,cs),
(215,236,o),
(202,290,o),
(202,345,cs),
(202,417,o),
(225,497,o),
(253,565,cs),
(280,633,o),
(310,689,o),
(326,714,c),
(181,772,l),
(137,697,o),
(98,625,o),
(70,555,cs),
(42,485,o),
(25,416,o),
(25,348,cs)
);
}
);
width = 342;
},
{
layerId = "16C3235A-0965-4506-9E91-995A1F108181";
shapes = (
{
closed = 1;
nodes = (
(34,279,o),
(51,210,o),
(78,143,cs),
(105,75,o),
(143,9,o),
(184,-52,c),
(282,-4,l),
(246,57,o),
(215,117,o),
(194,176,cs),
(173,235,o),
(160,291,o),
(160,344,cs),
(160,412,o),
(181,489,o),
(207,557,cs),
(233,624,o),
(264,682,o),
(285,714,c),
(182,757,l),
(141,686,o),
(105,618,o),
(78,551,cs),
(50,483,o),
(34,415,o),
(34,347,cs)
);
}
);
width = 310;
},
{
layerId = "BB3EF6CB-1E12-4008-9D80-E52F161ACC69";
shapes = (
{
closed = 1;
nodes = (
(42,282,o),
(57,215,o),
(82,151,cs),
(107,86,o),
(144,21,o),
(185,-42,c),
(250,-8,l),
(211,52,o),
(181,114,o),
(159,174,cs),
(137,233,o),
(124,291,o),
(124,343,cs),
(124,408,o),
(144,482,o),
(169,549,cs),
(194,616,o),
(227,677,o),
(252,714,c),
(184,744,l),
(144,677,o),
(110,613,o),
(84,547,cs),
(58,481,o),
(42,414,o),
(42,346,cs)
);
}
);
width = 283;
},
{
layerId = "3FABAEC4-ABD6-4E2D-B151-012D8FCAB9DA";
shapes = (
{
closed = 1;
nodes = (
(50,285,o),
(61,224,o),
(84,162,cs),
(107,100,o),
(140,37,o),
(183,-26,c),
(199,-14,l),
(158,45,o),
(125,109,o),
(103,170,cs),
(81,231,o),
(69,291,o),
(69,342,cs),
(69,402,o),
(86,473,o),
(110,539,cs),
(134,605,o),
(167,667,o),
(199,714,c),
(183,726,l),
(147,665,o),
(113,604,o),
(89,541,cs),
(65,478,o),
(50,413,o),
(50,345,cs)
);
}
);
width = 234;
}
);
unicode = 40;
},
{
glyphname = parenright;
layers = (
{
layerId = "6504B2D0-4073-42C8-9B7C-2A4329A12EFE";
shapes = (
{
closed = 1;
nodes = (
(316,416,o),
(299,485,o),
(271,555,cs),
(243,625,o),
(204,697,o),
(160,772,c),
(15,714,l),
(31,689,o),
(61,633,o),
(89,565,cs),
(116,497,o),
(139,417,o),
(139,345,cs),
(139,290,o),
(126,236,o),
(105,180,cs),
(84,123,o),
(53,64,o),
(20,1,c),
(158,-66,l),
(199,-5,o),
(239,64,o),
(268,134,cs),
(297,204,o),
(316,276,o),
(316,348,cs)
);
}
);
width = 341;
},
{
layerId = "16C3235A-0965-4506-9E91-995A1F108181";
shapes = (
{
closed = 1;
nodes = (
(280,415,o),
(264,483,o),
(237,551,cs),
(209,619,o),
(172,687,o),
(131,759,c),
(23,714,l),
(43,683,o),
(74,625,o),
(101,558,cs),
(128,490,o),
(149,413,o),
(149,344,cs),
(149,291,o),
(137,235,o),
(115,177,cs),
(93,119,o),
(62,58,o),
(26,-3,c),
(129,-54,l),
(172,7,o),
(208,74,o),
(236,142,cs),
(263,209,o),
(280,279,o),
(280,347,cs)
);
}
);
width = 313;
},
{
layerId = "BB3EF6CB-1E12-4008-9D80-E52F161ACC69";
shapes = (
{
closed = 1;
nodes = (
(241,414,o),
(226,481,o),
(200,547,cs),
(174,613,o),
(139,677,o),
(99,744,c),
(31,714,l),
(56,677,o),
(89,616,o),
(114,549,cs),
(139,482,o),
(159,408,o),
(159,343,cs),
(159,291,o),
(147,233,o),
(125,174,cs),
(103,114,o),
(72,52,o),
(33,-8,c),
(98,-42,l),
(141,21,o),
(176,86,o),
(201,151,cs),
(226,215,o),
(241,282,o),
(241,346,cs)
);
}
);
width = 283;
},
{
layerId = "3FABAEC4-ABD6-4E2D-B151-012D8FCAB9DA";
shapes = (
{
closed = 1;
nodes = (
(184,413,o),
(169,478,o),
(145,541,cs),
(121,604,o),
(87,665,o),
(51,726,c),
(35,714,l),
(67,667,o),
(100,605,o),
(124,539,cs),
(148,473,o),
(165,402,o),
(165,342,cs),
(165,291,o),
(154,231,o),
(132,170,cs),
(110,109,o),
(76,45,o),
(35,-14,c),
(51,-26,l),
(94,37,o),
(127,100,o),
(150,162,cs),
(173,224,o),
(184,285,o),
(184,345,cs)
);
}
);
width = 233;
}
);
unicode = 41;
},
{
glyphname = asterisk;
layers = (
{
layerId = "6504B2D0-4073-42C8-9B7C-2A4329A12EFE";
shapes = (
{
closed = 1;
nodes = (
(134,454,l),
(182,537,l),
(230,454,l),
(299,499,l),
(250,577,l),
(322,598,l),
(298,675,l),
(223,639,l),
(230,721,l),
(134,721,l),
(141,639,l),
(66,675,l),
(42,598,l),
(114,577,l),
(65,499,l)
);
}
);
width = 364;
},
{
layerId = "16C3235A-0965-4506-9E91-995A1F108181";
shapes = (
{
closed = 1;
nodes = (
(127,486,l),
(173,561,l),
(218,486,l),
(270,521,l),
(223,591,l),
(293,613,l),
(275,670,l),
(203,639,l),
(208,717,l),
(136,717,l),
(141,639,l),
(69,670,l),
(51,613,l),
(122,591,l),
(75,521,l)
);
}
);
width = 345;
},
{
layerId = "BB3EF6CB-1E12-4008-9D80-E52F161ACC69";
shapes = (
{
closed = 1;
nodes = (
(121,513,l),
(165,580,l),
(208,513,l),
(246,538,l),
(201,603,l),
(270,625,l),
(257,667,l),
(187,640,l),
(190,714,l),
(139,714,l),
(142,640,l),
(72,667,l),
(59,625,l),
(128,603,l),
(84,538,l)
);
}
);
width = 329;
},
{
layerId = "3FABAEC4-ABD6-4E2D-B151-012D8FCAB9DA";
shapes = (
{
closed = 1;
nodes = (
(110,552,l),
(151,609,l),
(192,552,l),
(209,564,l),
(167,621,l),
(234,643,l),
(228,662,l),
(161,640,l),
(161,710,l),
(141,710,l),
(141,640,l),
(74,662,l),
(68,643,l),
(135,621,l),
(94,564,l)
);
}
);
width = 302;
}
);
unicode = 42;
},
{
glyphname = plus;
layers = (
{
layerId = "6504B2D0-4073-42C8-9B7C-2A4329A12EFE";
shapes = (
{
closed = 1;
nodes = (
(299,430,l),
(299,525,l),
(129,525,l),
(129,430,l),
(44,430,l),
(44,280,l),
(129,280,l),
(129,185,l),
(299,185,l),
(299,280,l),
(384,280,l),
(384,430,l)
);
}
);
width = 428;
},
{
layerId = "16C3235A-0965-4506-9E91-995A1F108181";
shapes = (
{
closed = 1;
nodes = (
(271,408,l),
(271,522,l),
(151,522,l),
(151,408,l),
(47,408,l),
(47,302,l),
(151,302,l),
(151,188,l),
(271,188,l),
(271,302,l),
(374,302,l),
(374,408,l)
);
}
);
width = 421;
},
{
layerId = "BB3EF6CB-1E12-4008-9D80-E52F161ACC69";
shapes = (
{
closed = 1;
nodes = (
(248,391,l),
(248,519,l),
(168,519,l),
(168,391,l),
(50,391,l),
(50,319,l),
(168,319,l),
(168,191,l),
(248,191,l),
(248,319,l),
(366,319,l),
(366,391,l)
);
}
);
width = 416;
},
{
layerId = "3FABAEC4-ABD6-4E2D-B151-012D8FCAB9DA";
shapes = (
{
closed = 1;
nodes = (
(216,365,l),
(216,515,l),
(196,515,l),
(196,365,l),
(56,365,l),
(56,345,l),
(196,345,l),
(196,195,l),
(216,195,l),
(216,345,l),
(356,345,l),
(356,365,l)
);
}
);
width = 412;
}
);
unicode = 43;
},
{
glyphname = comma;
layers = (
{
layerId = "6504B2D0-4073-42C8-9B7C-2A4329A12EFE";
shapes = (
{
closed = 1;
nodes = (
(89,-183,l),
(244,89,l),
(77,119,l),
(9,-160,l)
);
}
);
width = 268;
},
{
layerId = "16C3235A-0965-4506-9E91-995A1F108181";
shapes = (
{
closed = 1;
nodes = (
(86,-177,l),
(212,89,l),
(83,111,l),
(23,-160,l)
);
}
);
width = 268;
},
{
layerId = "BB3EF6CB-1E12-4008-9D80-E52F161ACC69";
shapes = (
{
closed = 1;
nodes = (
(75,-171,l),
(177,90,l),
(87,102,l),
(30,-160,l)
);
}
);
width = 268;
},
{
layerId = "3FABAEC4-ABD6-4E2D-B151-012D8FCAB9DA";
shapes = (
{
closed = 1;
nodes = (
(79,-165,l),
(155,94,l),
(120,100,l),
(56,-160,l)
);
}
);
width = 268;
}
);
leftKerningGroup = comma2;
rightKerningGroup = comma;
unicode = 44;
},
{
glyphname = hyphen;
layers = (
{
layerId = "6504B2D0-4073-42C8-9B7C-2A4329A12EFE";
shapes = (
{
closed = 1;
nodes = (
(363,191,l),
(363,361,l),
(50,361,l),
(50,191,l)
);
}
);
width = 413;
},
{
layerId = "16C3235A-0965-4506-9E91-995A1F108181";
shapes = (
{
closed = 1;
nodes = (
(361,214,l),
(361,335,l),
(58,335,l),
(58,214,l)
);
}
);
width = 419;
},
{
layerId = "BB3EF6CB-1E12-4008-9D80-E52F161ACC69";
shapes = (
{
closed = 1;
nodes = (
(359,233,l),
(359,313,l),
(64,313,l),
(64,233,l)
);
}
);
width = 423;
},
{
layerId = "3FABAEC4-ABD6-4E2D-B151-012D8FCAB9DA";
shapes = (
{
closed = 1;
nodes = (
(352,261,l),
(352,281,l),
(69,281,l),
(69,261,l)
);
}
);
width = 421;
}
);
leftKerningGroup = hyphen2;
rightKerningGroup = hyphen;
unicode = 45;
},
{
glyphname = period;
layers = (
{
layerId = "6504B2D0-4073-42C8-9B7C-2A4329A12EFE";
shapes = (
{
closed = 1;
nodes = (
(40,32,o),
(82,-10,o),
(134,-10,cs),
(186,-10,o),
(228,32,o),
(228,84,cs),
(228,136,o),
(186,178,o),
(134,178,cs),
(81,178,o),
(40,136,o),
(40,84,cs)
);
}
);
width = 268;
},
{
layerId = "16C3235A-0965-4506-9E91-995A1F108181";
shapes = (
{
closed = 1;
nodes = (
(60,23,o),
(93,-10,o),
(133,-10,cs),
(173,-10,o),
(206,23,o),
(206,63,cs),
(206,103,o),
(173,137,o),
(133,137,cs),
(93,137,o),
(60,103,o),
(60,63,cs)
);
}
);
width = 268;
},
{
layerId = "BB3EF6CB-1E12-4008-9D80-E52F161ACC69";
shapes = (
{
closed = 1;
nodes = (
(77,15,o),
(102,-10,o),
(133,-10,cs),
(164,-10,o),
(189,15,o),
(189,46,cs),
(189,77,o),
(164,102,o),
(133,102,cs),
(102,102,o),
(77,77,o),
(77,46,cs)
);
}
);
width = 268;
},
{
layerId = "3FABAEC4-ABD6-4E2D-B151-012D8FCAB9DA";
shapes = (
{
closed = 1;
nodes = (
(100,10,o),
(115,-5,o),
(134,-5,cs),
(153,-5,o),
(168,10,o),
(168,29,cs),
(168,48,o),
(153,62,o),
(134,62,cs),
(115,62,o),
(100,48,o),
(100,29,cs)
);
}
);
width = 268;
}
);
leftKerningGroup = comma2;
rightKerningGroup = comma;
unicode = 46;
},
{
glyphname = slash;
layers = (
{
layerId = "6504B2D0-4073-42C8-9B7C-2A4329A12EFE";
shapes = (
{
closed = 1;
nodes = (
(541,710,l),
(26,0,l),
(235,0,l),
(751,710,l)
);
}
);
width = 777;
},
{
layerId = "16C3235A-0965-4506-9E91-995A1F108181";
shapes = (
{
closed = 1;
nodes = (
(522,710,l),
(26,0,l),
(174,0,l),
(671,710,l)
);
}
);
width = 698;
},
{
layerId = "BB3EF6CB-1E12-4008-9D80-E52F161ACC69";
shapes = (
{
closed = 1;
nodes = (
(506,710,l),
(27,0,l),
(125,0,l),
(605,710,l)
);
}
);
width = 633;
},
{
layerId = "3FABAEC4-ABD6-4E2D-B151-012D8FCAB9DA";
shapes = (
{
closed = 1;
nodes = (
(482,710,l),
(27,0,l),
(52,0,l),
(508,710,l)
);
}
);
width = 536;
}
);
unicode = 47;
},
{
glyphname = zero;
layers = (
{
layerId = "6504B2D0-4073-42C8-9B7C-2A4329A12EFE";
shapes = (
{
closed = 1;
nodes = (
(385,-10,o),
(455,37,o),
(506,105,cs),
(557,173,o),
(584,262,o),
(584,350,cs),
(584,427,o),
(559,516,o),
(510,588,cs),
(461,660,o),
(389,710,o),
(293,710,cs),
(201,710,o),
(131,663,o),
(80,595,cs),
(29,526,o),
(2,435,o),
(2,350,cs),
(2,270,o),
(27,182,o),
(76,111,cs),
(124,40,o),
(197,-10,o),
(293,-10,cs)
);
},
{
closed = 1;
nodes = (
(200,390,o),
(206,436,o),
(221,473,cs),
(236,510,o),
(258,537,o),
(293,537,cs),
(326,537,o),
(349,512,o),
(364,476,cs),
(379,440,o),
(386,394,o),
(386,350,cs),
(386,310,o),
(380,264,o),
(365,227,cs),
(350,190,o),
(328,163,o),
(293,163,cs),
(260,163,o),
(237,188,o),
(222,224,cs),
(206,260,o),
(200,306,o),
(200,350,cs)
);
}
);
width = 586;
},
{
layerId = "16C3235A-0965-4506-9E91-995A1F108181";
shapes = (
{
closed = 1;
nodes = (
(381,-10,o),
(449,37,o),
(497,105,cs),
(545,173,o),
(570,262,o),
(570,350,cs),
(570,427,o),
(548,516,o),
(501,588,cs),
(453,660,o),
(386,710,o),
(293,710,cs),
(205,710,o),
(138,663,o),
(90,595,cs),
(41,526,o),
(16,435,o),
(16,350,cs),
(16,270,o),
(38,182,o),
(86,111,cs),
(133,40,o),
(201,-10,o),
(293,-10,cs)
);
},
{
closed = 1;
nodes = (
(154,401,o),
(165,459,o),
(188,506,cs),
(211,554,o),
(245,587,o),
(293,587,cs),
(340,587,o),
(373,555,o),
(397,510,cs),
(421,465,o),
(432,406,o),
(432,350,cs),
(432,299,o),
(422,242,o),
(399,194,cs),
(376,146,o),
(342,113,o),
(293,113,cs),
(246,113,o),
(213,145,o),
(190,190,cs),
(166,235,o),
(155,294,o),
(154,350,c)
);
}
);
width = 586;
},
{
layerId = "BB3EF6CB-1E12-4008-9D80-E52F161ACC69";
shapes = (
{
closed = 1;
nodes = (
(377,-9,o),
(442,38,o),
(489,106,cs),
(536,174,o),
(560,262,o),
(560,350,cs),
(560,427,o),
(537,516,o),
(493,588,cs),
(448,660,o),
(382,710,o),
(293,710,cs),
(209,710,o),
(145,663,o),
(98,595,cs),
(51,526,o),
(26,435,o),
(26,350,cs),
(26,270,o),
(49,183,o),
(94,112,cs),
(139,41,o),
(205,-9,o),
(293,-10,c)
);
},
{
closed = 1;
nodes = (
(117,410,o),
(132,478,o),
(161,534,cs),
(189,590,o),
(233,629,o),
(293,629,cs),
(350,629,o),
(393,591,o),
(424,538,cs),
(455,485,o),
(469,415,o),
(469,350,cs),
(469,290,o),
(455,223,o),
(427,167,cs),
(398,111,o),
(354,71,o),
(293,71,cs),
(236,71,o),
(192,109,o),
(163,162,cs),
(134,215,o),
(120,285,o),
(117,350,c)
);
}
);
width = 586;
},
{
layerId = "3FABAEC4-ABD6-4E2D-B151-012D8FCAB9DA";
shapes = (
{
closed = 1;
nodes = (
(373,-9,o),
(436,38,o),
(480,106,cs),
(524,174,o),
(549,262,o),
(549,350,cs),
(549,427,o),
(527,516,o),
(484,588,cs),
(441,660,o),
(377,710,o),
(293,710,cs),
(213,710,o),
(149,663,o),
(105,595,cs),
(61,526,o),
(37,435,o),
(37,350,cs),
(37,270,o),
(58,181,o),
(102,112,cs),
(145,43,o),
(208,-7,o),
(293,-10,c)
);
},
{
closed = 1;
nodes = (
(57,422,o),
(76,506,o),
(116,574,cs),
(156,642,o),
(213,690,o),
(293,690,cs),
(366,690,o),
(425,644,o),
(466,580,c),
(506,515,o),
(529,430,o),
(529,350,cs),
(529,278,o),
(509,194,o),
(470,126,cs),
(430,58,o),
(370,10,o),
(293,10,cs),
(217,10,o),
(160,56,o),
(121,121,c),
(81,185,o),
(60,270,o),
(57,350,c)
);
}
);
width = 586;
}
);
unicode = 48;
},
{
glyphname = one;
layers = (
{
layerId = "6504B2D0-4073-42C8-9B7C-2A4329A12EFE";
shapes = (
{
closed = 1;
nodes = (
(406,170,l),
(406,710,l),
(212,710,l),
(201,698,o),
(183,680,o),
(170,668,cs),
(139,639,o),
(94,617,o),
(59,615,c),
(59,441,l),
(79,443,o),
(113,456,o),
(143,472,cs),
(175,489,o),
(203,511,o),
(212,527,c),
(212,170,l),
(40,170,l),
(40,0,l),
(546,0,l),
(546,170,l)
);
}
);
width = 586;
},
{
layerId = "16C3235A-0965-4506-9E91-995A1F108181";
shapes = (
{
closed = 1;
nodes = (
(373,120,l),
(373,710,l),
(237,710,l),
(227,699,o),
(209,681,o),
(199,672,cs),
(162,639,o),
(110,616,o),
(70,614,c),
(70,490,l),
(94,491,o),
(131,503,o),
(163,520,cs),
(195,537,o),
(225,560,o),
(237,577,c),
(237,120,l),
(42,120,l),
(42,0,l),
(544,0,l),
(544,120,l)
);
}
);
width = 586;
},
{
layerId = "BB3EF6CB-1E12-4008-9D80-E52F161ACC69";
shapes = (
{
closed = 1;
nodes = (
(347,79,l),
(347,710,l),
(257,710,l),
(245,689,o),
(219,663,o),
(181,635,cs),
(143,607,o),
(98,586,o),
(69,583,c),
(69,500,l),
(89,500,o),
(127,512,o),
(163,530,cs),
(205,551,o),
(243,581,o),
(257,604,c),
(257,79,l),
(44,79,l),
(44,-1,l),
(542,-1,l),
(542,79,l)
);
}
);
width = 586;
},
{
layerId = "3FABAEC4-ABD6-4E2D-B151-012D8FCAB9DA";
shapes = (
{
closed = 1;
nodes = (
(307,19,l),
(307,710,l),
(287,710,l),
(271,678,o),
(240,649,o),
(190,619,cs),
(155,598,o),
(111,586,o),
(79,588,c),
(79,567,l),
(99,562,o),
(143,573,o),
(186,594,cs),
(233,617,o),
(273,650,o),
(287,677,c),
(287,19,l),
(33,19,l),
(33,-1,l),
(554,-1,l),
(554,19,l)
);
}
);
width = 586;
}
);
unicode = 49;
},
{
glyphname = two;
layers = (
{
layerId = "6504B2D0-4073-42C8-9B7C-2A4329A12EFE";
shapes = (
{
closed = 1;
nodes = (
(557,-2,l),
(557,168,l),
(253,168,l),
(270,180,o),
(286,191,o),
(310,207,cs),
(334,223,o),
(367,244,o),
(416,276,cs),
(460,304,o),
(494,334,o),
(518,371,cs),
(542,407,o),
(555,451,o),
(555,502,cs),
(555,569,o),
(534,623,o),
(491,660,cs),
(447,697,o),
(385,718,o),
(306,718,cs),
(242,718,o),
(184,705,o),
(136,684,cs),
(87,663,o),
(47,634,o),
(22,603,c),
(134,476,l),
(153,495,o),
(176,513,o),
(200,526,cs),
(224,539,o),
(252,548,o),
(276,548,cs),
(293,548,o),
(307,545,o),
(319,535,cs),
(331,525,o),
(339,510,o),
(339,487,cs),
(339,444,o),
(310,412,o),
(274,384,cs),
(238,356,o),
(192,333,o),
(153,309,cs),
(96,272,o),
(62,236,o),
(43,189,cs),
(24,141,o),
(22,82,o),
(22,-2,c)
);
}
);
width = 586;
},
{
layerId = "16C3235A-0965-4506-9E91-995A1F108181";
shapes = (
{
closed = 1;
nodes = (
(544,-2,l),
(544,125,l),
(202,125,l),
(211,149,o),
(223,169,o),
(248,193,cs),
(272,216,o),
(311,243,o),
(375,278,cs),
(419,303,o),
(460,330,o),
(491,366,cs),
(522,402,o),
(542,448,o),
(542,507,cs),
(542,568,o),
(522,622,o),
(482,659,cs),
(442,696,o),
(383,718,o),
(306,718,cs),
(238,718,o),
(182,701,o),
(135,676,cs),
(88,651,o),
(57,621,o),
(37,600,c),
(123,506,l),
(140,526,o),
(164,546,o),
(192,562,cs),
(219,578,o),
(253,590,o),
(286,590,cs),
(317,590,o),
(340,581,o),
(357,565,cs),
(373,549,o),
(383,526,o),
(383,498,cs),
(383,447,o),
(353,413,o),
(313,385,cs),
(273,356,o),
(221,334,o),
(177,306,cs),
(124,273,o),
(88,236,o),
(66,188,cs),
(44,140,o),
(35,81,o),
(35,-2,c)
);
}
);
width = 586;
},
{
layerId = "BB3EF6CB-1E12-4008-9D80-E52F161ACC69";
shapes = (
{
closed = 1;
nodes = (
(529,-2,l),
(529,78,l),
(146,78,l),
(147,115,o),
(154,146,o),
(179,178,cs),
(204,209,o),
(250,241,o),
(331,281,cs),
(375,304,o),
(423,326,o),
(462,361,cs),
(501,396,o),
(528,444,o),
(528,512,cs),
(528,568,o),
(509,621,o),
(473,658,cs),
(436,695,o),
(382,719,o),
(307,719,cs),
(234,719,o),
(178,696,o),
(135,668,cs),
(91,639,o),
(66,609,o),
(54,596,c),
(111,539,l),
(127,559,o),
(151,582,o),
(183,602,cs),
(214,621,o),
(253,635,o),
(297,635,cs),
(342,635,o),
(376,621,o),
(398,598,cs),
(420,575,o),
(430,544,o),
(430,509,cs),
(430,450,o),
(399,414,o),
(355,385,cs),
(311,356,o),
(254,334,o),
(203,303,cs),
(155,274,o),
(117,237,o),
(91,188,cs),
(65,139,o),
(49,78,o),
(49,-2,c)
);
}
);
width = 586;
},
{
layerId = "3FABAEC4-ABD6-4E2D-B151-012D8FCAB9DA";
shapes = (
{
closed = 1;
nodes = (
(512,-2,l),
(512,18,l),
(93,18,l),
(93,57,o),
(95,109,o),
(119,161,cs),
(143,212,o),
(189,263,o),
(276,299,cs),
(321,318,o),
(380,335,o),
(428,368,cs),
(475,401,o),
(511,446,o),
(511,521,cs),
(511,570,o),
(494,620,o),
(461,657,cs),
(428,694,o),
(377,719,o),
(308,719,cs),
(232,719,o),
(175,688,o),
(138,656,cs),
(101,624,o),
(83,592,o),
(83,591,c),
(99,581,l),
(112,601,o),
(135,630,o),
(169,654,cs),
(203,678,o),
(246,697,o),
(306,697,cs),
(370,697,o),
(417,675,o),
(446,642,cs),
(475,609,o),
(491,564,o),
(491,520,cs),
(491,453,o),
(458,412,o),
(415,384,cs),
(371,355,o),
(315,337,o),
(268,317,cs),
(209,293,o),
(158,259,o),
(123,208,cs),
(87,157,o),
(67,90,o),
(74,-2,c)
);
}
);
width = 586;
}
);
unicode = 50;
},
{
glyphname = three;
layers = (
{
layerId = "6504B2D0-4073-42C8-9B7C-2A4329A12EFE";
shapes = (
{
closed = 1;
nodes = (
(394,-7,o),
(545,43,o),
(545,197,cs),
(545,281,o),
(492,365,o),
(405,379,c),
(482,393,o),
(534,466,o),
(534,542,cs),
(534,671,o),
(400,718,o),
(292,718,cs),
(210,718,o),
(90,693,o),
(35,626,c),
(151,487,l),
(178,528,o),
(216,555,o),
(266,555,cs),
(299,555,o),
(330,541,o),
(330,504,cs),
(330,435,o),
(240,437,o),
(193,437,c),
(193,303,l),
(216,303,o),
(249,304,o),
(279,299,cs),
(316,293,o),
(348,276,o),
(348,234,cs),
(348,178,o),
(299,169,o),
(253,169,cs),
(201,169,o),
(161,181,o),
(120,213,c),
(27,73,l),
(98,14,o),
(173,-7,o),
(265,-7,cs)
);
}
);
width = 586;
},
{
layerId = "16C3235A-0965-4506-9E91-995A1F108181";
shapes = (
{
closed = 1;
nodes = (
(393,-9,o),
(537,46,o),
(537,191,cs),
(537,278,o),
(480,358,o),
(391,373,c),
(470,390,o),
(523,452,o),
(523,533,cs),
(523,661,o),
(397,718,o),
(285,718,cs),
(201,718,o),
(95,688,o),
(45,616,c),
(133,514,l),
(161,566,o),
(214,595,o),
(272,595,cs),
(323,595,o),
(372,567,o),
(372,511,cs),
(372,420,o),
(256,420,o),
(192,420,c),
(192,313,l),
(222,313,o),
(265,313,o),
(303,305,cs),
(350,294,o),
(391,270,o),
(391,216,cs),
(391,145,o),
(323,122,o),
(263,122,cs),
(203,122,o),
(153,141,o),
(116,187,c),
(40,86,l),
(100,18,o),
(180,-9,o),
(270,-9,cs)
);
}
);
width = 586;
},
{
layerId = "BB3EF6CB-1E12-4008-9D80-E52F161ACC69";
shapes = (
{
closed = 1;
nodes = (
(392,-11,o),
(528,50,o),
(528,184,cs),
(528,274,o),
(466,351,o),
(376,367,c),
(456,386,o),
(511,436,o),
(511,523,cs),
(511,650,o),
(394,719,o),
(278,719,cs),
(192,719,o),
(101,682,o),
(56,605,c),
(113,544,l),
(142,608,o),
(211,639,o),
(278,639,cs),
(348,639,o),
(418,596,o),
(418,519,cs),
(418,404,o),
(273,401,o),
(191,401,c),
(191,324,l),
(229,324,o),
(282,323,o),
(329,311,cs),
(387,296,o),
(437,264,o),
(437,197,cs),
(437,110,o),
(349,71,o),
(274,71,cs),
(205,71,o),
(145,97,o),
(111,159,c),
(54,100,l),
(102,22,o),
(187,-11,o),
(276,-11,cs)
);
}
);
width = 586;
},
{
layerId = "3FABAEC4-ABD6-4E2D-B151-012D8FCAB9DA";
shapes = (
{
closed = 1;
nodes = (
(390,-11,o),
(521,54,o),
(521,176,cs),
(521,272,o),
(452,339,o),
(361,357,c),
(443,378,o),
(501,433,o),
(501,521,cs),
(501,644,o),
(397,719,o),
(281,719,cs),
(193,719,o),
(106,675,o),
(74,590,c),
(91,582,l),
(120,660,o),
(202,697,o),
(281,697,cs),
(384,697,o),
(481,632,o),
(481,521,cs),
(481,380,o),
(338,370,o),
(231,370,c),
(231,348,l),
(275,348,o),
(318,348,o),
(361,336,cs),
(436,315,o),
(501,263,o),
(501,179,cs),
(501,69,o),
(379,11,o),
(283,11,cs),
(206,11,o),
(113,48,o),
(86,126,c),
(68,119,l),
(101,31,o),
(193,-11,o),
(283,-11,cs)
);
}
);
width = 586;
}
);
unicode = 51;
},
{
glyphname = four;
layers = (
{
layerId = "6504B2D0-4073-42C8-9B7C-2A4329A12EFE";
shapes = (
{
closed = 1;
nodes = (
(462,1,l),
(462,137,l),
(547,137,l),
(547,307,l),
(462,307,l),
(462,710,l),
(336,710,l),
(31,307,l),
(31,137,l),
(278,137,l),
(278,1,l)
);
},
{
closed = 1;
nodes = (
(300,426,l),
(300,307,l),
(211,307,l)
);
}
);
width = 586;
},
{
layerId = "16C3235A-0965-4506-9E91-995A1F108181";
shapes = (
{
closed = 1;
nodes = (
(456,1,l),
(456,158,l),
(541,158,l),
(541,285,l),
(456,285,l),
(456,710,l),
(362,710,l),
(37,284,l),
(37,158,l),
(319,158,l),
(319,1,l)
);
},
{
closed = 1;
nodes = (
(335,497,l),
(335,285,l),
(172,285,l)
);
}
);
width = 586;
},
{
layerId = "BB3EF6CB-1E12-4008-9D80-E52F161ACC69";
shapes = (
{
closed = 1;
nodes = (
(449,0,l),
(449,181,l),
(534,181,l),
(534,261,l),
(449,261,l),
(449,710,l),
(390,710,l),
(43,260,l),
(43,181,l),
(364,181,l),
(364,0,l)
);
},
{
closed = 1;
nodes = (
(372,575,l),
(372,261,l),
(130,261,l)
);
}
);
width = 586;
},
{
layerId = "3FABAEC4-ABD6-4E2D-B151-012D8FCAB9DA";
shapes = (
{
closed = 1;
nodes = (
(442,0,l),
(442,211,l),
(527,211,l),
(527,231,l),
(442,231,l),
(442,710,l),
(429,710,l),
(52,228,l),
(52,211,l),
(423,211,l),
(423,0,l)
);
},
{
closed = 1;
nodes = (
(423,673,l),
(423,231,l),
(79,231,l)
);
}
);
width = 586;
}
);
unicode = 52;
},
{
glyphname = five;
layers = (
{
layerId = "6504B2D0-4073-42C8-9B7C-2A4329A12EFE";
shapes = (
{
closed = 1;
nodes = (
(352,-11,o),
(420,14,o),
(468,57,cs),
(516,100,o),
(542,160,o),
(542,235,cs),
(542,303,o),
(519,361,o),
(477,402,cs),
(435,442,o),
(378,466,o),
(310,466,cs),
(279,466,o),
(264,461,o),
(264,461,c),
(274,537,l),
(490,537,l),
(490,710,l),
(143,710,l),
(61,267,l),
(219,267,l),
(231,288,o),
(254,302,o),
(281,302,cs),
(300,302,o),
(317,295,o),
(329,282,cs),
(341,269,o),
(347,251,o),
(347,230,cs),
(347,207,o),
(339,190,o),
(327,177,cs),
(314,164,o),
(294,157,o),
(271,157,cs),
(227,157,o),
(180,182,o),
(143,223,c),
(42,103,l),
(86,31,o),
(172,-11,o),
(273,-11,cs)
);
}
);
width = 586;
},
{
layerId = "16C3235A-0965-4506-9E91-995A1F108181";
shapes = (
{
closed = 1;
nodes = (
(352,-11,o),
(416,14,o),
(463,56,cs),
(510,98,o),
(536,158,o),
(536,231,cs),
(536,299,o),
(511,356,o),
(470,396,cs),
(429,436,o),
(371,460,o),
(306,460,cs),
(263,460,o),
(233,449,o),
(220,432,c),
(245,581,l),
(487,581,l),
(487,710,l),
(145,710,l),
(65,284,l),
(186,284,l),
(206,317,o),
(244,337,o),
(285,337,cs),
(314,337,o),
(341,326,o),
(361,306,cs),
(380,286,o),
(392,259,o),
(392,227,cs),
(392,192,o),
(379,166,o),
(359,146,cs),
(339,126,o),
(309,115,o),
(276,115,cs),
(219,115,o),
(164,146,o),
(127,198,c),
(49,113,l),
(92,36,o),
(177,-11,o),
(277,-11,cs)
);
}
);
width = 586;
},
{
layerId = "BB3EF6CB-1E12-4008-9D80-E52F161ACC69";
shapes = (
{
closed = 1;
nodes = (
(353,-12,o),
(413,12,o),
(458,54,cs),
(502,96,o),
(530,154,o),
(530,227,cs),
(530,294,o),
(504,350,o),
(463,390,cs),
(422,430,o),
(364,453,o),
(301,453,cs),
(246,453,o),
(201,436,o),
(172,401,c),
(214,629,l),
(484,629,l),
(484,710,l),
(147,710,l),
(70,302,l),
(150,302,l),
(179,349,o),
(233,375,o),
(289,375,cs),
(330,375,o),
(368,360,o),
(396,333,c),
(423,305,o),
(440,267,o),
(440,223,cs),
(440,178,o),
(423,140,o),
(395,113,cs),
(366,85,o),
(328,69,o),
(281,69,cs),
(212,69,o),
(145,97,o),
(111,159,c),
(54,100,l),
(102,22,o),
(193,-12,o),
(282,-12,cs)
);
}
);
width = 586;
},
{
layerId = "3FABAEC4-ABD6-4E2D-B151-012D8FCAB9DA";
shapes = (
{
closed = 1;
nodes = (
(350,-12,o),
(407,11,o),
(449,52,cs),
(491,92,o),
(516,149,o),
(516,221,cs),
(516,288,o),
(492,343,o),
(452,383,cs),
(411,422,o),
(355,445,o),
(294,445,cs),
(226,445,o),
(160,418,o),
(113,363,c),
(176,690,l),
(484,690,l),
(484,710,l),
(158,710,l),
(83,325,l),
(107,325,l),
(150,389,o),
(220,423,o),
(293,423,cs),
(350,423,o),
(400,402,o),
(437,366,cs),
(474,330,o),
(496,279,o),
(496,219,cs),
(496,158,o),
(474,106,o),
(436,69,cs),
(398,32,o),
(347,10,o),
(288,10,cs),
(211,10,o),
(113,48,o),
(86,126,c),
(68,119,l),
(101,31,o),
(199,-12,o),
(289,-12,cs)
);
}
);
width = 586;
}
);
unicode = 53;
},
{
glyphname = six;
layers = (
{
layerId = "6504B2D0-4073-42C8-9B7C-2A4329A12EFE";
shapes = (
{
closed = 1;
nodes = (
(556,377,o),
(446,473,o),
(312,473,cs),
(276,473,o),
(232,466,o),
(205,439,c),
(209,502,o),
(243,550,o),
(310,550,cs),
(355,550,o),
(399,531,o),
(430,498,c),
(535,618,l),
(474,683,o),
(402,716,o),
(313,716,cs),
(100,716,o),
(30,520,o),
(30,338,cs),
(30,167,o),
(94,-12,o),
(294,-12,cs),
(438,-12,o),
(556,93,o),
(556,240,cs)
);
},
{
closed = 1;
nodes = (
(375,195,o),
(339,149,o),
(294,149,cs),
(250,149,o),
(211,195,o),
(211,238,cs),
(211,284,o),
(248,322,o),
(294,322,cs),
(341,322,o),
(375,284,o),
(375,238,cs)
);
}
);
width = 586;
},
{
layerId = "16C3235A-0965-4506-9E91-995A1F108181";
shapes = (
{
closed = 1;
nodes = (
(551,373,o),
(444,473,o),
(310,473,cs),
(253,473,o),
(197,449,o),
(169,400,c),
(171,485,o),
(207,591,o),
(308,591,cs),
(365,591,o),
(415,565,o),
(444,516,c),
(525,603,l),
(474,676,o),
(400,716,o),
(310,716,cs),
(98,716,o),
(38,492,o),
(38,317,cs),
(38,153,o),
(107,-12,o),
(295,-12,cs),
(437,-12,o),
(551,95,o),
(551,238,cs)
);
},
{
closed = 1;
nodes = (
(416,171,o),
(363,109,o),
(296,109,cs),
(229,109,o),
(175,171,o),
(175,236,cs),
(175,303,o),
(228,360,o),
(296,360,cs),
(364,360,o),
(416,302,o),
(416,236,cs)
);
}
);
width = 586;
},
{
layerId = "BB3EF6CB-1E12-4008-9D80-E52F161ACC69";
shapes = (
{
closed = 1;
nodes = (
(545,369,o),
(441,474,o),
(307,474,cs),
(228,474,o),
(159,431,o),
(130,357,c),
(130,466,o),
(167,636,o),
(305,636,cs),
(375,636,o),
(432,601,o),
(460,536,c),
(514,587,l),
(474,669,o),
(398,715,o),
(307,715,cs),
(95,715,o),
(47,461,o),
(47,295,cs),
(47,138,o),
(122,-12,o),
(297,-12,cs),
(435,-12,o),
(545,97,o),
(545,235,cs)
);
},
{
closed = 1;
nodes = (
(461,145,o),
(388,66,o),
(298,66,cs),
(207,66,o),
(136,145,o),
(136,234,cs),
(136,323,o),
(207,401,o),
(298,401,cs),
(388,401,o),
(461,322,o),
(461,234,cs)
);
}
);
width = 586;
},
{
layerId = "3FABAEC4-ABD6-4E2D-B151-012D8FCAB9DA";
shapes = (
{
closed = 1;
nodes = (
(537,360,o),
(437,475,o),
(304,475,cs),
(194,475,o),
(114,407,o),
(80,305,c),
(80,446,o),
(117,693,o),
(302,693,cs),
(388,693,o),
(456,643,o),
(481,561,c),
(500,568,l),
(472,659,o),
(398,715,o),
(302,715,cs),
(92,715,o),
(58,422,o),
(58,265,cs),
(58,120,o),
(142,-12,o),
(299,-12,cs),
(433,-12,o),
(537,97,o),
(537,230,cs)
);
},
{
closed = 1;
nodes = (
(517,111,o),
(422,10,o),
(301,10,cs),
(179,10,o),
(84,111,o),
(84,232,cs),
(84,350,o),
(181,453,o),
(300,453,cs),
(418,453,o),
(517,348,o),
(517,231,cs)
);
}
);
width = 586;
}
);
unicode = 54;
},
{
glyphname = seven;
layers = (
{
layerId = "6504B2D0-4073-42C8-9B7C-2A4329A12EFE";
shapes = (
{
closed = 1;
nodes = (
(36,1,l),
(244,1,l),
(578,710,l),
(29,710,l),
(29,537,l),
(290,537,l)
);
}
);
width = 586;
},
{
layerId = "16C3235A-0965-4506-9E91-995A1F108181";
shapes = (
{
closed = 1;
nodes = (
(70,1,l),
(224,1,l),
(563,710,l),
(44,710,l),
(44,581,l),
(349,581,l)
);
}
);
width = 586;
},
{
layerId = "BB3EF6CB-1E12-4008-9D80-E52F161ACC69";
shapes = (
{
closed = 1;
nodes = (
(106,0,l),
(203,0,l),
(547,710,l),
(61,710,l),
(61,629,l),
(412,629,l)
);
}
);
width = 586;
},
{
layerId = "3FABAEC4-ABD6-4E2D-B151-012D8FCAB9DA";
shapes = (
{
closed = 1;
nodes = (
(151,0,l),
(174,0,l),
(524,710,l),
(81,710,l),
(81,690,l),
(492,690,l)
);
}
);
width = 586;
}
);
unicode = 55;
},
{
glyphname = eight;
layers = (
{
layerId = "6504B2D0-4073-42C8-9B7C-2A4329A12EFE";
shapes = (
{
closed = 1;
nodes = (
(559,258,o),
(547,290,o),
(531,317,cs),
(515,344,o),
(493,364,o),
(473,379,c),
(492,390,o),
(509,410,o),
(521,432,cs),
(533,454,o),
(540,478,o),
(540,501,cs),
(540,569,o),
(505,622,o),
(457,657,cs),
(409,692,o),
(347,710,o),
(292,710,cs),
(237,710,o),
(176,692,o),
(128,656,cs),
(79,620,o),
(44,567,o),
(44,499,cs),
(44,475,o),
(51,451,o),
(63,431,cs),
(75,410,o),
(91,391,o),
(110,379,c),
(90,364,o),
(69,344,o),
(53,319,cs),
(36,294,o),
(24,263,o),
(24,227,cs),
(24,155,o),
(56,95,o),
(105,54,cs),
(154,13,o),
(221,-10,o),
(292,-10,cs),
(367,-10,o),
(433,13,o),
(481,54,cs),
(529,94,o),
(559,152,o),
(559,221,cs)
);
},
{
closed = 1;
nodes = (
(366,213,o),
(359,196,o),
(346,184,cs),
(333,171,o),
(315,163,o),
(292,163,cs),
(272,163,o),
(252,171,o),
(239,183,cs),
(226,195,o),
(217,212,o),
(217,232,cs),
(217,253,o),
(226,270,o),
(239,282,cs),
(251,294,o),
(271,301,o),
(292,301,cs),
(313,301,o),
(333,295,o),
(346,283,cs),
(359,271,o),
(366,255,o),
(366,232,cs)
);
},
{
closed = 1;
nodes = (
(237,508,o),
(243,520,o),
(252,529,cs),
(261,537,o),
(276,543,o),
(292,543,cs),
(308,543,o),
(323,537,o),
(333,529,cs),
(343,520,o),
(347,508,o),
(347,495,cs),
(347,478,o),
(340,464,o),
(330,455,cs),
(320,446,o),
(305,442,o),
(292,442,cs),
(279,442,o),
(266,446,o),
(255,455,cs),
(244,464,o),
(237,478,o),
(237,495,cs)
);
}
);
width = 586;
},
{
layerId = "16C3235A-0965-4506-9E91-995A1F108181";
shapes = (
{
closed = 1;
nodes = (
(550,251,o),
(536,287,o),
(516,316,cs),
(496,344,o),
(469,366,o),
(441,379,c),
(465,391,o),
(487,410,o),
(503,434,cs),
(519,458,o),
(528,485,o),
(528,513,cs),
(528,577,o),
(496,627,o),
(451,660,cs),
(406,692,o),
(347,710,o),
(292,710,cs),
(239,710,o),
(181,693,o),
(135,659,cs),
(89,625,o),
(56,575,o),
(56,511,cs),
(56,483,o),
(66,456,o),
(82,433,cs),
(98,410,o),
(119,391,o),
(143,379,c),
(118,366,o),
(90,345,o),
(70,318,cs),
(49,290,o),
(35,256,o),
(35,216,cs),
(35,151,o),
(63,94,o),
(110,54,cs),
(157,14,o),
(221,-9,o),
(292,-9,cs),
(363,-9,o),
(427,14,o),
(474,52,cs),
(521,90,o),
(550,144,o),
(550,211,cs)
);
},
{
closed = 1;
nodes = (
(406,191,o),
(394,166,o),
(373,148,cs),
(352,130,o),
(324,119,o),
(293,119,cs),
(265,119,o),
(235,130,o),
(214,147,cs),
(193,163,o),
(178,189,o),
(178,220,cs),
(178,251,o),
(192,276,o),
(213,294,cs),
(233,312,o),
(263,321,o),
(292,321,cs),
(321,321,o),
(351,312,o),
(372,295,cs),
(393,278,o),
(406,252,o),
(406,220,cs)
);
},
{
closed = 1;
nodes = (
(200,531,o),
(210,550,o),
(227,564,cs),
(243,578,o),
(267,585,o),
(292,585,cs),
(317,585,o),
(342,577,o),
(359,564,cs),
(375,551,o),
(385,532,o),
(385,508,cs),
(385,483,o),
(373,462,o),
(356,448,cs),
(339,434,o),
(315,427,o),
(292,427,cs),
(271,427,o),
(248,434,o),
(230,448,cs),
(212,462,o),
(200,482,o),
(200,507,cs)
);
}
);
width = 586;
},
{
layerId = "BB3EF6CB-1E12-4008-9D80-E52F161ACC69";
shapes = (
{
closed = 1;
nodes = (
(540,244,o),
(524,282,o),
(500,313,cs),
(476,344,o),
(442,367,o),
(407,380,c),
(436,392,o),
(464,412,o),
(484,437,cs),
(504,462,o),
(516,493,o),
(516,525,cs),
(516,585,o),
(488,631,o),
(445,663,cs),
(402,694,o),
(346,710,o),
(293,710,cs),
(241,710,o),
(185,694,o),
(142,662,cs),
(99,630,o),
(70,584,o),
(70,524,cs),
(70,491,o),
(82,461,o),
(102,437,cs),
(122,412,o),
(150,392,o),
(179,380,c),
(147,368,o),
(113,347,o),
(89,317,cs),
(64,287,o),
(46,249,o),
(46,205,cs),
(46,145,o),
(72,92,o),
(116,54,cs),
(160,16,o),
(222,-8,o),
(291,-8,cs),
(358,-8,o),
(421,13,o),
(467,49,cs),
(513,85,o),
(540,137,o),
(540,201,cs)
);
},
{
closed = 1;
nodes = (
(450,167,o),
(431,133,o),
(402,109,cs),
(373,85,o),
(333,71,o),
(294,71,cs),
(257,71,o),
(217,84,o),
(187,107,cs),
(157,130,o),
(136,165,o),
(136,206,cs),
(136,249,o),
(155,282,o),
(184,306,cs),
(213,330,o),
(253,343,o),
(292,343,cs),
(331,343,o),
(371,331,o),
(401,308,cs),
(431,284,o),
(450,250,o),
(450,207,cs)
);
},
{
closed = 1;
nodes = (
(160,556,o),
(175,582,o),
(200,602,cs),
(224,621,o),
(257,631,o),
(292,631,cs),
(328,631,o),
(362,621,o),
(387,602,cs),
(411,583,o),
(426,556,o),
(426,523,cs),
(426,487,o),
(409,459,o),
(384,440,cs),
(359,421,o),
(325,411,o),
(293,411,cs),
(261,411,o),
(227,420,o),
(202,439,cs),
(177,458,o),
(160,485,o),
(160,521,cs)
);
}
);
width = 586;
},
{
layerId = "3FABAEC4-ABD6-4E2D-B151-012D8FCAB9DA";
shapes = (
{
closed = 1;
nodes = (
(522,236,o),
(505,277,o),
(477,310,cs),
(448,343,o),
(407,368,o),
(363,381,c),
(398,394,o),
(432,414,o),
(457,441,cs),
(481,468,o),
(497,501,o),
(497,541,cs),
(497,596,o),
(472,638,o),
(434,667,cs),
(396,695,o),
(344,710,o),
(293,710,cs),
(244,710,o),
(193,695,o),
(154,667,cs),
(114,638,o),
(88,596,o),
(88,541,cs),
(88,501,o),
(103,468,o),
(128,441,cs),
(152,414,o),
(186,394,o),
(223,381,c),
(184,370,o),
(143,347,o),
(113,315,cs),
(83,282,o),
(63,239,o),
(63,190,cs),
(63,138,o),
(85,89,o),
(125,53,cs),
(164,17,o),
(221,-7,o),
(290,-7,cs),
(351,-7,o),
(411,12,o),
(453,46,cs),
(495,80,o),
(522,128,o),
(522,188,cs)
);
},
{
closed = 1;
nodes = (
(502,135,o),
(475,90,o),
(436,59,cs),
(396,27,o),
(343,10,o),
(294,10,cs),
(246,10,o),
(194,26,o),
(153,57,cs),
(112,88,o),
(83,132,o),
(83,189,cs),
(83,244,o),
(110,289,o),
(150,321,cs),
(190,353,o),
(242,371,o),
(291,371,cs),
(340,371,o),
(392,355,o),
(433,324,cs),
(474,293,o),
(502,248,o),
(502,191,cs)
);
},
{
closed = 1;
nodes = (
(108,587,o),
(131,625,o),
(165,651,cs),
(199,677,o),
(246,690,o),
(291,690,cs),
(338,690,o),
(386,676,o),
(420,651,cs),
(454,626,o),
(477,589,o),
(477,541,cs),
(477,493,o),
(452,457,o),
(417,431,cs),
(381,405,o),
(335,391,o),
(292,391,cs),
(251,391,o),
(205,405,o),
(169,430,cs),
(133,454,o),
(108,491,o),
(108,539,cs)
);
}
);
width = 586;
}
);
unicode = 56;
},
{
glyphname = nine;
layers = (
{
layerId = "6504B2D0-4073-42C8-9B7C-2A4329A12EFE";
shapes = (
{
closed = 1;
nodes = (
(29,326,o),
(140,231,o),
(274,231,cs),
(311,231,o),
(353,238,o),
(380,265,c),
(376,201,o),
(345,154,o),
(276,154,cs),
(229,154,o),
(188,173,o),
(155,206,c),
(50,86,l),
(111,22,o),
(184,-12,o),
(273,-12,cs),
(486,-12,o),
(555,185,o),
(555,366,cs),
(555,538,o),
(492,716,o),
(291,716,cs),
(148,716,o),
(29,610,o),
(29,464,cs)
);
},
{
closed = 1;
nodes = (
(337,555,o),
(374,509,o),
(374,466,cs),
(374,420,o),
(338,382,o),
(292,382,cs),
(246,382,o),
(210,420,o),
(210,466,cs),
(210,509,o),
(248,555,o),
(292,555,cs)
);
}
);
width = 586;
},
{
layerId = "16C3235A-0965-4506-9E91-995A1F108181";
shapes = (
{
closed = 1;
nodes = (
(35,330,o),
(143,230,o),
(276,230,cs),
(334,230,o),
(388,253,o),
(416,303,c),
(414,215,o),
(381,113,o),
(277,113,cs),
(219,113,o),
(169,140,o),
(138,188,c),
(61,101,l),
(112,29,o),
(187,-12,o),
(277,-12,cs),
(492,-12,o),
(547,212,o),
(547,387,cs),
(547,551,o),
(478,716,o),
(291,716,cs),
(149,716,o),
(35,609,o),
(35,466,cs)
);
},
{
closed = 1;
nodes = (
(358,595,o),
(411,533,o),
(411,468,cs),
(411,401,o),
(358,344,o),
(291,344,cs),
(224,344,o),
(170,402,o),
(170,468,cs),
(170,533,o),
(224,595,o),
(291,595,cs)
);
}
);
width = 586;
},
{
layerId = "BB3EF6CB-1E12-4008-9D80-E52F161ACC69";
shapes = (
{
closed = 1;
nodes = (
(41,335,o),
(146,229,o),
(279,229,cs),
(359,229,o),
(425,270,o),
(456,345,c),
(456,231,o),
(421,68,o),
(278,68,cs),
(208,68,o),
(149,104,o),
(120,168,c),
(72,117,l),
(114,36,o),
(190,-12,o),
(281,-12,cs),
(498,-12,o),
(539,242,o),
(539,410,cs),
(539,565,o),
(463,715,o),
(290,715,cs),
(151,715,o),
(41,608,o),
(41,468,cs)
);
},
{
closed = 1;
nodes = (
(381,638,o),
(451,559,o),
(451,470,cs),
(451,380,o),
(380,303,o),
(289,303,cs),
(200,303,o),
(127,382,o),
(127,470,cs),
(127,560,o),
(199,638,o),
(290,638,cs)
);
}
);
width = 586;
},
{
layerId = "3FABAEC4-ABD6-4E2D-B151-012D8FCAB9DA";
shapes = (
{
closed = 1;
nodes = (
(48,342,o),
(148,228,o),
(282,228,cs),
(383,228,o),
(475,296,o),
(505,392,c),
(505,253,o),
(466,10,o),
(284,10,cs),
(198,10,o),
(129,59,o),
(104,142,c),
(85,135,l),
(113,43,o),
(190,-12,o),
(285,-12,cs),
(493,-12,o),
(527,265,o),
(527,422,cs),
(527,568,o),
(449,715,o),
(286,715,cs),
(153,715,o),
(48,605,o),
(48,473,cs)
);
},
{
closed = 1;
nodes = (
(403,693,o),
(501,590,o),
(501,472,cs),
(501,355,o),
(403,250,o),
(285,250,cs),
(167,250,o),
(68,355,o),
(68,472,cs),
(68,591,o),
(164,693,o),
(284,693,cs)
);
}
);
width = 586;
}
);
unicode = 57;
},
{
glyphname = less;
layers = (
{
layerId = "6504B2D0-4073-42C8-9B7C-2A4329A12EFE";
shapes = (
{
closed = 1;
nodes = (
(31,210,l),
(455,-40,l),
(455,172,l),
(307,259,l),
(455,354,l),
(455,556,l),
(31,298,l)
);
}
);
width = 521;
},
{
layerId = "16C3235A-0965-4506-9E91-995A1F108181";
shapes = (
{
closed = 1;
nodes = (
(32,224,l),
(454,-26,l),
(454,123,l),
(227,259,l),
(454,401,l),
(454,543,l),
(32,288,l)
);
}
);
width = 515;
},
{
layerId = "BB3EF6CB-1E12-4008-9D80-E52F161ACC69";
shapes = (
{
closed = 1;
nodes = (
(33,234,l),
(453,-16,l),
(453,82,l),
(161,259,l),
(453,439,l),
(453,533,l),
(33,280,l)
);
}
);
width = 510;
},
{
layerId = "3FABAEC4-ABD6-4E2D-B151-012D8FCAB9DA";
shapes = (
{
closed = 1;
nodes = (
(34,250,l),
(451,0,l),
(451,22,l),
(63,259,l),
(451,495,l),
(451,517,l),
(34,268,l)
);
}
);
width = 502;
}
);
unicode = 60;
},
{
glyphname = equal;
layers = (
{
layerId = "6504B2D0-4073-42C8-9B7C-2A4329A12EFE";
shapes = (
{
closed = 1;
nodes = (
(378,101,l),
(378,221,l),
(55,221,l),
(55,101,l)
);
},
{
closed = 1;
nodes = (
(378,331,l),
(378,451,l),
(55,451,l),
(55,331,l)
);
}
);
width = 433;
},
{
layerId = "16C3235A-0965-4506-9E91-995A1F108181";
shapes = (
{
closed = 1;
nodes = (
(375,143,l),
(375,231,l),
(62,231,l),
(62,143,l)
);
},
{
closed = 1;
nodes = (
(375,321,l),
(375,409,l),
(62,409,l),
(62,321,l)
);
}
);
width = 436;
},
{
layerId = "BB3EF6CB-1E12-4008-9D80-E52F161ACC69";
shapes = (
{
closed = 1;
nodes = (
(372,179,l),
(372,239,l),
(67,239,l),
(67,179,l)
);
},
{
closed = 1;
nodes = (
(372,313,l),
(372,373,l),
(67,373,l),
(67,313,l)
);
}
);
width = 439;
},
{
layerId = "3FABAEC4-ABD6-4E2D-B151-012D8FCAB9DA";
shapes = (
{
closed = 1;
nodes = (
(364,231,l),
(364,251,l),
(71,251,l),
(71,231,l)
);
},
{
closed = 1;
nodes = (
(364,301,l),
(364,321,l),
(71,321,l),
(71,301,l)
);
}
);
width = 435;
}
);
unicode = 61;
},
{
glyphname = greater;
layers = (
{
layerId = "6504B2D0-4073-42C8-9B7C-2A4329A12EFE";
shapes = (
{
closed = 1;
nodes = (
(490,298,l),
(66,556,l),
(66,354,l),
(214,259,l),
(66,172,l),
(66,-40,l),
(490,210,l)
);
}
);
width = 521;
},
{
layerId = "16C3235A-0965-4506-9E91-995A1F108181";
shapes = (
{
closed = 1;
nodes = (
(483,288,l),
(61,543,l),
(61,401,l),
(288,259,l),
(61,123,l),
(61,-26,l),
(483,224,l)
);
}
);
width = 515;
},
{
layerId = "BB3EF6CB-1E12-4008-9D80-E52F161ACC69";
shapes = (
{
closed = 1;
nodes = (
(477,280,l),
(57,533,l),
(57,439,l),
(349,259,l),
(57,82,l),
(57,-16,l),
(477,234,l)
);
}
);
width = 510;
},
{
layerId = "3FABAEC4-ABD6-4E2D-B151-012D8FCAB9DA";
shapes = (
{
closed = 1;
nodes = (
(468,268,l),
(51,517,l),
(51,495,l),
(439,259,l),
(51,22,l),
(51,0,l),
(468,250,l)
);
}
);
width = 502;
}
);
unicode = 62;
},
{
glyphname = question;
layers = (
{
layerId = "6504B2D0-4073-42C8-9B7C-2A4329A12EFE";
shapes = (
{
closed = 1;
nodes = (
(220,259,l),
(205,303,o),
(324,318,o),
(382,358,cs),
(441,398,o),
(462,451,o),
(462,515,cs),
(462,665,o),
(346,719,o),
(244,719,cs),
(148,719,o),
(68,671,o),
(34,590,c),
(155,504,l),
(170,523,o),
(189,566,o),
(237,566,cs),
(269,566,o),
(297,546,o),
(297,516,cs),
(297,461,o),
(204,422,o),
(174,406,cs),
(132,384,o),
(119,358,o),
(119,329,cs),
(119,307,o),
(126,283,o),
(135,259,c)
);
},
{
closed = 1;
nodes = (
(80,32,o),
(122,-10,o),
(174,-10,cs),
(226,-10,o),
(268,32,o),
(268,84,cs),
(268,136,o),
(226,178,o),
(174,178,cs),
(121,178,o),
(80,136,o),
(80,84,cs)
);
}
);
width = 495;
},
{
layerId = "16C3235A-0965-4506-9E91-995A1F108181";
shapes = (
{
closed = 1;
nodes = (
(212,233,l),
(199,298,o),
(293,320,o),
(346,354,cs),
(409,394,o),
(452,438,o),
(452,521,cs),
(452,662,o),
(344,719,o),
(243,719,cs),
(152,719,o),
(69,672,o),
(34,590,c),
(122,530,l),
(143,566,o),
(181,610,o),
(239,610,cs),
(288,610,o),
(334,579,o),
(334,523,cs),
(334,448,o),
(244,414,o),
(204,392,cs),
(157,366,o),
(138,336,o),
(138,296,cs),
(138,276,o),
(143,254,o),
(150,233,c)
);
},
{
closed = 1;
nodes = (
(111,22,o),
(141,-9,o),
(179,-9,cs),
(216,-9,o),
(246,22,o),
(246,58,cs),
(246,96,o),
(216,126,o),
(179,126,cs),
(141,126,o),
(111,96,o),
(111,58,cs)
);
}
);
width = 486;
},
{
layerId = "BB3EF6CB-1E12-4008-9D80-E52F161ACC69";
shapes = (
{
closed = 1;
nodes = (
(206,211,l),
(194,293,o),
(267,322,o),
(316,351,cs),
(382,390,o),
(443,427,o),
(443,526,cs),
(443,659,o),
(342,719,o),
(243,719,cs),
(155,719,o),
(70,672,o),
(34,590,c),
(94,551,l),
(120,602,o),
(174,646,o),
(241,646,cs),
(304,646,o),
(365,607,o),
(365,528,cs),
(365,437,o),
(277,407,o),
(228,380,cs),
(178,352,o),
(154,317,o),
(154,268,cs),
(154,250,o),
(157,231,o),
(163,211,c)
);
},
{
closed = 1;
nodes = (
(124,18,o),
(150,-8,o),
(182,-8,cs),
(213,-8,o),
(239,18,o),
(239,49,cs),
(239,81,o),
(213,107,o),
(182,107,cs),
(150,107,o),
(124,81,o),
(124,49,cs)
);
}
);
width = 479;
},
{
layerId = "3FABAEC4-ABD6-4E2D-B151-012D8FCAB9DA";
shapes = (
{
closed = 1;
nodes = (
(198,179,l),
(187,297,o),
(229,324,o),
(272,347,cs),
(343,386,o),
(430,411,o),
(430,532,cs),
(430,655,o),
(340,719,o),
(243,719,cs),
(160,719,o),
(72,673,o),
(35,590,c),
(53,582,l),
(87,654,o),
(164,699,o),
(244,699,cs),
(328,699,o),
(410,649,o),
(410,535,cs),
(410,420,o),
(327,399,o),
(264,366,cs),
(207,336,o),
(181,297,o),
(181,233,cs),
(181,217,o),
(183,199,o),
(186,179,c)
);
},
{
closed = 1;
nodes = (
(153,10,o),
(168,-5,o),
(187,-5,cs),
(206,-5,o),
(221,10,o),
(221,29,cs),
(221,48,o),
(206,62,o),
(187,62,cs),
(168,62,o),
(153,48,o),
(153,29,cs)
);
}
);
width = 468;
}
);
unicode = 63;
},
{
glyphname = at;
layers = (
{
layerId = "6504B2D0-4073-42C8-9B7C-2A4329A12EFE";
shapes = (
{
closed = 1;
nodes = (
(322,603,o),
(226,572,o),
(155,509,cs),
(83,446,o),
(37,354,o),
(37,231,cs),
(37,115,o),
(78,21,o),
(144,-44,cs),
(210,-109,o),
(300,-146,o),
(400,-146,cs),
(460,-146,o),
(524,-133,o),
(581,-106,c),
(561,-38,l),
(512,-57,o),
(472,-76,o),
(403,-76,cs),
(310,-76,o),
(238,-42,o),
(188,14,cs),
(138,69,o),
(111,145,o),
(111,229,cs),
(111,317,o),
(140,394,o),
(193,448,cs),
(245,502,o),
(323,533,o),
(419,533,cs),
(516,533,o),
(594,501,o),
(649,446,cs),
(704,391,o),
(734,314,o),
(734,225,cs),
(734,204,o),
(733,164,o),
(723,129,cs),
(713,93,o),
(696,64,o),
(664,64,cs),
(640,64,o),
(629,80,o),
(622,104,cs),
(615,128,o),
(615,159,o),
(615,188,cs),
(615,255,ls),
(615,299,o),
(614,351,o),
(589,394,cs),
(564,437,o),
(514,468,o),
(418,468,cs),
(351,468,o),
(291,454,o),
(240,419,c),
(272,322,l),
(299,347,o),
(343,363,o),
(399,363,cs),
(442,363,o),
(468,354,o),
(484,338,cs),
(500,322,o),
(505,299,o),
(505,272,c),
(486,281,o),
(454,292,o),
(403,292,cs),
(356,292,o),
(310,283,o),
(275,259,cs),
(240,235,o),
(217,197,o),
(217,138,cs),
(217,50,o),
(269,-6,o),
(372,-6,cs),
(435,-6,o),
(496,14,o),
(541,57,c),
(544,42,o),
(551,24,o),
(567,9,cs),
(583,-6,o),
(608,-16,o),
(645,-16,cs),
(722,-16,o),
(763,30,o),
(784,82,cs),
(805,134,o),
(807,193,o),
(807,221,cs),
(807,354,o),
(761,450,o),
(690,512,cs),
(618,574,o),
(524,603,o),
(425,603,cs)
);
},
{
closed = 1;
nodes = (
(438,85,o),
(404,83,o),
(385,83,cs),
(365,83,o),
(349,88,o),
(340,97,cs),
(331,106,o),
(326,120,o),
(326,139,cs),
(326,162,o),
(332,179,o),
(345,191,cs),
(358,202,o),
(377,208,o),
(405,208,cs),
(424,208,o),
(444,205,o),
(461,202,cs),
(478,198,o),
(495,193,o),
(504,189,c),
(504,148,ls),
(504,137,o),
(499,127,o),
(491,119,cs),
(483,111,o),
(473,104,o),
(465,100,cs)
);
}
);
width = 852;
},
{
layerId = "16C3235A-0965-4506-9E91-995A1F108181";
shapes = (
{
closed = 1;
nodes = (
(322,603,o),
(226,570,o),
(157,506,cs),
(88,441,o),
(42,348,o),
(42,231,cs),
(42,118,o),
(83,24,o),
(149,-43,cs),
(215,-109,o),
(305,-146,o),
(405,-146,cs),
(464,-146,o),
(524,-133,o),
(580,-106,c),
(562,-54,l),
(513,-75,o),
(471,-92,o),
(407,-92,cs),
(314,-92,o),
(238,-57,o),
(183,2,cs),
(128,61,o),
(98,141,o),
(98,229,cs),
(98,322,o),
(131,403,o),
(188,460,cs),
(244,516,o),
(323,549,o),
(418,549,cs),
(514,549,o),
(594,516,o),
(650,457,cs),
(706,398,o),
(740,317,o),
(740,225,cs),
(740,196,o),
(736,150,o),
(724,113,cs),
(711,76,o),
(690,44,o),
(654,44,cs),
(630,44,o),
(619,58,o),
(612,79,cs),
(604,100,o),
(604,128,o),
(604,157,cs),
(604,253,ls),
(604,298,o),
(601,351,o),
(578,392,c),
(554,432,o),
(509,462,o),
(422,462,cs),
(358,462,o),
(299,445,o),
(250,412,c),
(276,341,l),
(308,369,o),
(354,385,o),
(409,385,cs),
(454,385,o),
(483,372,o),
(500,351,cs),
(517,330,o),
(523,299,o),
(523,262,c),
(503,271,o),
(463,284,o),
(410,284,cs),
(365,284,o),
(318,275,o),
(283,252,cs),
(247,229,o),
(223,194,o),
(223,138,cs),
(223,55,o),
(277,-1,o),
(377,-1,cs),
(444,-1,o),
(505,25,o),
(546,66,c),
(549,47,o),
(553,26,o),
(568,10,cs),
(583,-6,o),
(607,-16,o),
(640,-16,cs),
(713,-16,o),
(752,30,o),
(773,82,cs),
(793,134,o),
(796,193,o),
(796,221,cs),
(796,345,o),
(751,441,o),
(682,505,cs),
(613,569,o),
(521,603,o),
(422,603,cs)
);
},
{
closed = 1;
nodes = (
(446,74,o),
(410,67,o),
(385,67,cs),
(358,67,o),
(338,74,o),
(325,87,cs),
(312,100,o),
(303,119,o),
(303,140,cs),
(303,169,o),
(314,189,o),
(334,202,cs),
(353,214,o),
(378,220,o),
(410,220,cs),
(435,220,o),
(458,216,o),
(478,212,c),
(497,207,o),
(513,202,o),
(522,199,c),
(522,161,ls),
(522,146,o),
(519,132,o),
(510,120,cs),
(501,107,o),
(490,95,o),
(471,86,cs)
);
}
);
width = 845;
},
{
layerId = "BB3EF6CB-1E12-4008-9D80-E52F161ACC69";
shapes = (
{
closed = 1;
nodes = (
(322,603,o),
(228,567,o),
(160,503,cs),
(91,438,o),
(46,345,o),
(46,230,cs),
(46,121,o),
(87,27,o),
(153,-40,cs),
(219,-107,o),
(309,-146,o),
(409,-146,cs),
(466,-146,o),
(523,-133,o),
(578,-106,c),
(564,-68,l),
(515,-91,o),
(469,-106,o),
(410,-106,cs),
(317,-106,o),
(236,-68,o),
(179,-8,cs),
(122,53,o),
(88,137,o),
(88,230,cs),
(88,326,o),
(124,410,o),
(184,469,cs),
(243,528,o),
(325,563,o),
(417,563,cs),
(512,563,o),
(592,526,o),
(651,465,cs),
(710,404,o),
(744,320,o),
(744,224,cs),
(744,191,o),
(740,141,o),
(725,101,cs),
(709,60,o),
(685,28,o),
(645,28,cs),
(622,28,o),
(610,39,o),
(603,58,cs),
(595,77,o),
(594,103,o),
(594,132,cs),
(594,251,ls),
(594,298,o),
(591,349,o),
(568,389,cs),
(545,429,o),
(504,457,o),
(425,457,cs),
(362,457,o),
(307,438,o),
(259,406,c),
(279,357,l),
(316,385,o),
(364,403,o),
(417,403,cs),
(465,403,o),
(496,388,o),
(514,362,cs),
(532,336,o),
(538,298,o),
(538,254,c),
(517,262,o),
(472,277,o),
(415,277,cs),
(371,277,o),
(324,268,o),
(288,247,cs),
(252,226,o),
(228,190,o),
(228,138,cs),
(228,59,o),
(283,2,o),
(380,2,cs),
(451,2,o),
(511,33,o),
(550,73,c),
(553,50,o),
(557,28,o),
(570,12,c),
(582,-5,o),
(604,-16,o),
(637,-16,cs),
(706,-16,o),
(743,29,o),
(763,82,cs),
(783,134,o),
(786,194,o),
(786,222,cs),
(786,338,o),
(744,434,o),
(677,500,cs),
(609,566,o),
(518,603,o),
(419,603,cs)
);
},
{
closed = 1;
nodes = (
(451,64,o),
(416,54,o),
(384,54,cs),
(355,54,o),
(329,63,o),
(312,79,cs),
(295,95,o),
(285,117,o),
(285,142,cs),
(285,175,o),
(300,197,o),
(324,211,cs),
(348,225,o),
(381,230,o),
(414,230,cs),
(445,230,o),
(471,225,o),
(492,220,cs),
(512,215,o),
(529,209,o),
(537,208,c),
(537,171,ls),
(537,154,o),
(535,136,o),
(526,120,cs),
(517,103,o),
(503,88,o),
(476,76,cs)
);
}
);
width = 840;
},
{
layerId = "3FABAEC4-ABD6-4E2D-B151-012D8FCAB9DA";
shapes = (
{
closed = 1;
nodes = (
(320,603,o),
(228,565,o),
(161,499,cs),
(94,433,o),
(50,339,o),
(50,230,cs),
(50,125,o),
(91,31,o),
(157,-37,cs),
(223,-105,o),
(313,-146,o),
(412,-146,cs),
(468,-146,o),
(522,-133,o),
(574,-106,c),
(564,-88,l),
(516,-115,o),
(464,-126,o),
(412,-126,cs),
(319,-126,o),
(233,-86,o),
(171,-22,cs),
(109,42,o),
(70,131,o),
(70,230,cs),
(70,333,o),
(111,420,o),
(175,483,cs),
(238,546,o),
(324,583,o),
(413,583,cs),
(505,583,o),
(590,542,o),
(651,478,cs),
(711,413,o),
(749,323,o),
(749,223,cs),
(749,182,o),
(743,126,o),
(724,82,cs),
(705,38,o),
(677,4,o),
(630,4,cs),
(607,4,o),
(594,12,o),
(587,28,c),
(579,43,o),
(577,66,o),
(577,95,cs),
(577,248,ls),
(577,297,o),
(572,348,o),
(551,386,cs),
(530,424,o),
(492,449,o),
(427,449,cs),
(367,449,o),
(317,428,o),
(270,397,c),
(282,381,l),
(325,412,o),
(375,429,o),
(426,429,cs),
(478,429,o),
(511,410,o),
(531,377,cs),
(551,344,o),
(558,297,o),
(558,242,c),
(535,250,o),
(482,265,o),
(422,265,cs),
(379,265,o),
(334,258,o),
(299,239,cs),
(264,219,o),
(241,188,o),
(241,140,cs),
(241,64,o),
(299,12,o),
(387,12,cs),
(456,12,o),
(519,45,o),
(554,84,c),
(557,56,o),
(560,32,o),
(570,13,cs),
(580,-6,o),
(597,-16,o),
(629,-16,cs),
(693,-16,o),
(728,29,o),
(747,81,cs),
(766,133,o),
(769,193,o),
(769,222,cs),
(769,327,o),
(729,423,o),
(665,492,cs),
(601,560,o),
(512,603,o),
(413,603,cs)
);
},
{
closed = 1;
nodes = (
(459,43,o),
(422,32,o),
(387,32,cs),
(354,32,o),
(323,42,o),
(300,60,cs),
(276,78,o),
(261,105,o),
(261,140,cs),
(261,180,o),
(281,207,o),
(311,223,cs),
(341,239,o),
(380,245,o),
(417,245,cs),
(454,245,o),
(486,240,o),
(510,234,cs),
(533,228,o),
(549,221,o),
(557,221,c),
(557,174,ls),
(557,154,o),
(556,131,o),
(546,111,cs),
(536,90,o),
(517,71,o),
(484,55,cs)
);
}
);
width = 830;
}
);
unicode = 64;
},
{
glyphname = A;
layers = (
{
layerId = "6504B2D0-4073-42C8-9B7C-2A4329A12EFE";
shapes = (
{
closed = 1;
nodes = (
(-2,0,l),
(197,0,l),
(239,139,l),
(428,139,l),
(471,0,l),
(669,0,l),
(443,710,l),
(225,710,l)
);
},
{
closed = 1;
nodes = (
(268,269,l),
(334,519,l),
(397,269,l)
);
}
);
width = 667;
},
{
layerId = "16C3235A-0965-4506-9E91-995A1F108181";
shapes = (
{
closed = 1;
nodes = (
(5,0,l),
(147,0,l),
(212,177,l),
(460,177,l),
(526,0,l),
(668,0,l),
(406,710,l),
(266,710,l)
);
},
{
closed = 1;
nodes = (
(235,274,l),
(336,567,l),
(436,274,l)
);
}
);
width = 673;
},
{
layerId = "BB3EF6CB-1E12-4008-9D80-E52F161ACC69";
shapes = (
{
closed = 1;
nodes = (
(10,0,l),
(106,0,l),
(189,208,l),
(487,208,l),
(571,0,l),
(667,0,l),
(377,710,l),
(301,710,l)
);
},
{
closed = 1;
nodes = (
(207,278,l),
(339,606,l),
(467,278,l)
);
}
);
width = 677;
},
{
layerId = "3FABAEC4-ABD6-4E2D-B151-012D8FCAB9DA";
shapes = (
{
closed = 1;
nodes = (
(18,0,l),
(40,0,l),
(151,254,l),
(522,254,l),
(633,0,l),
(655,0,l),
(346,710,l),
(328,710,l)
);
},
{
closed = 1;
nodes = (
(159,274,l),
(337,681,l),
(513,274,l)
);
}
);
width = 674;
}
);
leftKerningGroup = A2;
rightKerningGroup = A;
unicode = 65;
},
{
glyphname = B;
layers = (
{
layerId = "6504B2D0-4073-42C8-9B7C-2A4329A12EFE";
shapes = (
{
closed = 1;
nodes = (
(665,231,o),
(653,272,o),
(630,302,cs),
(606,332,o),
(573,352,o),
(533,364,c),
(601,395,o),
(635,461,o),
(635,528,cs),
(635,573,o),
(620,619,o),
(592,653,cs),
(564,687,o),
(524,710,o),
(473,710,cs),
(61,710,l),
(61,0,l),
(410,0,ls),
(481,0,o),
(543,14,o),
(590,43,cs),
(637,72,o),
(665,118,o),
(665,182,cs)
);
},
{
closed = 1;
nodes = (
(467,203,o),
(461,190,o),
(451,180,cs),
(441,170,o),
(426,164,o),
(410,164,cs),
(256,164,l),
(256,283,l),
(417,283,ls),
(432,283,o),
(444,277,o),
(453,266,cs),
(462,254,o),
(467,239,o),
(467,222,cs)
);
},
{
closed = 1;
nodes = (
(395,544,ls),
(407,544,o),
(419,540,o),
(428,532,c),
(436,523,o),
(442,510,o),
(442,490,cs),
(442,469,o),
(436,454,o),
(426,446,cs),
(416,438,o),
(402,435,o),
(389,435,cs),
(256,435,l),
(256,544,l)
);
}
);
width = 690;
},
{
layerId = "16C3235A-0965-4506-9E91-995A1F108181";
shapes = (
{
closed = 1;
nodes = (
(646,230,o),
(634,269,o),
(611,300,cs),
(587,331,o),
(554,352,o),
(514,364,c),
(579,395,o),
(616,460,o),
(616,528,cs),
(616,573,o),
(601,619,o),
(573,653,cs),
(545,687,o),
(505,710,o),
(454,710,cs),
(75,710,l),
(75,0,l),
(417,0,ls),
(480,0,o),
(537,15,o),
(579,47,cs),
(621,78,o),
(646,125,o),
(646,182,cs)
);
},
{
closed = 1;
nodes = (
(507,184,o),
(496,160,o),
(481,144,cs),
(465,127,o),
(442,117,o),
(417,117,cs),
(211,117,l),
(211,305,l),
(424,305,ls),
(448,305,o),
(468,293,o),
(483,276,cs),
(498,259,o),
(507,234,o),
(507,209,cs)
);
},
{
closed = 1;
nodes = (
(402,592,ls),
(423,592,o),
(444,583,o),
(457,568,cs),
(470,552,o),
(480,530,o),
(480,503,cs),
(480,475,o),
(470,453,o),
(455,438,cs),
(440,422,o),
(419,413,o),
(396,413,cs),
(211,413,l),
(211,592,l)
);
}
);
width = 680;
},
{
layerId = "BB3EF6CB-1E12-4008-9D80-E52F161ACC69";
shapes = (
{
closed = 1;
nodes = (
(630,227,o),
(618,266,o),
(595,298,c),
(571,329,o),
(538,352,o),
(498,364,c),
(563,393,o),
(600,458,o),
(600,529,cs),
(600,573,o),
(585,619,o),
(557,653,cs),
(529,687,o),
(489,710,o),
(438,710,cs),
(85,710,l),
(85,0,l),
(422,0,ls),
(479,0,o),
(531,18,o),
(569,50,cs),
(607,82,o),
(630,128,o),
(630,183,cs)
);
},
{
closed = 1;
nodes = (
(539,167,o),
(526,137,o),
(506,115,cs),
(485,93,o),
(455,78,o),
(422,78,cs),
(175,78,l),
(175,322,l),
(429,322,ls),
(461,322,o),
(488,308,o),
(508,285,cs),
(527,262,o),
(539,231,o),
(539,199,cs)
);
},
{
closed = 1;
nodes = (
(407,632,ls),
(438,632,o),
(464,619,o),
(482,598,cs),
(500,577,o),
(511,546,o),
(511,513,cs),
(511,481,o),
(499,451,o),
(480,430,cs),
(460,409,o),
(433,395,o),
(401,395,cs),
(175,395,l),
(175,632,l)
);
}
);
width = 671;
},
{
layerId = "3FABAEC4-ABD6-4E2D-B151-012D8FCAB9DA";
shapes = (
{
closed = 1;
nodes = (
(605,224,o),
(593,263,o),
(570,295,cs),
(546,327,o),
(513,352,o),
(473,364,c),
(536,392,o),
(575,457,o),
(575,529,cs),
(575,573,o),
(560,619,o),
(532,653,cs),
(504,687,o),
(464,710,o),
(413,710,cs),
(99,710,l),
(99,0,l),
(428,0,ls),
(476,0,o),
(521,22,o),
(553,56,cs),
(585,90,o),
(605,135,o),
(605,184,cs)
);
},
{
closed = 1;
nodes = (
(585,143,o),
(568,102,o),
(540,71,cs),
(511,40,o),
(472,20,o),
(428,20,cs),
(119,20,l),
(119,348,l),
(435,348,ls),
(478,348,o),
(515,329,o),
(542,298,cs),
(569,267,o),
(585,227,o),
(585,184,cs)
);
},
{
closed = 1;
nodes = (
(413,690,ls),
(456,690,o),
(491,672,o),
(516,642,cs),
(540,612,o),
(555,572,o),
(555,529,cs),
(555,489,o),
(540,450,o),
(514,419,cs),
(488,388,o),
(451,368,o),
(407,368,cs),
(119,368,l),
(119,690,l)
);
}
);
width = 655;
}
);
leftKerningGroup = B;
unicode = 66;
},
{
glyphname = C;
layers = (
{
anchors = (
{
name = top;
position = "{360, 710}";
},
{
name = bottom;
position = "{399, 0}";
},
{
name = left;
position = "{-22, 355}";
},
{
name = right;
position = "{742, 355}";
}
);
layerId = "6504B2D0-4073-42C8-9B7C-2A4329A12EFE";
shapes = (
{
closed = 1;
nodes = (
(522,-5,o),
(623,53,o),
(692,145,c),
(551,254,l),
(522,213,o),
(466,160,o),
(388,160,cs),
(276,160,o),
(213,254,o),
(213,355,cs),
(213,461,o),
(278,551,o),
(388,551,cs),
(466,551,o),
(521,499,o),
(551,458,c),
(690,569,l),
(621,660,o),
(517,715,o),
(395,715,cs),
(174,715,o),
(28,552,o),
(28,359,cs),
(28,162,o),
(182,-5,o),
(399,-5,cs)
);
}
);
width = 729;
},
{
anchors = (
{
name = top;
position = "{361, 710}";
},
{
name = bottom;
position = "{395, 0}";
},
{
name = left;
position = "{-18, 355}";
},
{
name = right;
position = "{740, 355}";
}
);
layerId = "16C3235A-0965-4506-9E91-995A1F108181";
shapes = (
{
closed = 1;
nodes = (
(518,-5,o),
(626,55,o),
(690,147,c),
(581,229,l),
(550,179,o),
(479,121,o),
(387,121,cs),
(253,121,o),
(172,232,o),
(172,355,cs),
(172,481,o),
(254,590,o),
(387,590,cs),
(479,590,o),
(549,532,o),
(581,482,c),
(689,565,l),
(625,657,o),
(515,715,o),
(393,715,cs),
(177,715,o),
(32,552,o),
(32,359,cs),
(32,162,o),
(178,-5,o),
(395,-5,cs)
);
}
);
width = 726;
},
{
anchors = (
{
name = top;
position = "{362, 710}";
},
{
name = bottom;
position = "{392, 0}";
}
);
layerId = "BB3EF6CB-1E12-4008-9D80-E52F161ACC69";
shapes = (
{
closed = 1;
nodes = (
(514,-5,o),
(630,57,o),
(688,149,c),
(614,201,l),
(580,143,o),
(493,78,o),
(386,78,cs),
(228,78,o),
(129,208,o),
(129,354,cs),
(129,502,o),
(228,632,o),
(387,632,cs),
(494,632,o),
(580,567,o),
(614,509,c),
(688,561,l),
(630,653,o),
(514,715,o),
(392,715,cs),
(181,715,o),
(36,553,o),
(36,358,cs),
(36,162,o),
(175,-5,o),
(392,-5,cs)
);
}
);
width = 724;
},
{
anchors = (
{
name = top;
position = "{352, 710}";
},
{
name = bottom;
position = "{394, 0}";
}
);
layerId = "3FABAEC4-ABD6-4E2D-B151-012D8FCAB9DA";
shapes = (
{
closed = 1;
nodes = (
(502,-6,o),
(602,43,o),
(664,120,c),
(645,133,l),
(586,63,o),
(506,15,o),
(385,15,cs),
(187,15,o),
(62,173,o),
(62,354,cs),
(62,537,o),
(187,695,o),
(386,695,cs),
(504,695,o),
(589,644,o),
(645,577,c),
(664,590,l),
(602,667,o),
(499,716,o),
(391,716,cs),
(182,716,o),
(40,553,o),
(40,358,cs),
(40,162,o),
(179,-6,o),
(394,-6,cs)
);
}
);
width = 751;
}
);
leftKerningGroup = C2;
rightKerningGroup = C;
unicode = 67;
},
{
glyphname = D;
layers = (
{
layerId = "6504B2D0-4073-42C8-9B7C-2A4329A12EFE";
shapes = (
{
closed = 1;
nodes = (
(334,0,ls),
(442,0,o),
(531,36,o),
(594,98,cs),
(657,160,o),
(692,248,o),
(692,356,cs),
(692,455,o),
(662,543,o),
(602,607,cs),
(542,671,o),
(453,710,o),
(334,710,cs),
(61,710,l),
(61,0,l)
);
},
{
closed = 1;
nodes = (
(494,303,o),
(480,256,o),
(453,223,cs),
(425,190,o),
(385,170,o),
(334,170,cs),
(256,170,l),
(256,540,l),
(334,540,ls),
(385,540,o),
(424,521,o),
(452,489,cs),
(479,457,o),
(494,411,o),
(494,356,cs)
);
}
);
width = 716;
},
{
layerId = "16C3235A-0965-4506-9E91-995A1F108181";
shapes = (
{
closed = 1;
nodes = (
(333,0,ls),
(438,0,o),
(526,36,o),
(587,98,cs),
(648,160,o),
(682,248,o),
(682,356,cs),
(682,455,o),
(653,543,o),
(594,607,cs),
(535,671,o),
(449,710,o),
(333,710,cs),
(75,710,l),
(75,0,l)
);
},
{
closed = 1;
nodes = (
(543,289,o),
(524,229,o),
(489,188,cs),
(453,147,o),
(400,121,o),
(333,121,cs),
(211,121,l),
(211,589,l),
(333,589,ls),
(398,589,o),
(452,564,o),
(488,524,cs),
(523,484,o),
(543,424,o),
(543,356,cs)
);
}
);
width = 716;
},
{
layerId = "BB3EF6CB-1E12-4008-9D80-E52F161ACC69";
shapes = (
{
closed = 1;
nodes = (
(331,0,ls),
(435,0,o),
(521,36,o),
(581,98,cs),
(641,160,o),
(674,248,o),
(674,356,cs),
(674,455,o),
(645,543,o),
(588,607,cs),
(531,671,o),
(446,710,o),
(331,710,cs),
(85,710,l),
(85,0,l)
);
},
{
closed = 1;
nodes = (
(583,277,o),
(561,208,o),
(519,159,cs),
(477,110,o),
(414,80,o),
(331,80,cs),
(175,80,l),
(175,630,l),
(331,630,ls),
(411,630,o),
(474,601,o),
(518,553,cs),
(561,505,o),
(583,436,o),
(583,356,cs)
);
}
);
width = 716;
},
{
layerId = "3FABAEC4-ABD6-4E2D-B151-012D8FCAB9DA";
shapes = (
{
closed = 1;
nodes = (
(327,0,ls),
(430,0,o),
(513,36,o),
(570,98,cs),
(627,160,o),
(660,248,o),
(660,356,cs),
(660,455,o),
(633,543,o),
(578,607,cs),
(522,671,o),
(439,710,o),
(327,710,cs),
(99,710,l),
(99,0,l)
);
},
{
closed = 1;
nodes = (
(640,260,o),
(613,176,o),
(561,116,cs),
(508,56,o),
(430,20,o),
(327,20,cs),
(119,20,l),
(119,690,l),
(327,690,ls),
(427,690,o),
(506,655,o),
(559,596,cs),
(612,536,o),
(640,453,o),
(640,356,cs)
);
}
);
width = 711;
}
);
leftKerningGroup = B;
rightKerningGroup = D;
unicode = 68;
},
{
glyphname = E;
layers = (
{
anchors = (
{
name = bottom;
position = "{314, 0}";
}
);
layerId = "6504B2D0-4073-42C8-9B7C-2A4329A12EFE";
shapes = (
{
closed = 1;
nodes = (
(256,170,l),
(256,282,l),
(514,282,l),
(514,440,l),
(256,440,l),
(256,540,l),
(558,540,l),
(558,710,l),
(61,710,l),
(61,0,l),
(567,0,l),
(567,170,l)
);
}
);
width = 597;
},
{
anchors = (
{
name = bottom;
position = "{321, 0}";
}
);
layerId = "16C3235A-0965-4506-9E91-995A1F108181";
shapes = (
{
closed = 1;
nodes = (
(211,121,l),
(211,306,l),
(511,306,l),
(511,418,l),
(211,418,l),
(211,589,l),
(558,589,l),
(558,710,l),
(75,710,l),
(75,0,l),
(567,0,l),
(567,121,l)
);
}
);
width = 602;
},
{
anchors = (
{
name = bottom;
position = "{326, 0}";
}
);
layerId = "BB3EF6CB-1E12-4008-9D80-E52F161ACC69";
shapes = (
{
closed = 1;
nodes = (
(175,80,l),
(175,325,l),
(508,325,l),
(508,400,l),
(175,400,l),
(175,630,l),
(558,630,l),
(558,710,l),
(85,710,l),
(85,0,l),
(567,0,l),
(567,80,l)
);
}
);
width = 605;
},
{
anchors = (
{
name = bottom;
position = "{332, 0}";
}
);
layerId = "3FABAEC4-ABD6-4E2D-B151-012D8FCAB9DA";
shapes = (
{
closed = 1;
nodes = (
(119,20,l),
(119,353,l),
(502,353,l),
(502,373,l),
(119,373,l),
(119,690,l),
(556,690,l),
(556,710,l),
(99,710,l),
(99,0,l),
(565,0,l),
(565,20,l)
);
}
);
width = 617;
}
);
leftKerningGroup = B;
rightKerningGroup = E;
unicode = 69;
},
{
glyphname = F;
layers = (
{
layerId = "6504B2D0-4073-42C8-9B7C-2A4329A12EFE";
shapes = (
{
closed = 1;
nodes = (
(256,0,l),
(256,264,l),
(494,264,l),
(494,422,l),
(256,422,l),
(256,540,l),
(548,540,l),
(548,710,l),
(61,710,l),
(61,0,l)
);
}
);
width = 563;
},
{
layerId = "16C3235A-0965-4506-9E91-995A1F108181";
shapes = (
{
closed = 1;
nodes = (
(211,0,l),
(211,294,l),
(494,294,l),
(494,406,l),
(211,406,l),
(211,589,l),
(551,589,l),
(551,710,l),
(75,710,l),
(75,0,l)
);
}
);
width = 574;
},
{
layerId = "BB3EF6CB-1E12-4008-9D80-E52F161ACC69";
shapes = (
{
closed = 1;
nodes = (
(175,0,l),
(175,318,l),
(494,318,l),
(494,393,l),
(175,393,l),
(175,630,l),
(554,630,l),
(554,710,l),
(85,710,l),
(85,0,l)
);
}
);
width = 583;
},
{
layerId = "3FABAEC4-ABD6-4E2D-B151-012D8FCAB9DA";
shapes = (
{
closed = 1;
nodes = (
(119,0,l),
(119,354,l),
(492,354,l),
(492,374,l),
(119,374,l),
(119,690,l),
(556,690,l),
(556,710,l),
(99,710,l),
(99,0,l)
);
}
);
width = 602;
}
);
leftKerningGroup = B;
unicode = 70;
},
{
glyphname = G;
layers = (
{
layerId = "6504B2D0-4073-42C8-9B7C-2A4329A12EFE";
shapes = (
{
closed = 1;
nodes = (
(590,-5,o),
(740,140,o),
(747,310,c),
(747,399,l),
(403,399,l),
(403,242,l),
(546,242,l),
(525,194,o),
(463,159,o),
(390,159,cs),
(279,159,o),
(219,254,o),
(219,355,cs),
(219,461,o),
(283,551,o),
(391,551,cs),
(458,551,o),
(508,513,o),
(539,475,c),
(673,595,l),
(604,671,o),
(509,715,o),
(398,715,cs),
(175,715,o),
(28,552,o),
(28,359,cs),
(28,162,o),
(185,-5,o),
(402,-5,cs)
);
}
);
width = 775;
},
{
layerId = "16C3235A-0965-4506-9E91-995A1F108181";
shapes = (
{
closed = 1;
nodes = (
(586,-5,o),
(731,140,o),
(740,309,c),
(740,379,l),
(422,379,l),
(422,259,l),
(589,259,l),
(572,183,o),
(491,120,o),
(388,120,cs),
(254,120,o),
(176,232,o),
(176,355,cs),
(176,481,o),
(256,590,o),
(389,590,cs),
(475,590,o),
(542,539,o),
(575,491,c),
(680,579,l),
(616,662,o),
(511,715,o),
(395,715,cs),
(178,715,o),
(32,552,o),
(32,359,cs),
(32,162,o),
(181,-5,o),
(398,-5,cs)
);
}
);
width = 772;
},
{
layerId = "BB3EF6CB-1E12-4008-9D80-E52F161ACC69";
shapes = (
{
closed = 1;
nodes = (
(582,-5,o),
(722,141,o),
(733,308,c),
(733,358,l),
(443,358,l),
(443,277,l),
(637,277,l),
(623,172,o),
(522,78,o),
(386,78,cs),
(228,78,o),
(129,208,o),
(129,354,cs),
(129,502,o),
(228,632,o),
(387,632,cs),
(494,632,o),
(580,567,o),
(614,509,c),
(688,561,l),
(630,653,o),
(514,715,o),
(392,715,cs),
(181,715,o),
(36,553,o),
(36,358,cs),
(36,162,o),
(177,-5,o),
(394,-5,cs)
);
}
);
width = 769;
},
{
layerId = "3FABAEC4-ABD6-4E2D-B151-012D8FCAB9DA";
shapes = (
{
closed = 1;
nodes = (
(575,-6,o),
(710,143,o),
(726,305,c),
(726,324,l),
(488,324,l),
(488,305,l),
(706,305,l),
(685,144,o),
(562,15,o),
(385,15,cs),
(187,15,o),
(62,173,o),
(62,354,cs),
(62,537,o),
(187,695,o),
(386,695,cs),
(504,695,o),
(589,644,o),
(645,577,c),
(664,590,l),
(602,667,o),
(499,716,o),
(391,716,cs),
(182,716,o),
(40,553,o),
(40,358,cs),
(40,162,o),
(179,-6,o),
(394,-6,cs)
);
}
);
width = 766;
}
);
leftKerningGroup = C2;
rightKerningGroup = G;
unicode = 71;
},
{
glyphname = H;
layers = (
{
layerId = "6504B2D0-4073-42C8-9B7C-2A4329A12EFE";
shapes = (
{
closed = 1;
nodes = (
(494,710,l),
(494,448,l),
(256,448,l),
(256,710,l),
(61,710,l),
(61,0,l),
(256,0,l),
(256,278,l),
(494,278,l),
(494,0,l),
(689,0,l),
(689,710,l)
);
}
);
width = 750;
},
{
layerId = "16C3235A-0965-4506-9E91-995A1F108181";
shapes = (
{
closed = 1;
nodes = (
(534,710,l),
(534,423,l),
(211,423,l),
(211,710,l),
(75,710,l),
(75,0,l),
(211,0,l),
(211,303,l),
(534,303,l),
(534,0,l),
(671,0,l),
(671,710,l)
);
}
);
width = 745;
},
{
layerId = "BB3EF6CB-1E12-4008-9D80-E52F161ACC69";
shapes = (
{
closed = 1;
nodes = (
(566,710,l),
(566,403,l),
(175,403,l),
(175,710,l),
(85,710,l),
(85,0,l),
(175,0,l),
(175,323,l),
(566,323,l),
(566,0,l),
(656,0,l),
(656,710,l)
);
}
);
width = 741;
},
{
layerId = "3FABAEC4-ABD6-4E2D-B151-012D8FCAB9DA";
shapes = (
{
closed = 1;
nodes = (
(612,710,l),
(612,373,l),
(119,373,l),
(119,710,l),
(99,710,l),
(99,0,l),
(119,0,l),
(119,353,l),
(612,353,l),
(612,0,l),
(632,0,l),
(632,710,l)
);
}
);
width = 731;
}
);
leftKerningGroup = B;
rightKerningGroup = H;
unicode = 72;
},
{
glyphname = I;
layers = (
{
layerId = "6504B2D0-4073-42C8-9B7C-2A4329A12EFE";
shapes = (
{
closed = 1;
nodes = (
(256,0,l),
(256,710,l),
(61,710,l),
(61,0,l)
);
}
);
width = 317;
},
{
layerId = "16C3235A-0965-4506-9E91-995A1F108181";
shapes = (
{
closed = 1;
nodes = (
(211,0,l),
(211,710,l),
(75,710,l),
(75,0,l)
);
}
);
width = 286;
},
{
layerId = "BB3EF6CB-1E12-4008-9D80-E52F161ACC69";
shapes = (
{
closed = 1;
nodes = (
(175,0,l),
(175,710,l),
(85,710,l),
(85,0,l)
);
}
);
width = 260;
},
{
layerId = "3FABAEC4-ABD6-4E2D-B151-012D8FCAB9DA";
shapes = (
{
closed = 1;
nodes = (
(119,0,l),
(119,710,l),
(99,710,l),
(99,0,l)
);
}
);
width = 218;
}
);
leftKerningGroup = B;
rightKerningGroup = H;
unicode = 73;
},
{
glyphname = J;
layers = (
{
layerId = "6504B2D0-4073-42C8-9B7C-2A4329A12EFE";
shapes = (
{
closed = 1;
nodes = (
(327,-5,o),
(393,21,o),
(441,66,cs),
(489,111,o),
(518,176,o),
(518,253,cs),
(518,710,l),
(332,710,l),
(332,266,ls),
(332,238,o),
(329,213,o),
(318,196,cs),
(306,179,o),
(287,168,o),
(254,168,cs),
(225,168,o),
(207,177,o),
(194,193,cs),
(181,209,o),
(173,230,o),
(165,254,c),
(4,182,l),
(20,125,o),
(52,78,o),
(95,46,cs),
(138,13,o),
(191,-5,o),
(251,-5,cs)
);
}
);
width = 579;
},
{
layerId = "16C3235A-0965-4506-9E91-995A1F108181";
shapes = (
{
closed = 1;
nodes = (
(301,-7,o),
(363,16,o),
(408,58,cs),
(452,100,o),
(479,160,o),
(479,232,cs),
(479,710,l),
(345,710,l),
(345,256,ls),
(345,219,o),
(337,184,o),
(320,158,cs),
(303,132,o),
(275,114,o),
(231,114,cs),
(200,114,o),
(178,124,o),
(161,142,cs),
(144,160,o),
(132,181,o),
(123,208,c),
(4,155,l),
(20,104,o),
(51,64,o),
(91,36,cs),
(130,8,o),
(178,-7,o),
(230,-7,cs)
);
}
);
width = 554;
},
{
layerId = "BB3EF6CB-1E12-4008-9D80-E52F161ACC69";
shapes = (
{
closed = 1;
nodes = (
(280,-10,o),
(339,12,o),
(381,51,cs),
(423,90,o),
(448,146,o),
(448,215,cs),
(448,710,l),
(355,710,l),
(355,247,ls),
(355,203,o),
(345,158,o),
(322,126,cs),
(299,93,o),
(264,71,o),
(213,71,cs),
(181,71,o),
(155,82,o),
(135,100,cs),
(114,118,o),
(98,142,o),
(87,170,c),
(5,132,l),
(21,89,o),
(50,53,o),
(87,29,c),
(123,4,o),
(168,-10,o),
(213,-10,cs)
);
}
);
width = 533;
},
{
layerId = "3FABAEC4-ABD6-4E2D-B151-012D8FCAB9DA";
shapes = (
{
closed = 1;
nodes = (
(267,-5,o),
(322,15,o),
(359,52,cs),
(396,88,o),
(418,142,o),
(418,207,cs),
(418,710,l),
(396,710,l),
(396,217,ls),
(396,157,o),
(379,106,o),
(346,71,cs),
(313,35,o),
(265,14,o),
(202,14,cs),
(174,14,o),
(141,23,o),
(111,39,cs),
(81,55,o),
(54,78,o),
(43,105,c),
(26,96,l),
(38,65,o),
(67,41,o),
(100,23,cs),
(133,5,o),
(170,-5,o),
(202,-5,cs)
);
}
);
width = 518;
}
);
leftKerningGroup = J2;
rightKerningGroup = J;
unicode = 74;
},
{
glyphname = K;
layers = (
{
layerId = "6504B2D0-4073-42C8-9B7C-2A4329A12EFE";
shapes = (
{
closed = 1;
nodes = (
(256,0,l),
(256,205,l),
(310,261,l),
(486,0,l),
(710,0,l),
(434,392,l),
(692,710,l),
(472,710,l),
(256,440,l),
(256,710,l),
(61,710,l),
(61,0,l)
);
}
);
width = 690;
},
{
layerId = "16C3235A-0965-4506-9E91-995A1F108181";
shapes = (
{
closed = 1;
nodes = (
(211,0,l),
(211,212,l),
(302,306,l),
(523,0,l),
(679,0,l),
(389,394,l),
(662,710,l),
(510,710,l),
(211,372,l),
(211,710,l),
(75,710,l),
(75,0,l)
);
}
);
width = 669;
},
{
layerId = "BB3EF6CB-1E12-4008-9D80-E52F161ACC69";
shapes = (
{
closed = 1;
nodes = (
(175,0,l),
(175,217,l),
(296,343,l),
(553,0,l),
(654,0,l),
(353,397,l),
(638,710,l),
(541,710,l),
(175,317,l),
(175,709,l),
(85,709,l),
(85,0,l)
);
}
);
width = 652;
},
{
layerId = "3FABAEC4-ABD6-4E2D-B151-012D8FCAB9DA";
shapes = (
{
closed = 1;
nodes = (
(119,0,l),
(119,221,l),
(282,386,l),
(588,0,l),
(614,0,l),
(297,400,l),
(600,710,l),
(571,710,l),
(119,249,l),
(119,710,l),
(99,710,l),
(99,0,l)
);
}
);
width = 621;
}
);
leftKerningGroup = B;
rightKerningGroup = K;
unicode = 75;
},
{
glyphname = L;
layers = (
{
layerId = "6504B2D0-4073-42C8-9B7C-2A4329A12EFE";
shapes = (
{
closed = 1;
nodes = (
(578,0,l),
(578,170,l),
(256,170,l),
(256,710,l),
(61,710,l),
(61,0,l)
);
}
);
width = 585;
},
{
layerId = "16C3235A-0965-4506-9E91-995A1F108181";
shapes = (
{
closed = 1;
nodes = (
(574,0,l),
(574,121,l),
(211,121,l),
(211,710,l),
(75,710,l),
(75,0,l)
);
}
);
width = 585;
},
{
layerId = "BB3EF6CB-1E12-4008-9D80-E52F161ACC69";
shapes = (
{
closed = 1;
nodes = (
(571,0,l),
(571,80,l),
(175,80,l),
(175,710,l),
(85,710,l),
(85,0,l)
);
}
);
width = 584;
},
{
layerId = "3FABAEC4-ABD6-4E2D-B151-012D8FCAB9DA";
shapes = (
{
closed = 1;
nodes = (
(565,0,l),
(565,20,l),
(119,20,l),
(119,710,l),
(99,710,l),
(99,0,l)
);
}
);
width = 579;
}
);
leftKerningGroup = B;
rightKerningGroup = L;
unicode = 76;
},
{
glyphname = M;
layers = (
{
layerId = "6504B2D0-4073-42C8-9B7C-2A4329A12EFE";
shapes = (
{
closed = 1;
nodes = (
(793,0,l),
(793,710,l),
(581,710,l),
(427,376,l),
(274,710,l),
(61,710,l),
(61,0,l),
(256,0,l),
(256,374,l),
(375,111,l),
(479,111,l),
(598,374,l),
(598,0,l)
);
}
);
width = 854;
},
{
layerId = "16C3235A-0965-4506-9E91-995A1F108181";
shapes = (
{
closed = 1;
nodes = (
(791,0,l),
(791,710,l),
(644,710,l),
(433,306,l),
(222,710,l),
(75,710,l),
(75,0,l),
(211,0,l),
(211,467,l),
(394,119,l),
(471,119,l),
(653,467,l),
(653,0,l)
);
}
);
width = 865;
},
{
layerId = "BB3EF6CB-1E12-4008-9D80-E52F161ACC69";
shapes = (
{
closed = 1;
nodes = (
(789,0,l),
(789,710,l),
(695,710,l),
(437,249,l),
(180,710,l),
(85,710,l),
(85,0,l),
(175,0,l),
(175,542,l),
(410,125,l),
(465,125,l),
(699,542,l),
(699,0,l)
);
}
);
width = 874;
},
{
layerId = "3FABAEC4-ABD6-4E2D-B151-012D8FCAB9DA";
shapes = (
{
closed = 1;
nodes = (
(785,0,l),
(785,710,l),
(769,710,l),
(442,164,l),
(115,710,l),
(99,710,l),
(99,0,l),
(119,0,l),
(119,666,l),
(434,140,l),
(450,140,l),
(765,666,l),
(765,0,l)
);
}
);
width = 884;
}
);
leftKerningGroup = B;
rightKerningGroup = H;
unicode = 77;
},
{
glyphname = N;
layers = (
{
layerId = "6504B2D0-4073-42C8-9B7C-2A4329A12EFE";
shapes = (
{
closed = 1;
nodes = (
(538,0,l),
(693,0,l),
(693,710,l),
(498,710,l),
(498,349,l),
(213,710,l),
(61,710,l),
(61,0,l),
(256,0,l),
(256,349,l)
);
}
);
width = 754;
},
{
layerId = "16C3235A-0965-4506-9E91-995A1F108181";
shapes = (
{
closed = 1;
nodes = (
(574,0,l),
(688,0,l),
(688,710,l),
(552,710,l),
(552,243,l),
(184,710,l),
(75,710,l),
(75,0,l),
(211,0,l),
(211,456,l)
);
}
);
width = 763;
},
{
layerId = "BB3EF6CB-1E12-4008-9D80-E52F161ACC69";
shapes = (
{
closed = 1;
nodes = (
(603,0,l),
(685,0,l),
(685,709,l),
(595,709,l),
(595,155,l),
(161,710,l),
(85,710,l),
(85,0,l),
(175,0,l),
(175,544,l)
);
}
);
width = 770;
},
{
layerId = "3FABAEC4-ABD6-4E2D-B151-012D8FCAB9DA";
shapes = (
{
closed = 1;
nodes = (
(654,0,l),
(677,0,l),
(677,710,l),
(657,710,l),
(657,29,l),
(114,710,l),
(99,710,l),
(99,0,l),
(119,0,l),
(119,671,l)
);
}
);
width = 776;
}
);
leftKerningGroup = B;
rightKerningGroup = H;
unicode = 78;
},
{
glyphname = O;
layers = (
{
layerId = "6504B2D0-4073-42C8-9B7C-2A4329A12EFE";
shapes = (
{
closed = 1;
nodes = (
(620,-5,o),
(768,162,o),
(768,359,cs),
(768,552,o),
(621,715,o),
(398,715,cs),
(175,715,o),
(28,552,o),
(28,359,cs),
(28,162,o),
(185,-5,o),
(402,-5,cs)
);
},
{
closed = 1;
nodes = (
(295,159,o),
(219,254,o),
(219,355,cs),
(219,461,o),
(296,551,o),
(406,551,cs),
(514,551,o),
(578,461,o),
(578,355,cs),
(578,254,o),
(517,159,o),
(407,159,cs)
);
}
);
width = 796;
},
{
layerId = "16C3235A-0965-4506-9E91-995A1F108181";
shapes = (
{
closed = 1;
nodes = (
(614,-5,o),
(758,162,o),
(758,359,cs),
(758,552,o),
(612,715,o),
(395,715,cs),
(178,715,o),
(32,552,o),
(32,359,cs),
(32,162,o),
(180,-5,o),
(397,-5,cs)
);
},
{
closed = 1;
nodes = (
(263,120,o),
(176,232,o),
(176,355,cs),
(176,481,o),
(263,590,o),
(397,590,cs),
(529,590,o),
(615,481,o),
(615,355,cs),
(615,232,o),
(530,120,o),
(397,120,cs)
);
}
);
width = 790;
},
{
layerId = "BB3EF6CB-1E12-4008-9D80-E52F161ACC69";
shapes = (
{
closed = 1;
nodes = (
(609,-5,o),
(748,162,o),
(748,358,cs),
(748,553,o),
(603,715,o),
(392,715,cs),
(181,715,o),
(36,553,o),
(36,358,cs),
(36,162,o),
(175,-5,o),
(392,-5,cs)
);
},
{
closed = 1;
nodes = (
(228,78,o),
(129,208,o),
(129,354,cs),
(129,502,o),
(228,632,o),
(387,632,cs),
(546,632,o),
(655,502,o),
(655,354,cs),
(655,208,o),
(544,78,o),
(386,78,cs)
);
}
);
width = 784;
},
{
layerId = "3FABAEC4-ABD6-4E2D-B151-012D8FCAB9DA";
shapes = (
{
closed = 1;
nodes = (
(606,-6,o),
(742,162,o),
(742,358,cs),
(742,553,o),
(601,716,o),
(391,716,cs),
(182,716,o),
(40,553,o),
(40,358,cs),
(40,162,o),
(177,-6,o),
(391,-6,cs)
);
},
{
closed = 1;
nodes = (
(187,15,o),
(62,173,o),
(62,354,cs),
(62,537,o),
(187,695,o),
(386,695,cs),
(590,695,o),
(721,544,o),
(721,354,cs),
(721,166,o),
(588,15,o),
(385,15,cs)
);
}
);
width = 782;
}
);
leftKerningGroup = C2;
rightKerningGroup = O;
unicode = 79;
},
{
glyphname = P;
layers = (
{
layerId = "6504B2D0-4073-42C8-9B7C-2A4329A12EFE";
shapes = (
{
closed = 1;
nodes = (
(256,0,l),
(256,218,l),
(372,218,ls),
(443,218,o),
(501,248,o),
(542,294,cs),
(582,340,o),
(606,401,o),
(606,464,cs),
(606,524,o),
(581,587,o),
(539,633,cs),
(497,679,o),
(436,710,o),
(367,710,cs),
(61,710,l),
(61,0,l)
);
},
{
closed = 1;
nodes = (
(256,540,l),
(354,540,ls),
(366,540,o),
(379,536,o),
(390,524,cs),
(401,512,o),
(408,493,o),
(408,464,cs),
(408,436,o),
(401,417,o),
(393,405,cs),
(384,393,o),
(371,388,o),
(359,388,cs),
(256,388,l)
);
}
);
width = 623;
},
{
layerId = "16C3235A-0965-4506-9E91-995A1F108181";
shapes = (
{
closed = 1;
nodes = (
(211,0,l),
(211,239,l),
(380,239,ls),
(447,239,o),
(501,266,o),
(540,311,cs),
(579,355,o),
(600,414,o),
(600,474,cs),
(600,533,o),
(577,592,o),
(537,636,cs),
(497,680,o),
(440,710,o),
(375,710,cs),
(75,710,l),
(75,0,l)
);
},
{
closed = 1;
nodes = (
(211,589,l),
(366,589,ls),
(391,589,o),
(415,579,o),
(432,559,cs),
(449,539,o),
(462,511,o),
(462,474,cs),
(462,441,o),
(451,411,o),
(436,391,cs),
(420,370,o),
(397,359,o),
(372,359,cs),
(211,359,l)
);
}
);
width = 623;
},
{
layerId = "BB3EF6CB-1E12-4008-9D80-E52F161ACC69";
shapes = (
{
closed = 1;
nodes = (
(175,0,l),
(175,255,l),
(387,255,ls),
(450,255,o),
(502,282,o),
(539,325,cs),
(575,368,o),
(596,424,o),
(596,483,cs),
(596,539,o),
(574,595,o),
(536,639,cs),
(498,682,o),
(444,710,o),
(381,710,cs),
(85,710,l),
(85,0,l)
);
},
{
closed = 1;
nodes = (
(175,630,l),
(376,630,ls),
(411,630,o),
(443,615,o),
(467,588,cs),
(490,561,o),
(505,526,o),
(505,483,cs),
(505,443,o),
(492,406,o),
(471,379,cs),
(450,351,o),
(419,335,o),
(382,335,cs),
(175,335,l)
);
}
);
width = 623;
},
{
layerId = "3FABAEC4-ABD6-4E2D-B151-012D8FCAB9DA";
shapes = (
{
closed = 1;
nodes = (
(119,0,l),
(119,279,l),
(395,279,ls),
(452,279,o),
(501,305,o),
(535,345,cs),
(569,385,o),
(588,439,o),
(588,495,cs),
(588,548,o),
(567,602,o),
(532,643,c),
(496,683,o),
(447,710,o),
(388,710,cs),
(99,710,l),
(99,0,l)
);
},
{
closed = 1;
nodes = (
(119,690,l),
(388,690,ls),
(439,690,o),
(483,666,o),
(516,630,cs),
(548,594,o),
(568,546,o),
(568,495,cs),
(568,447,o),
(551,398,o),
(522,361,cs),
(493,324,o),
(450,299,o),
(395,299,cs),
(119,299,l)
);
}
);
width = 619;
}
);
leftKerningGroup = B;
unicode = 80;
},
{
glyphname = Q;
layers = (
{
layerId = "6504B2D0-4073-42C8-9B7C-2A4329A12EFE";
shapes = (
{
closed = 1;
nodes = (
(621,-46,l),
(738,73,l),
(479,354,l),
(359,238,l)
);
},
{
alignment = -1;
ref = O;
}
);
width = 796;
},
{
layerId = "16C3235A-0965-4506-9E91-995A1F108181";
shapes = (
{
closed = 1;
nodes = (
(650,-32,l),
(740,59,l),
(471,336,l),
(380,247,l)
);
},
{
alignment = -1;
ref = O;
}
);
width = 790;
},
{
layerId = "BB3EF6CB-1E12-4008-9D80-E52F161ACC69";
shapes = (
{
closed = 1;
nodes = (
(681,-16,l),
(743,46,l),
(465,318,l),
(403,256,l)
);
},
{
alignment = -1;
ref = O;
}
);
width = 784;
},
{
layerId = "3FABAEC4-ABD6-4E2D-B151-012D8FCAB9DA";
shapes = (
{
closed = 1;
nodes = (
(712,-7,l),
(727,8,l),
(449,286,l),
(434,271,l)
);
},
{
alignment = -1;
ref = O;
}
);
width = 782;
}
);
leftKerningGroup = C2;
rightKerningGroup = O;
unicode = 81;
},
{
glyphname = R;
layers = (
{
layerId = "6504B2D0-4073-42C8-9B7C-2A4329A12EFE";
shapes = (
{
closed = 1;
nodes = (
(256,0,l),
(256,218,l),
(335,218,l),
(460,0,l),
(674,0,l),
(524,261,l),
(556,284,o),
(582,313,o),
(599,349,cs),
(616,384,o),
(626,423,o),
(626,464,cs),
(626,524,o),
(601,587,o),
(559,633,cs),
(517,679,o),
(456,710,o),
(387,710,cs),
(61,710,l),
(61,0,l)
);
},
{
closed = 1;
nodes = (
(256,540,l),
(374,540,ls),
(386,540,o),
(399,533,o),
(410,521,cs),
(421,508,o),
(428,488,o),
(428,464,cs),
(428,440,o),
(421,421,o),
(413,408,cs),
(404,395,o),
(391,388,o),
(379,388,cs),
(256,388,l)
);
}
);
width = 675;
},
{
layerId = "16C3235A-0965-4506-9E91-995A1F108181";
shapes = (
{
closed = 1;
nodes = (
(211,0,l),
(211,239,l),
(350,239,l),
(496,0,l),
(648,0,l),
(486,267,l),
(526,283,o),
(558,313,o),
(580,349,cs),
(602,385,o),
(614,429,o),
(614,474,cs),
(614,533,o),
(590,592,o),
(550,636,cs),
(510,680,o),
(455,710,o),
(388,710,cs),
(75,710,l),
(75,0,l)
);
},
{
closed = 1;
nodes = (
(211,589,l),
(380,589,ls),
(404,589,o),
(428,577,o),
(446,557,cs),
(464,536,o),
(475,507,o),
(475,474,cs),
(475,443,o),
(464,413,o),
(449,392,cs),
(433,371,o),
(410,359,o),
(385,359,cs),
(211,359,l)
);
}
);
width = 665;
},
{
layerId = "BB3EF6CB-1E12-4008-9D80-E52F161ACC69";
shapes = (
{
closed = 1;
nodes = (
(175,0,l),
(175,255,l),
(363,255,l),
(525,0,l),
(627,0,l),
(455,272,l),
(500,284,o),
(538,312,o),
(564,349,cs),
(590,386,o),
(604,434,o),
(604,483,cs),
(604,539,o),
(582,595,o),
(544,639,cs),
(506,682,o),
(452,710,o),
(389,710,cs),
(85,710,l),
(85,0,l)
);
},
{
closed = 1;
nodes = (
(175,630,l),
(384,630,ls),
(419,630,o),
(451,614,o),
(475,587,c),
(498,559,o),
(513,523,o),
(513,483,cs),
(513,444,o),
(500,407,o),
(479,380,cs),
(458,352,o),
(427,335,o),
(390,335,cs),
(175,335,l)
);
}
);
width = 657;
},
{
layerId = "3FABAEC4-ABD6-4E2D-B151-012D8FCAB9DA";
shapes = (
{
closed = 1;
nodes = (
(119,0,l),
(119,279,l),
(383,279,l),
(563,0,l),
(587,0,l),
(407,279,l),
(460,283,o),
(506,309,o),
(538,349,cs),
(570,388,o),
(588,440,o),
(588,495,cs),
(588,548,o),
(567,602,o),
(532,643,c),
(496,683,o),
(447,710,o),
(388,710,cs),
(99,710,l),
(99,0,l)
);
},
{
closed = 1;
nodes = (
(119,690,l),
(388,690,ls),
(439,690,o),
(483,666,o),
(516,630,cs),
(548,594,o),
(568,546,o),
(568,495,cs),
(568,446,o),
(552,397,o),
(522,361,cs),
(492,324,o),
(448,299,o),
(395,299,cs),
(119,299,l)
);
}
);
width = 642;
}
);
leftKerningGroup = B;
rightKerningGroup = R;
unicode = 82;
},
{
glyphname = S;
layers = (
{
anchors = (
{
name = bottom;
position = "{302, 0}";
}
);
layerId = "6504B2D0-4073-42C8-9B7C-2A4329A12EFE";
shapes = (
{
closed = 1;
nodes = (
(575,639,l),
(543,655,o),
(503,674,o),
(457,690,cs),
(411,705,o),
(361,716,o),
(309,716,cs),
(240,716,o),
(173,695,o),
(124,655,cs),
(75,615,o),
(44,555,o),
(44,476,cs),
(44,424,o),
(58,385,o),
(87,354,cs),
(116,322,o),
(161,298,o),
(224,277,cs),
(267,262,o),
(306,253,o),
(335,242,cs),
(364,231,o),
(382,218,o),
(382,198,cs),
(382,179,o),
(368,167,o),
(325,167,cs),
(270,167,o),
(214,186,o),
(171,206,cs),
(127,226,o),
(97,245,o),
(97,245,c),
(13,74,l),
(56,49,o),
(107,29,o),
(161,14,cs),
(215,-1,o),
(270,-9,o),
(322,-9,cs),
(389,-9,o),
(455,5,o),
(507,40,cs),
(558,75,o),
(592,132,o),
(592,217,cs),
(592,284,o),
(571,329,o),
(534,362,cs),
(497,394,o),
(443,417,o),
(378,437,cs),
(337,450,o),
(304,459,o),
(281,469,cs),
(258,479,o),
(246,489,o),
(246,508,cs),
(246,533,o),
(270,543,o),
(303,543,cs),
(346,543,o),
(393,527,o),
(429,511,cs),
(465,494,o),
(491,478,o),
(491,478,c)
);
}
);
width = 617;
},
{
anchors = (
{
name = bottom;
position = "{300, 0}";
}
);
layerId = "16C3235A-0965-4506-9E91-995A1F108181";
shapes = (
{
closed = 1;
nodes = (
(558,637,l),
(527,656,o),
(491,676,o),
(448,691,cs),
(405,706,o),
(361,716,o),
(310,716,cs),
(239,716,o),
(173,695,o),
(126,658,cs),
(79,621,o),
(51,564,o),
(51,492,cs),
(51,437,o),
(67,398,o),
(100,369,cs),
(133,340,o),
(184,319,o),
(252,300,cs),
(308,284,o),
(353,272,o),
(386,256,cs),
(418,240,o),
(436,221,o),
(436,189,cs),
(436,141,o),
(398,116,o),
(323,116,cs),
(268,116,o),
(214,131,o),
(171,151,c),
(127,170,o),
(95,191,o),
(83,204,c),
(22,84,l),
(63,56,o),
(110,32,o),
(162,16,cs),
(213,0,o),
(267,-8,o),
(320,-8,cs),
(389,-8,o),
(456,7,o),
(504,41,cs),
(552,75,o),
(583,127,o),
(583,203,cs),
(583,268,o),
(562,312,o),
(522,344,cs),
(482,375,o),
(426,396,o),
(355,413,c),
(302,428,o),
(261,438,o),
(234,452,cs),
(206,466,o),
(192,486,o),
(192,514,cs),
(192,565,o),
(231,593,o),
(306,593,cs),
(349,593,o),
(392,582,o),
(427,566,cs),
(462,550,o),
(489,535,o),
(497,524,c)
);
}
);
width = 612;
},
{
anchors = (
{
name = bottom;
position = "{288, 0}";
}
);
layerId = "BB3EF6CB-1E12-4008-9D80-E52F161ACC69";
shapes = (
{
closed = 1;
nodes = (
(544,634,l),
(515,658,o),
(480,679,o),
(441,693,cs),
(401,707,o),
(359,715,o),
(311,715,cs),
(238,715,o),
(173,697,o),
(128,661,cs),
(83,625,o),
(56,573,o),
(56,505,cs),
(56,449,o),
(75,410,o),
(112,382,cs),
(148,354,o),
(203,335,o),
(275,318,cs),
(342,302,o),
(392,288,o),
(427,268,cs),
(462,248,o),
(480,222,o),
(480,182,cs),
(480,110,o),
(421,74,o),
(320,74,cs),
(267,74,o),
(215,87,o),
(172,105,cs),
(128,123,o),
(93,146,o),
(72,169,c),
(29,93,l),
(69,61,o),
(114,35,o),
(163,19,cs),
(211,2,o),
(263,-7,o),
(318,-7,cs),
(391,-7,o),
(456,8,o),
(502,41,cs),
(548,73,o),
(576,123,o),
(576,191,cs),
(576,255,o),
(554,297,o),
(512,328,cs),
(470,359,o),
(411,378,o),
(336,394,cs),
(272,409,o),
(226,421,o),
(195,439,cs),
(163,457,o),
(149,482,o),
(149,519,cs),
(149,591,o),
(200,635,o),
(309,635,cs),
(352,635,o),
(392,626,o),
(425,612,cs),
(458,598,o),
(486,580,o),
(502,561,c)
);
}
);
width = 609;
},
{
anchors = (
{
name = bottom;
position = "{295, 2}";
}
);
layerId = "3FABAEC4-ABD6-4E2D-B151-012D8FCAB9DA";
shapes = (
{
closed = 1;
nodes = (
(522,630,l),
(494,661,o),
(464,682,o),
(429,696,cs),
(394,710,o),
(356,715,o),
(311,715,cs),
(235,715,o),
(174,698,o),
(131,666,cs),
(87,633,o),
(63,585,o),
(63,524,cs),
(63,465,o),
(85,429,o),
(127,403,cs),
(169,377,o),
(229,361,o),
(308,346,cs),
(391,330,o),
(449,313,o),
(488,286,cs),
(527,259,o),
(545,224,o),
(545,171,cs),
(545,64,o),
(457,12,o),
(316,12,cs),
(263,12,o),
(215,20,o),
(172,37,cs),
(128,54,o),
(90,81,o),
(54,118,c),
(39,105,l),
(78,68,o),
(118,40,o),
(163,22,cs),
(208,4,o),
(258,-5,o),
(315,-5,cs),
(392,-5,o),
(455,12,o),
(498,42,cs),
(541,72,o),
(565,117,o),
(565,174,cs),
(565,237,o),
(540,276,o),
(496,304,cs),
(451,332,o),
(386,349,o),
(307,365,cs),
(228,381,o),
(172,396,o),
(136,420,cs),
(100,443,o),
(83,475,o),
(83,526,cs),
(83,629,o),
(152,696,o),
(313,696,cs),
(356,696,o),
(390,691,o),
(422,679,cs),
(453,667,o),
(481,647,o),
(509,616,c)
);
}
);
width = 602;
}
);
leftKerningGroup = S2;
rightKerningGroup = S;
unicode = 83;
},
{
glyphname = T;
layers = (
{
anchors = (
{
name = bottom;
position = "{312, 0}";
}
);
layerId = "6504B2D0-4073-42C8-9B7C-2A4329A12EFE";
shapes = (
{
closed = 1;
nodes = (
(614,710,l),
(10,710,l),
(10,540,l),
(215,540,l),
(215,0,l),
(410,0,l),
(410,540,l),
(614,540,l)
);
}
);
width = 624;
},
{
anchors = (
{
name = bottom;
position = "{310, 0}";
}
);
layerId = "16C3235A-0965-4506-9E91-995A1F108181";
shapes = (
{
closed = 1;
nodes = (
(605,710,l),
(14,710,l),
(14,589,l),
(241,589,l),
(241,0,l),
(378,0,l),
(378,589,l),
(605,589,l)
);
}
);
width = 618;
},
{
anchors = (
{
name = bottom;
position = "{307, 0}";
}
);
layerId = "BB3EF6CB-1E12-4008-9D80-E52F161ACC69";
shapes = (
{
closed = 1;
nodes = (
(597,710,l),
(17,710,l),
(17,630,l),
(262,630,l),
(262,0,l),
(352,0,l),
(352,630,l),
(597,630,l)
);
}
);
width = 614;
},
{
anchors = (
{
name = bottom;
position = "{300, 0}";
}
);
layerId = "3FABAEC4-ABD6-4E2D-B151-012D8FCAB9DA";
shapes = (
{
closed = 1;
nodes = (
(582,710,l),
(18,710,l),
(18,690,l),
(290,690,l),
(290,0,l),
(310,0,l),
(310,690,l),
(582,690,l)
);
}
);
width = 600;
}
);
leftKerningGroup = T2;
rightKerningGroup = T;
unicode = 84;
},
{
glyphname = U;
layers = (
{
layerId = "6504B2D0-4073-42C8-9B7C-2A4329A12EFE";
shapes = (
{
closed = 1;
nodes = (
(482,-6,o),
(561,32,o),
(614,96,cs),
(667,159,o),
(692,246,o),
(692,345,cs),
(692,710,l),
(497,710,l),
(497,345,ls),
(497,300,o),
(489,254,o),
(469,222,cs),
(449,189,o),
(418,167,o),
(371,167,cs),
(326,167,o),
(295,188,o),
(275,221,cs),
(255,253,o),
(246,298,o),
(246,345,cs),
(246,710,l),
(51,710,l),
(51,345,ls),
(51,252,o),
(74,163,o),
(126,99,cs),
(178,35,o),
(258,-6,o),
(371,-6,cs)
);
}
);
width = 743;
},
{
layerId = "16C3235A-0965-4506-9E91-995A1F108181";
shapes = (
{
closed = 1;
nodes = (
(484,-6,o),
(561,34,o),
(612,99,cs),
(663,163,o),
(685,252,o),
(685,348,cs),
(685,710,l),
(548,710,l),
(548,348,ls),
(548,291,o),
(538,232,o),
(511,189,cs),
(484,146,o),
(441,117,o),
(374,117,cs),
(310,117,o),
(267,145,o),
(240,188,cs),
(212,231,o),
(201,289,o),
(201,348,cs),
(201,710,l),
(65,710,l),
(65,348,ls),
(65,257,o),
(85,167,o),
(135,102,cs),
(185,37,o),
(262,-6,o),
(375,-6,cs)
);
}
);
width = 750;
},
{
layerId = "BB3EF6CB-1E12-4008-9D80-E52F161ACC69";
shapes = (
{
closed = 1;
nodes = (
(487,-5,o),
(563,36,o),
(611,101,cs),
(659,166,o),
(680,255,o),
(680,351,cs),
(680,710,l),
(590,710,l),
(590,351,ls),
(590,283,o),
(578,214,o),
(546,163,cs),
(513,111,o),
(460,76,o),
(377,76,cs),
(296,76,o),
(243,110,o),
(211,161,cs),
(178,212,o),
(165,282,o),
(165,351,cs),
(165,710,l),
(75,710,l),
(75,351,ls),
(75,260,o),
(94,171,o),
(142,105,cs),
(189,39,o),
(265,-5,o),
(378,-5,cs)
);
}
);
width = 755;
},
{
layerId = "3FABAEC4-ABD6-4E2D-B151-012D8FCAB9DA";
shapes = (
{
closed = 1;
nodes = (
(488,-5,o),
(561,39,o),
(606,105,cs),
(651,171,o),
(669,262,o),
(669,355,cs),
(669,710,l),
(649,710,l),
(649,355,ls),
(649,272,o),
(635,187,o),
(594,123,cs),
(553,59,o),
(485,15,o),
(378,15,cs),
(273,15,o),
(205,57,o),
(164,121,cs),
(123,185,o),
(108,270,o),
(108,355,cs),
(108,710,l),
(88,710,l),
(88,355,ls),
(88,266,o),
(105,176,o),
(150,108,cs),
(194,40,o),
(267,-5,o),
(379,-5,cs)
);
}
);
width = 756;
}
);
leftKerningGroup = U2;
rightKerningGroup = U;
unicode = 85;
},
{
glyphname = V;
layers = (
{
layerId = "6504B2D0-4073-42C8-9B7C-2A4329A12EFE";
shapes = (
{
closed = 1;
nodes = (
(-8,710,l),
(240,0,l),
(434,0,l),
(679,710,l),
(474,710,l),
(337,225,l),
(198,710,l)
);
}
);
width = 672;
},
{
layerId = "16C3235A-0965-4506-9E91-995A1F108181";
shapes = (
{
closed = 1;
nodes = (
(2,710,l),
(272,0,l),
(405,0,l),
(673,710,l),
(529,710,l),
(338,163,l),
(147,710,l)
);
}
);
width = 677;
},
{
layerId = "BB3EF6CB-1E12-4008-9D80-E52F161ACC69";
shapes = (
{
closed = 1;
nodes = (
(10,710,l),
(299,0,l),
(381,0,l),
(669,710,l),
(574,710,l),
(340,113,l),
(105,710,l)
);
}
);
width = 680;
},
{
layerId = "3FABAEC4-ABD6-4E2D-B151-012D8FCAB9DA";
shapes = (
{
closed = 1;
nodes = (
(19,710,l),
(328,0,l),
(350,0,l),
(659,710,l),
(637,710,l),
(339,25,l),
(40,710,l)
);
}
);
width = 678;
}
);
unicode = 86;
},
{
glyphname = W;
layers = (
{
anchors = (
{
name = top;
position = "{569, 710}";
}
);
layerId = "6504B2D0-4073-42C8-9B7C-2A4329A12EFE";
shapes = (
{
closed = 1;
nodes = (
(932,710,l),
(804,267,l),
(662,650,l),
(472,650,l),
(333,265,l),
(202,710,l),
(4,710,l),
(223,0,l),
(406,0,l),
(567,428,l),
(731,0,l),
(912,0,l),
(1133,710,l)
);
}
);
width = 1135;
},
{
anchors = (
{
name = top;
position = "{535, 710}";
}
);
layerId = "BB3EF6CB-1E12-4008-9D80-E52F161ACC69";
shapes = (
{
closed = 1;
nodes = (
(960,710,l),
(776,117,l),
(574,650,l),
(487,650,l),
(293,118,l),
(109,710,l),
(19,710,l),
(245,0,l),
(329,0,l),
(532,544,l),
(741,0,l),
(824,0,l),
(1050,710,l)
);
}
);
width = 1069;
},
{
anchors = (
{
name = top;
position = "{510, 710}";
}
);
layerId = "3FABAEC4-ABD6-4E2D-B151-012D8FCAB9DA";
shapes = (
{
closed = 1;
nodes = (
(978,710,l),
(758,23,l),
(517,650,l),
(501,650,l),
(268,24,l),
(50,710,l),
(29,710,l),
(258,0,l),
(276,0,l),
(510,617,l),
(749,0,l),
(769,0,l),
(998,710,l)
);
}
);
width = 1027;
},
{
anchors = (
{
name = top;
position = "{548, 710}";
}
);
layerId = "16C3235A-0965-4506-9E91-995A1F108181";
shapes = (
{
closed = 1;
nodes = (
(947,710,l),
(789,185,l),
(614,650,l),
(480,650,l),
(311,184,l),
(151,710,l),
(12,710,l),
(235,0,l),
(364,0,l),
(548,492,l),
(736,0,l),
(864,0,l),
(1087,710,l)
);
}
);
width = 1099;
}
);
leftKerningGroup = W2;
rightKerningGroup = W;
unicode = 87;
},
{
glyphname = X;
layers = (
{
layerId = "6504B2D0-4073-42C8-9B7C-2A4329A12EFE";
shapes = (
{
closed = 1;
nodes = (
(-11,710,l),
(212,350,l),
(-3,0,l),
(208,0,l),
(329,214,l),
(450,0,l),
(660,0,l),
(445,350,l),
(668,710,l),
(458,710,l),
(329,486,l),
(200,710,l)
);
}
);
width = 657;
},
{
layerId = "16C3235A-0965-4506-9E91-995A1F108181";
shapes = (
{
closed = 1;
nodes = (
(-3,710,l),
(243,350,l),
(5,0,l),
(155,0,l),
(323,253,l),
(491,0,l),
(642,0,l),
(404,350,l),
(650,710,l),
(499,710,l),
(323,447,l),
(147,710,l)
);
}
);
width = 646;
},
{
layerId = "BB3EF6CB-1E12-4008-9D80-E52F161ACC69";
shapes = (
{
closed = 1;
nodes = (
(3,710,l),
(268,350,l),
(11,0,l),
(113,0,l),
(319,284,l),
(525,0,l),
(626,0,l),
(369,350,l),
(634,710,l),
(533,710,l),
(319,416,l),
(105,710,l)
);
}
);
width = 637;
},
{
layerId = "3FABAEC4-ABD6-4E2D-B151-012D8FCAB9DA";
shapes = (
{
closed = 1;
nodes = (
(11,710,l),
(298,350,l),
(19,0,l),
(45,0,l),
(311,334,l),
(577,0,l),
(602,0,l),
(323,350,l),
(610,710,l),
(585,710,l),
(311,366,l),
(37,710,l)
);
}
);
width = 621;
}
);
unicode = 88;
},
{
glyphname = Y;
layers = (
{
layerId = "6504B2D0-4073-42C8-9B7C-2A4329A12EFE";
shapes = (
{
closed = 1;
nodes = (
(-6,710,l),
(235,237,l),
(235,0,l),
(429,0,l),
(429,235,l),
(674,710,l),
(462,710,l),
(332,420,l),
(205,710,l)
);
}
);
width = 666;
},
{
layerId = "16C3235A-0965-4506-9E91-995A1F108181";
shapes = (
{
closed = 1;
nodes = (
(4,710,l),
(261,251,l),
(261,0,l),
(398,0,l),
(398,249,l),
(657,710,l),
(507,710,l),
(330,376,l),
(154,710,l)
);
}
);
width = 660;
},
{
layerId = "BB3EF6CB-1E12-4008-9D80-E52F161ACC69";
shapes = (
{
closed = 1;
nodes = (
(13,710,l),
(282,261,l),
(282,0,l),
(372,0,l),
(372,259,l),
(642,710,l),
(544,710,l),
(327,340,l),
(112,710,l)
);
}
);
width = 655;
},
{
layerId = "3FABAEC4-ABD6-4E2D-B151-012D8FCAB9DA";
shapes = (
{
closed = 1;
nodes = (
(23,710,l),
(310,277,l),
(310,0,l),
(330,0,l),
(330,275,l),
(618,710,l),
(595,710,l),
(320,298,l),
(46,710,l)
);
}
);
width = 641;
}
);
leftKerningGroup = Y2;
rightKerningGroup = Y;
unicode = 89;
},
{
glyphname = Z;
layers = (
{
layerId = "6504B2D0-4073-42C8-9B7C-2A4329A12EFE";
shapes = (
{
closed = 1;
nodes = (
(27,0,l),
(590,0,l),
(590,170,l),
(282,170,l),
(584,565,l),
(584,710,l),
(42,710,l),
(42,540,l),
(349,540,l),
(27,145,l)
);
}
);
width = 622;
},
{
layerId = "16C3235A-0965-4506-9E91-995A1F108181";
shapes = (
{
closed = 1;
nodes = (
(29,0,l),
(592,0,l),
(592,121,l),
(207,121,l),
(590,606,l),
(590,710,l),
(42,710,l),
(42,589,l),
(427,589,l),
(29,104,l)
);
}
);
width = 627;
},
{
layerId = "BB3EF6CB-1E12-4008-9D80-E52F161ACC69";
shapes = (
{
closed = 1;
nodes = (
(32,0,l),
(595,0,l),
(595,80,l),
(145,80,l),
(595,640,l),
(595,710,l),
(41,710,l),
(41,630,l),
(490,630,l),
(32,70,l)
);
}
);
width = 631;
},
{
layerId = "3FABAEC4-ABD6-4E2D-B151-012D8FCAB9DA";
shapes = (
{
closed = 1;
nodes = (
(28,0,l),
(591,0,l),
(591,20,l),
(53,20,l),
(595,690,l),
(595,710,l),
(33,710,l),
(33,690,l),
(570,690,l),
(28,20,l)
);
}
);
width = 624;
}
);
leftKerningGroup = Z2;
rightKerningGroup = Z;
unicode = 90;
},
{
glyphname = bracketleft;
layers = (
{
layerId = "6504B2D0-4073-42C8-9B7C-2A4329A12EFE";
shapes = (
{
closed = 1;
nodes = (
(324,-40,l),
(324,110,l),
(254,110,l),
(254,590,l),
(324,590,l),
(324,740,l),
(79,740,l),
(79,-40,l)
);
}
);
width = 371;
},
{
layerId = "16C3235A-0965-4506-9E91-995A1F108181";
shapes = (
{
closed = 1;
nodes = (
(269,-40,l),
(269,68,l),
(206,68,l),
(206,632,l),
(269,632,l),
(269,740,l),
(81,740,l),
(81,-40,l)
);
}
);
width = 316;
},
{
layerId = "BB3EF6CB-1E12-4008-9D80-E52F161ACC69";
shapes = (
{
closed = 1;
nodes = (
(224,-40,l),
(224,32,l),
(166,32,l),
(166,668,l),
(224,668,l),
(224,740,l),
(84,740,l),
(84,-40,l)
);
}
);
width = 270;
},
{
layerId = "3FABAEC4-ABD6-4E2D-B151-012D8FCAB9DA";
shapes = (
{
closed = 1;
nodes = (
(167,-40,l),
(167,-20,l),
(117,-20,l),
(117,720,l),
(167,720,l),
(167,740,l),
(97,740,l),
(97,-40,l)
);
}
);
width = 228;
}
);
unicode = 91;
},
{
glyphname = backslash;
layers = (
{
layerId = "6504B2D0-4073-42C8-9B7C-2A4329A12EFE";
shapes = (
{
closed = 1;
nodes = (
(25,710,l),
(461,0,l),
(670,0,l),
(235,710,l)
);
}
);
width = 694;
},
{
layerId = "16C3235A-0965-4506-9E91-995A1F108181";
shapes = (
{
closed = 1;
nodes = (
(26,710,l),
(462,0,l),
(611,0,l),
(176,710,l)
);
}
);
width = 637;
},
{
layerId = "BB3EF6CB-1E12-4008-9D80-E52F161ACC69";
shapes = (
{
closed = 1;
nodes = (
(28,710,l),
(464,0,l),
(562,0,l),
(127,710,l)
);
}
);
width = 590;
},
{
layerId = "3FABAEC4-ABD6-4E2D-B151-012D8FCAB9DA";
shapes = (
{
closed = 1;
nodes = (
(27,710,l),
(463,0,l),
(488,0,l),
(53,710,l)
);
}
);
width = 514;
}
);
unicode = 92;
},
{
glyphname = bracketright;
layers = (
{
layerId = "6504B2D0-4073-42C8-9B7C-2A4329A12EFE";
shapes = (
{
closed = 1;
nodes = (
(292,-40,l),
(292,740,l),
(47,740,l),
(47,590,l),
(117,590,l),
(117,110,l),
(47,110,l),
(47,-40,l)
);
}
);
width = 371;
},
{
layerId = "16C3235A-0965-4506-9E91-995A1F108181";
shapes = (
{
closed = 1;
nodes = (
(234,-40,l),
(234,740,l),
(47,740,l),
(47,632,l),
(110,632,l),
(110,68,l),
(47,68,l),
(47,-40,l)
);
}
);
width = 316;
},
{
layerId = "BB3EF6CB-1E12-4008-9D80-E52F161ACC69";
shapes = (
{
closed = 1;
nodes = (
(186,-40,l),
(186,740,l),
(46,740,l),
(46,668,l),
(104,668,l),
(104,32,l),
(46,32,l),
(46,-40,l)
);
}
);
width = 270;
},
{
layerId = "3FABAEC4-ABD6-4E2D-B151-012D8FCAB9DA";
shapes = (
{
closed = 1;
nodes = (
(131,-40,l),
(131,740,l),
(61,740,l),
(61,720,l),
(111,720,l),
(111,-20,l),
(61,-20,l),
(61,-40,l)
);
}
);
width = 228;
}
);
unicode = 93;
},
{
glyphname = asciicircum;
layers = (
{
layerId = "6504B2D0-4073-42C8-9B7C-2A4329A12EFE";
shapes = (
{
closed = 1;
nodes = (
(187,303,l),
(313,556,l),
(436,303,l),
(589,303,l),
(392,710,l),
(234,710,l),
(36,303,l)
);
}
);
width = 625;
},
{
layerId = "16C3235A-0965-4506-9E91-995A1F108181";
shapes = (
{
closed = 1;
nodes = (
(147,303,l),
(293,597,l),
(436,303,l),
(547,303,l),
(350,710,l),
(237,710,l),
(39,303,l)
);
}
);
width = 585;
},
{
layerId = "BB3EF6CB-1E12-4008-9D80-E52F161ACC69";
shapes = (
{
closed = 1;
nodes = (
(115,303,l),
(277,631,l),
(436,303,l),
(511,303,l),
(314,710,l),
(240,710,l),
(42,303,l)
);
}
);
width = 553;
},
{
layerId = "3FABAEC4-ABD6-4E2D-B151-012D8FCAB9DA";
shapes = (
{
closed = 1;
nodes = (
(67,303,l),
(253,681,l),
(436,303,l),
(459,303,l),
(262,710,l),
(244,710,l),
(46,303,l)
);
}
);
width = 505;
}
);
unicode = 94;
},
{
glyphname = underscore;
layers = (
{
layerId = "6504B2D0-4073-42C8-9B7C-2A4329A12EFE";
shapes = (
{
closed = 1;
nodes = (
(397,-170,l),
(397,0,l),
(44,0,l),
(44,-170,l)
);
}
);
width = 441;
},
{
layerId = "16C3235A-0965-4506-9E91-995A1F108181";
shapes = (
{
closed = 1;
nodes = (
(421,-121,l),
(421,0,l),
(54,0,l),
(54,-121,l)
);
}
);
width = 475;
},
{
layerId = "BB3EF6CB-1E12-4008-9D80-E52F161ACC69";
shapes = (
{
closed = 1;
nodes = (
(440,-80,l),
(440,0,l),
(63,0,l),
(63,-80,l)
);
}
);
width = 503;
},
{
layerId = "3FABAEC4-ABD6-4E2D-B151-012D8FCAB9DA";
shapes = (
{
closed = 1;
nodes = (
(462,-20,l),
(462,0,l),
(69,0,l),
(69,-20,l)
);
}
);
width = 531;
}
);
unicode = 95;
},
{
glyphname = a;
layers = (
{
layerId = "6504B2D0-4073-42C8-9B7C-2A4329A12EFE";
shapes = (
{
closed = 1;
nodes = (
(542,0,l),
(542,312,ls),
(542,387,o),
(518,442,o),
(474,480,cs),
(429,518,o),
(364,536,o),
(280,536,cs),
(189,536,o),
(114,514,o),
(43,469,c),
(98,351,l),
(154,388,o),
(201,408,o),
(261,408,cs),
(293,408,o),
(315,402,o),
(331,390,cs),
(346,378,o),
(352,359,o),
(352,335,cs),
(352,319,l),
(325,332,o),
(287,339,o),
(246,339,cs),
(179,339,o),
(123,321,o),
(83,289,cs),
(43,257,o),
(19,212,o),
(19,159,cs),
(19,111,o),
(39,69,o),
(72,39,cs),
(104,9,o),
(151,-10,o),
(203,-10,cs),
(272,-10,o),
(324,16,o),
(359,65,c),
(359,0,l)
);
},
{
closed = 1;
nodes = (
(318,141,o),
(307,135,o),
(296,132,cs),
(284,128,o),
(272,126,o),
(260,126,cs),
(243,126,o),
(227,131,o),
(216,140,cs),
(204,149,o),
(198,161,o),
(198,176,cs),
(198,193,o),
(206,208,o),
(221,219,cs),
(236,230,o),
(256,236,o),
(279,236,cs),
(300,236,o),
(329,230,o),
(352,222,c),
(352,183,ls),
(352,170,o),
(342,157,o),
(327,146,c)
);
}
);
width = 584;
},
{
layerId = "16C3235A-0965-4506-9E91-995A1F108181";
shapes = (
{
closed = 1;
nodes = (
(510,0,l),
(510,317,ls),
(510,385,o),
(489,440,o),
(449,477,cs),
(408,513,o),
(348,534,o),
(272,534,cs),
(191,534,o),
(119,507,o),
(54,466,c),
(95,381,l),
(152,420,o),
(201,440,o),
(260,440,cs),
(297,440,o),
(327,431,o),
(347,412,cs),
(366,393,o),
(376,366,o),
(376,333,cs),
(376,302,l),
(349,315,o),
(305,325,o),
(248,325,cs),
(189,325,o),
(133,310,o),
(92,281,cs),
(51,252,o),
(25,211,o),
(25,156,cs),
(25,109,o),
(45,67,o),
(77,38,cs),
(109,9,o),
(153,-10,o),
(204,-10,cs),
(277,-10,o),
(340,16,o),
(381,73,c),
(381,0,l)
);
},
{
closed = 1;
nodes = (
(342,117,o),
(324,106,o),
(304,99,cs),
(284,91,o),
(263,87,o),
(243,87,cs),
(218,87,o),
(195,96,o),
(179,110,cs),
(162,124,o),
(152,144,o),
(152,167,cs),
(152,195,o),
(166,216,o),
(189,230,cs),
(212,244,o),
(241,250,o),
(270,250,cs),
(303,250,o),
(343,242,o),
(376,230,c),
(376,169,ls),
(376,157,o),
(367,143,o),
(354,132,c)
);
}
);
width = 565;
},
{
layerId = "BB3EF6CB-1E12-4008-9D80-E52F161ACC69";
shapes = (
{
closed = 1;
nodes = (
(484,0,l),
(484,321,ls),
(484,384,o),
(465,437,o),
(428,474,cs),
(391,510,o),
(337,531,o),
(266,531,cs),
(190,531,o),
(123,503,o),
(63,463,c),
(92,406,l),
(149,446,o),
(203,467,o),
(258,467,cs),
(302,467,o),
(336,454,o),
(360,430,cs),
(383,406,o),
(396,371,o),
(396,330,cs),
(396,288,l),
(369,300,o),
(318,314,o),
(250,314,cs),
(197,314,o),
(142,302,o),
(100,275,cs),
(58,248,o),
(30,208,o),
(30,153,cs),
(30,108,o),
(49,66,o),
(81,37,cs),
(112,8,o),
(156,-10,o),
(205,-10,cs),
(281,-10,o),
(354,18,o),
(399,79,c),
(399,0,l)
);
},
{
closed = 1;
nodes = (
(361,99,o),
(338,82,o),
(311,72,cs),
(284,62,o),
(255,56,o),
(228,56,cs),
(197,56,o),
(169,67,o),
(148,85,cs),
(127,103,o),
(114,129,o),
(114,160,cs),
(114,196,o),
(134,221,o),
(163,238,cs),
(191,254,o),
(228,261,o),
(263,261,cs),
(306,261,o),
(353,253,o),
(396,236,c),
(396,159,ls),
(396,147,o),
(389,133,o),
(377,120,c)
);
}
);
width = 549;
},
{
layerId = "3FABAEC4-ABD6-4E2D-B151-012D8FCAB9DA";
shapes = (
{
closed = 1;
nodes = (
(448,0,l),
(448,327,ls),
(448,383,o),
(432,433,o),
(400,469,cs),
(368,505,o),
(321,527,o),
(258,527,cs),
(194,527,o),
(133,496,o),
(78,459,c),
(90,443,l),
(149,484,o),
(207,507,o),
(258,507,cs),
(310,507,o),
(352,489,o),
(382,457,cs),
(412,425,o),
(428,380,o),
(428,327,cs),
(428,268,l),
(401,279,o),
(339,297,o),
(254,297,cs),
(209,297,o),
(156,288,o),
(114,265,cs),
(72,242,o),
(40,205,o),
(40,149,cs),
(40,105,o),
(59,65,o),
(89,37,cs),
(119,8,o),
(161,-10,o),
(208,-10,cs),
(289,-10,o),
(375,20,o),
(428,88,c),
(428,0,l)
);
},
{
closed = 1;
nodes = (
(393,70,o),
(360,47,o),
(324,32,cs),
(287,17,o),
(247,10,o),
(208,10,cs),
(169,10,o),
(133,24,o),
(106,48,cs),
(78,72,o),
(60,108,o),
(60,149,cs),
(60,197,o),
(88,229,o),
(126,249,cs),
(164,269,o),
(211,277,o),
(254,277,cs),
(313,277,o),
(371,269,o),
(428,246,c),
(428,143,ls),
(428,131,o),
(424,117,o),
(413,102,c)
);
}
);
width = 526;
}
);
leftKerningGroup = a2;
rightKerningGroup = a;
unicode = 97;
},
{
glyphname = b;
layers = (
{
layerId = "6504B2D0-4073-42C8-9B7C-2A4329A12EFE";
shapes = (
{
closed = 1;
nodes = (
(454,-10,o),
(514,19,o),
(558,67,cs),
(601,115,o),
(627,184,o),
(627,261,cs),
(627,340,o),
(603,409,o),
(563,458,cs),
(523,507,o),
(466,536,o),
(402,536,cs),
(326,536,o),
(269,505,o),
(238,448,c),
(238,730,l),
(48,730,l),
(48,0,l),
(213,0,l),
(213,82,l),
(229,53,o),
(252,29,o),
(281,14,c),
(309,-2,o),
(343,-10,o),
(383,-10,cs)
);
},
{
closed = 1;
nodes = (
(311,150,o),
(294,155,o),
(279,164,cs),
(264,172,o),
(250,187,o),
(238,204,c),
(238,298,l),
(247,321,o),
(262,341,o),
(279,355,cs),
(296,369,o),
(316,376,o),
(336,376,cs),
(364,376,o),
(388,363,o),
(405,342,cs),
(421,321,o),
(432,292,o),
(432,260,cs),
(432,227,o),
(422,200,o),
(404,181,cs),
(386,161,o),
(359,150,o),
(328,150,cs)
);
}
);
width = 647;
},
{
layerId = "16C3235A-0965-4506-9E91-995A1F108181";
shapes = (
{
closed = 1;
nodes = (
(430,-10,o),
(490,20,o),
(534,68,cs),
(578,116,o),
(604,184,o),
(604,260,cs),
(604,333,o),
(581,403,o),
(541,452,cs),
(500,501,o),
(443,534,o),
(375,534,cs),
(294,534,o),
(232,495,o),
(195,432,c),
(195,730,l),
(61,730,l),
(61,0,l),
(178,0,l),
(178,91,l),
(195,60,o),
(220,34,o),
(252,17,cs),
(283,0,o),
(319,-10,o),
(359,-10,cs)
);
},
{
closed = 1;
nodes = (
(297,104,o),
(270,113,o),
(247,129,c),
(223,144,o),
(203,167,o),
(195,192,c),
(195,317,l),
(207,346,o),
(226,371,o),
(250,390,cs),
(273,409,o),
(299,419,o),
(330,419,cs),
(370,419,o),
(404,400,o),
(429,371,cs),
(453,342,o),
(467,301,o),
(467,260,cs),
(467,217,o),
(453,178,o),
(427,150,cs),
(401,121,o),
(363,104,o),
(322,104,cs)
);
}
);
width = 633;
},
{
layerId = "BB3EF6CB-1E12-4008-9D80-E52F161ACC69";
shapes = (
{
closed = 1;
nodes = (
(410,-10,o),
(471,21,o),
(515,70,cs),
(559,118,o),
(586,186,o),
(586,259,cs),
(586,330,o),
(563,398,o),
(523,448,cs),
(482,498,o),
(424,531,o),
(352,531,cs),
(267,531,o),
(203,486,o),
(159,418,c),
(159,730,l),
(71,730,l),
(71,0,l),
(149,0,l),
(149,98,l),
(168,66,o),
(195,39,o),
(228,20,cs),
(260,1,o),
(299,-10,o),
(339,-10,cs)
);
},
{
closed = 1;
nodes = (
(285,66,o),
(250,79,o),
(220,100,cs),
(190,120,o),
(166,149,o),
(159,182,c),
(159,333,l),
(175,366,o),
(197,397,o),
(226,419,cs),
(254,441,o),
(288,455,o),
(325,455,cs),
(376,455,o),
(419,431,o),
(449,395,cs),
(479,359,o),
(496,310,o),
(496,259,cs),
(496,210,o),
(478,161,o),
(446,125,cs),
(414,89,o),
(369,66,o),
(317,66,cs)
);
}
);
width = 623;
},
{
layerId = "3FABAEC4-ABD6-4E2D-B151-012D8FCAB9DA";
shapes = (
{
closed = 1;
nodes = (
(378,-10,o),
(440,22,o),
(485,71,cs),
(530,120,o),
(557,187,o),
(557,258,cs),
(557,322,o),
(534,389,o),
(494,441,cs),
(453,492,o),
(392,527,o),
(316,527,cs),
(224,527,o),
(157,474,o),
(104,398,c),
(104,730,l),
(84,730,l),
(84,0,l),
(104,0,l),
(104,108,l),
(124,75,o),
(155,45,o),
(191,24,cs),
(226,3,o),
(266,-10,o),
(307,-10,cs)
);
},
{
closed = 1;
nodes = (
(267,10,o),
(217,28,o),
(177,57,cs),
(137,85,o),
(107,124,o),
(104,167,c),
(104,356,l),
(124,396,o),
(152,433,o),
(188,461,cs),
(223,489,o),
(267,507,o),
(316,507,cs),
(381,507,o),
(436,477,o),
(476,431,cs),
(515,385,o),
(537,322,o),
(537,258,cs),
(537,197,o),
(513,135,o),
(473,88,cs),
(432,41,o),
(374,10,o),
(307,10,cs)
);
}
);
width = 603;
}
);
leftKerningGroup = b2;
rightKerningGroup = b;
unicode = 98;
},
{
glyphname = c;
layers = (
{
anchors = (
{
name = bottom;
position = "{307, 0}";
}
);
layerId = "6504B2D0-4073-42C8-9B7C-2A4329A12EFE";
shapes = (
{
closed = 1;
nodes = (
(416,-10,o),
(514,34,o),
(565,133,c),
(380,189,l),
(363,163,o),
(338,137,o),
(307,137,cs),
(244,137,o),
(214,206,o),
(214,263,cs),
(214,320,o),
(243,389,o),
(306,389,cs),
(338,389,o),
(363,362,o),
(380,337,c),
(565,393,l),
(522,477,o),
(436,536,o),
(312,536,cs),
(146,536,o),
(19,430,o),
(19,264,cs),
(19,97,o),
(147,-10,o),
(311,-10,cs)
);
}
);
width = 577;
},
{
anchors = (
{
name = bottom;
position = "{305, 0}";
}
);
layerId = "16C3235A-0965-4506-9E91-995A1F108181";
shapes = (
{
closed = 1;
nodes = (
(403,-10,o),
(499,35,o),
(543,126,c),
(412,166,l),
(393,126,o),
(345,96,o),
(300,96,cs),
(215,96,o),
(166,182,o),
(166,262,cs),
(166,343,o),
(216,428,o),
(303,428,cs),
(349,428,o),
(387,398,o),
(410,359,c),
(541,399,l),
(500,479,o),
(419,534,o),
(307,534,cs),
(147,534,o),
(28,422,o),
(28,264,cs),
(28,105,o),
(148,-10,o),
(305,-10,cs)
);
}
);
width = 564;
},
{
anchors = (
{
name = bottom;
position = "{302, 0}";
}
);
layerId = "BB3EF6CB-1E12-4008-9D80-E52F161ACC69";
shapes = (
{
closed = 1;
nodes = (
(393,-10,o),
(487,34,o),
(525,121,c),
(439,147,l),
(419,95,o),
(352,60,o),
(295,60,cs),
(196,60,o),
(126,164,o),
(126,264,cs),
(126,362,o),
(193,461,o),
(296,461,cs),
(358,461,o),
(408,426,o),
(435,377,c),
(521,404,l),
(482,481,o),
(405,531,o),
(303,531,cs),
(147,531,o),
(36,414,o),
(36,263,cs),
(36,111,o),
(149,-10,o),
(301,-10,cs)
);
}
);
width = 554;
},
{
anchors = (
{
name = bottom;
position = "{294, 0}";
}
);
layerId = "3FABAEC4-ABD6-4E2D-B151-012D8FCAB9DA";
shapes = (
{
closed = 1;
nodes = (
(375,-10,o),
(471,35,o),
(498,113,c),
(478,119,l),
(458,50,o),
(359,10,o),
(288,10,cs),
(162,10,o),
(66,137,o),
(66,265,cs),
(66,391,o),
(159,507,o),
(292,507,cs),
(369,507,o),
(436,468,o),
(471,404,c),
(491,411,l),
(456,484,o),
(384,527,o),
(296,527,cs),
(148,527,o),
(46,405,o),
(46,265,cs),
(46,123,o),
(151,-10,o),
(293,-10,cs)
);
}
);
width = 538;
}
);
leftKerningGroup = c2;
rightKerningGroup = c;
unicode = 99;
},
{
glyphname = d;
layers = (
{
layerId = "6504B2D0-4073-42C8-9B7C-2A4329A12EFE";
shapes = (
{
closed = 1;
nodes = (
(599,0,l),
(599,730,l),
(409,730,l),
(409,448,l),
(394,476,o),
(372,497,o),
(344,513,cs),
(316,528,o),
(284,536,o),
(249,536,cs),
(182,536,o),
(125,507,o),
(85,459,cs),
(44,410,o),
(20,341,o),
(20,264,cs),
(20,184,o),
(46,115,o),
(90,67,cs),
(134,18,o),
(196,-10,o),
(268,-10,cs),
(337,-10,o),
(379,16,o),
(410,69,c),
(410,0,l)
);
},
{
closed = 1;
nodes = (
(410,204,l),
(398,187,o),
(385,172,o),
(370,164,cs),
(354,155,o),
(338,150,o),
(319,150,cs),
(290,150,o),
(264,161,o),
(245,181,cs),
(226,200,o),
(216,227,o),
(216,260,cs),
(216,292,o),
(227,321,o),
(244,342,cs),
(260,362,o),
(284,376,o),
(311,376,cs),
(331,376,o),
(351,368,o),
(368,355,cs),
(385,342,o),
(401,322,o),
(410,298,c)
);
}
);
width = 647;
},
{
layerId = "16C3235A-0965-4506-9E91-995A1F108181";
shapes = (
{
closed = 1;
nodes = (
(574,0,l),
(574,730,l),
(440,730,l),
(440,432,l),
(423,461,o),
(398,487,o),
(367,505,cs),
(336,523,o),
(300,534,o),
(263,534,cs),
(195,534,o),
(136,503,o),
(95,454,cs),
(54,405,o),
(29,338,o),
(29,262,cs),
(29,186,o),
(55,117,o),
(99,69,cs),
(143,20,o),
(206,-10,o),
(278,-10,cs),
(351,-10,o),
(405,23,o),
(440,82,c),
(440,0,l)
);
},
{
closed = 1;
nodes = (
(440,193,l),
(432,168,o),
(413,144,o),
(390,129,cs),
(366,113,o),
(339,104,o),
(312,104,cs),
(272,104,o),
(236,121,o),
(210,149,cs),
(184,177,o),
(168,216,o),
(168,260,cs),
(168,301,o),
(182,342,o),
(206,371,cs),
(230,400,o),
(264,419,o),
(304,419,cs),
(332,419,o),
(360,409,o),
(385,391,cs),
(409,373,o),
(429,348,o),
(440,317,c)
);
}
);
width = 634;
},
{
layerId = "BB3EF6CB-1E12-4008-9D80-E52F161ACC69";
shapes = (
{
closed = 1;
nodes = (
(553,0,l),
(553,730,l),
(465,730,l),
(465,418,l),
(445,450,o),
(418,478,o),
(386,498,cs),
(353,518,o),
(316,531,o),
(273,531,cs),
(205,531,o),
(147,500,o),
(105,451,cs),
(63,402,o),
(37,335,o),
(37,260,cs),
(37,188,o),
(63,120,o),
(107,71,cs),
(151,22,o),
(214,-10,o),
(286,-10,cs),
(362,-10,o),
(426,29,o),
(465,92,c),
(465,0,l)
);
},
{
closed = 1;
nodes = (
(465,183,l),
(460,151,o),
(436,121,o),
(406,100,cs),
(376,79,o),
(339,66,o),
(307,66,cs),
(256,66,o),
(212,88,o),
(180,123,cs),
(148,158,o),
(128,207,o),
(128,259,cs),
(128,308,o),
(145,358,o),
(175,395,cs),
(205,431,o),
(247,455,o),
(298,455,cs),
(331,455,o),
(368,442,o),
(398,420,cs),
(428,398,o),
(453,368,o),
(465,333,c)
);
}
);
width = 624;
},
{
layerId = "3FABAEC4-ABD6-4E2D-B151-012D8FCAB9DA";
shapes = (
{
closed = 1;
nodes = (
(519,0,l),
(519,730,l),
(499,730,l),
(499,398,l),
(475,433,o),
(446,465,o),
(411,489,c),
(375,512,o),
(335,527,o),
(287,527,cs),
(218,527,o),
(158,495,o),
(115,446,cs),
(71,397,o),
(46,330,o),
(46,258,cs),
(46,191,o),
(72,125,o),
(117,74,cs),
(161,23,o),
(224,-10,o),
(296,-10,cs),
(376,-10,o),
(455,39,o),
(499,108,c),
(499,0,l)
);
},
{
closed = 1;
nodes = (
(499,169,l),
(498,126,o),
(467,86,o),
(427,58,cs),
(387,29,o),
(336,10,o),
(296,10,cs),
(232,10,o),
(174,40,o),
(133,86,cs),
(92,132,o),
(66,193,o),
(66,258,cs),
(66,321,o),
(87,382,o),
(126,429,cs),
(165,476,o),
(219,507,o),
(287,507,cs),
(330,507,o),
(375,490,o),
(414,463,cs),
(453,435,o),
(486,397,o),
(499,356,c)
);
}
);
width = 603;
}
);
leftKerningGroup = d2;
rightKerningGroup = d;
unicode = 100;
},
{
glyphname = e;
layers = (
{
anchors = (
{
name = bottom;
position = "{307, 0}";
}
);
layerId = "6504B2D0-4073-42C8-9B7C-2A4329A12EFE";
shapes = (
{
closed = 1;
nodes = (
(371,-10,o),
(426,5,o),
(470,30,cs),
(514,55,o),
(548,92,o),
(569,133,c),
(408,179,l),
(403,163,o),
(388,149,o),
(372,140,cs),
(355,131,o),
(333,126,o),
(313,126,cs),
(292,126,o),
(269,132,o),
(252,145,cs),
(235,157,o),
(224,177,o),
(221,205,c),
(590,205,l),
(593,221,o),
(595,243,o),
(595,263,cs),
(595,335,o),
(570,404,o),
(522,454,cs),
(473,504,o),
(402,536,o),
(307,536,cs),
(214,536,o),
(141,504,o),
(93,453,cs),
(44,402,o),
(19,332,o),
(19,256,cs),
(19,185,o),
(45,119,o),
(94,70,cs),
(142,21,o),
(215,-10,o),
(307,-10,cs)
);
},
{
closed = 1;
nodes = (
(217,319,l),
(220,344,o),
(230,366,o),
(245,380,cs),
(260,394,o),
(280,401,o),
(304,401,cs),
(328,401,o),
(348,394,o),
(364,380,cs),
(379,366,o),
(388,344,o),
(391,319,c)
);
}
);
width = 609;
},
{
anchors = (
{
name = bottom;
position = "{303, 0}";
}
);
layerId = "16C3235A-0965-4506-9E91-995A1F108181";
shapes = (
{
closed = 1;
nodes = (
(361,-10,o),
(413,5,o),
(455,29,cs),
(497,53,o),
(528,87,o),
(547,127,c),
(433,159,l),
(425,138,o),
(407,119,o),
(385,107,cs),
(363,95,o),
(335,87,o),
(308,87,cs),
(275,87,o),
(241,100,o),
(216,123,cs),
(191,146,o),
(174,179,o),
(171,219,c),
(575,219,l),
(576,230,o),
(578,247,o),
(578,264,cs),
(578,335,o),
(553,403,o),
(506,452,cs),
(459,501,o),
(390,534,o),
(305,534,cs),
(220,534,o),
(150,503,o),
(102,453,cs),
(54,403,o),
(28,333,o),
(28,258,cs),
(28,186,o),
(55,119,o),
(103,70,cs),
(150,21,o),
(218,-10,o),
(305,-10,cs)
);
},
{
closed = 1;
nodes = (
(167,304,l),
(171,343,o),
(187,377,o),
(211,400,cs),
(235,423,o),
(267,436,o),
(304,436,cs),
(340,436,o),
(372,423,o),
(397,400,cs),
(421,377,o),
(437,343,o),
(441,304,c)
);
}
);
width = 599;
},
{
anchors = (
{
name = bottom;
position = "{301, 0}";
}
);
layerId = "BB3EF6CB-1E12-4008-9D80-E52F161ACC69";
shapes = (
{
closed = 1;
nodes = (
(354,-10,o),
(403,4,o),
(443,28,cs),
(482,51,o),
(513,83,o),
(530,122,c),
(454,143,l),
(443,118,o),
(422,95,o),
(395,80,cs),
(368,65,o),
(337,56,o),
(305,56,cs),
(260,56,o),
(218,74,o),
(186,105,cs),
(154,136,o),
(133,179,o),
(129,231,c),
(562,231,l),
(563,238,o),
(564,250,o),
(564,265,cs),
(564,336,o),
(538,402,o),
(493,451,cs),
(448,499,o),
(382,531,o),
(303,531,cs),
(224,531,o),
(158,500,o),
(111,451,cs),
(63,402,o),
(36,334,o),
(36,261,cs),
(36,188,o),
(63,119,o),
(110,70,cs),
(157,21,o),
(223,-10,o),
(302,-10,cs)
);
},
{
closed = 1;
nodes = (
(126,292,l),
(130,343,o),
(150,385,o),
(182,416,cs),
(214,447,o),
(256,465,o),
(303,465,cs),
(350,465,o),
(392,448,o),
(424,417,cs),
(456,386,o),
(478,343,o),
(482,292,c)
);
}
);
width = 591;
},
{
anchors = (
{
name = bottom;
position = "{296, 0}";
}
);
layerId = "3FABAEC4-ABD6-4E2D-B151-012D8FCAB9DA";
shapes = (
{
closed = 1;
nodes = (
(341,-10,o),
(386,4,o),
(423,26,cs),
(459,48,o),
(489,78,o),
(502,114,c),
(483,119,l),
(468,87,o),
(442,60,o),
(409,41,cs),
(376,21,o),
(337,10,o),
(297,10,cs),
(237,10,o),
(181,36,o),
(140,79,cs),
(99,122,o),
(71,181,o),
(66,248,c),
(541,248,l),
(541,252,o),
(541,255,o),
(541,259,cs),
(541,334,o),
(512,401,o),
(468,449,cs),
(423,497,o),
(360,527,o),
(291,527,cs),
(223,527,o),
(162,498,o),
(118,450,cs),
(73,402,o),
(46,336,o),
(46,263,cs),
(46,188,o),
(75,121,o),
(120,71,cs),
(165,21,o),
(228,-10,o),
(296,-10,cs)
);
},
{
closed = 1;
nodes = (
(66,268,l),
(70,336,o),
(95,396,o),
(136,439,cs),
(176,482,o),
(231,507,o),
(292,507,cs),
(353,507,o),
(408,482,o),
(449,440,cs),
(489,398,o),
(516,337,o),
(520,268,c)
);
}
);
width = 576;
}
);
leftKerningGroup = c2;
rightKerningGroup = e;
unicode = 101;
},
{
glyphname = f;
layers = (
{
layerId = "6504B2D0-4073-42C8-9B7C-2A4329A12EFE";
shapes = (
{
closed = 1;
nodes = (
(275,0,l),
(275,322,l),
(390,322,l),
(390,465,l),
(275,465,l),
(275,529,ls),
(275,564,o),
(290,580,o),
(321,580,cs),
(341,580,o),
(369,574,o),
(392,566,c),
(424,710,l),
(371,730,o),
(323,740,o),
(278,740,cs),
(221,740,o),
(171,719,o),
(138,681,cs),
(105,643,o),
(85,589,o),
(85,522,cs),
(85,465,l),
(20,465,l),
(20,322,l),
(85,322,l),
(85,0,l)
);
}
);
width = 402;
},
{
layerId = "16C3235A-0965-4506-9E91-995A1F108181";
shapes = (
{
closed = 1;
nodes = (
(227,0,l),
(227,394,l),
(355,394,l),
(355,496,l),
(227,496,l),
(227,533,ls),
(227,594,o),
(250,627,o),
(297,627,cs),
(320,627,o),
(349,620,o),
(370,608,c),
(397,709,l),
(356,729,o),
(311,740,o),
(268,740,cs),
(215,740,o),
(171,719,o),
(141,683,cs),
(111,646,o),
(93,593,o),
(93,528,cs),
(93,496,l),
(25,496,l),
(25,394,l),
(93,394,l),
(93,0,l)
);
}
);
width = 370;
},
{
layerId = "BB3EF6CB-1E12-4008-9D80-E52F161ACC69";
shapes = (
{
closed = 1;
nodes = (
(187,0,l),
(187,453,l),
(326,453,l),
(326,522,l),
(187,522,l),
(187,536,ls),
(187,620,o),
(218,665,o),
(277,665,cs),
(304,665,o),
(333,656,o),
(352,643,c),
(374,708,l),
(342,728,o),
(300,740,o),
(259,740,cs),
(210,740,o),
(170,720,o),
(142,685,cs),
(114,649,o),
(99,597,o),
(99,533,cs),
(99,522,l),
(28,522,l),
(28,453,l),
(99,453,l),
(99,0,l)
);
}
);
width = 343;
},
{
layerId = "3FABAEC4-ABD6-4E2D-B151-012D8FCAB9DA";
shapes = (
{
closed = 1;
nodes = (
(123,0,l),
(123,499,l),
(278,499,l),
(278,519,l),
(123,519,l),
(123,540,ls),
(123,657,o),
(165,721,o),
(241,721,cs),
(272,721,o),
(303,710,o),
(319,694,c),
(335,706,l),
(316,726,o),
(279,740,o),
(240,740,cs),
(197,740,o),
(163,722,o),
(140,688,cs),
(116,654,o),
(103,603,o),
(103,540,cs),
(103,519,l),
(28,519,l),
(28,499,l),
(103,499,l),
(103,0,l)
);
}
);
width = 299;
}
);
leftKerningGroup = f2;
rightKerningGroup = f;
unicode = 102;
},
{
glyphname = g;
layers = (
{
layerId = "6504B2D0-4073-42C8-9B7C-2A4329A12EFE";
shapes = (
{
closed = 1;
nodes = (
(318,0,o),
(378,26,o),
(409,82,c),
(409,48,ls),
(409,1,o),
(394,-32,o),
(370,-53,cs),
(346,-73,o),
(314,-82,o),
(279,-82,cs),
(218,-82,o),
(162,-54,o),
(123,-18,c),
(23,-122,l),
(87,-187,o),
(168,-223,o),
(279,-223,cs),
(375,-223,o),
(455,-196,o),
(511,-149,cs),
(567,-102,o),
(599,-35,o),
(599,48,cs),
(599,526,l),
(434,526,l),
(434,448,l),
(418,476,o),
(394,498,o),
(366,514,c),
(337,529,o),
(303,536,o),
(266,536,cs),
(194,536,o),
(133,507,o),
(90,459,cs),
(46,411,o),
(21,343,o),
(21,264,cs),
(21,189,o),
(44,124,o),
(84,77,cs),
(124,29,o),
(182,0,o),
(250,0,cs)
);
},
{
closed = 1;
nodes = (
(289,150,o),
(263,161,o),
(244,180,cs),
(225,199,o),
(215,227,o),
(215,259,cs),
(215,291,o),
(226,321,o),
(243,342,cs),
(259,362,o),
(283,376,o),
(310,376,cs),
(330,376,o),
(350,368,o),
(367,355,cs),
(384,342,o),
(400,322,o),
(409,298,c),
(409,204,l),
(397,187,o),
(384,172,o),
(369,164,cs),
(353,155,o),
(337,150,o),
(318,150,cs)
);
}
);
width = 647;
},
{
layerId = "16C3235A-0965-4506-9E91-995A1F108181";
shapes = (
{
closed = 1;
nodes = (
(337,-3,o),
(404,31,o),
(440,91,c),
(440,25,ls),
(440,-26,o),
(421,-63,o),
(393,-87,cs),
(365,-111,o),
(325,-122,o),
(284,-122,cs),
(215,-122,o),
(151,-92,o),
(111,-43,c),
(38,-114,l),
(94,-182,o),
(168,-223,o),
(284,-223,cs),
(367,-223,o),
(440,-200,o),
(492,-157,cs),
(543,-114,o),
(574,-54,o),
(574,25,cs),
(574,524,l),
(457,524,l),
(457,432,l),
(438,461,o),
(412,488,o),
(381,506,cs),
(350,524,o),
(314,534,o),
(274,534,cs),
(202,534,o),
(141,503,o),
(98,455,cs),
(55,406,o),
(30,337,o),
(30,262,cs),
(30,190,o),
(54,124,o),
(96,76,cs),
(138,28,o),
(197,-3,o),
(266,-3,cs)
);
},
{
closed = 1;
nodes = (
(271,104,o),
(235,121,o),
(209,149,cs),
(183,176,o),
(167,215,o),
(167,259,cs),
(167,299,o),
(181,341,o),
(205,370,cs),
(228,399,o),
(263,419,o),
(303,419,cs),
(332,419,o),
(359,410,o),
(384,391,cs),
(408,372,o),
(428,348,o),
(440,317,c),
(440,193,l),
(431,169,o),
(413,146,o),
(390,130,cs),
(367,114,o),
(340,104,o),
(311,104,cs)
);
}
);
width = 634;
},
{
layerId = "BB3EF6CB-1E12-4008-9D80-E52F161ACC69";
shapes = (
{
closed = 1;
nodes = (
(354,-6,o),
(426,34,o),
(465,98,c),
(465,6,ls),
(465,-49,o),
(444,-88,o),
(412,-115,cs),
(380,-142,o),
(335,-155,o),
(287,-155,cs),
(211,-155,o),
(142,-124,o),
(101,-63,c),
(50,-108,l),
(99,-179,o),
(170,-223,o),
(287,-223,cs),
(362,-223,o),
(428,-203,o),
(476,-164,cs),
(524,-125,o),
(553,-69,o),
(553,6,cs),
(553,522,l),
(475,522,l),
(475,418,l),
(454,450,o),
(426,479,o),
(394,499,cs),
(361,519,o),
(324,531,o),
(280,531,cs),
(208,531,o),
(148,500,o),
(105,451,cs),
(62,402,o),
(38,333,o),
(38,260,cs),
(38,191,o),
(62,124,o),
(105,75,cs),
(148,26,o),
(208,-6,o),
(279,-6,cs)
);
},
{
closed = 1;
nodes = (
(257,66,o),
(211,88,o),
(179,123,cs),
(147,158,o),
(127,206,o),
(127,258,cs),
(127,306,o),
(144,356,o),
(173,393,cs),
(202,430,o),
(245,455,o),
(298,455,cs),
(333,455,o),
(368,443,o),
(397,421,cs),
(426,399,o),
(452,369,o),
(465,333,c),
(465,183,l),
(458,154,o),
(437,125,o),
(408,103,cs),
(379,81,o),
(343,66,o),
(306,66,cs)
);
}
);
width = 624;
},
{
layerId = "3FABAEC4-ABD6-4E2D-B151-012D8FCAB9DA";
shapes = (
{
closed = 1;
nodes = (
(376,-10,o),
(455,39,o),
(499,108,c),
(499,-22,ls),
(499,-82,o),
(476,-126,o),
(438,-157,cs),
(400,-188,o),
(347,-203,o),
(290,-203,cs),
(206,-203,o),
(127,-172,o),
(84,-93,c),
(65,-99,l),
(104,-174,o),
(167,-223,o),
(290,-223,cs),
(349,-223,o),
(406,-207,o),
(449,-174,cs),
(492,-141,o),
(519,-90,o),
(519,-22,cs),
(519,519,l),
(499,519,l),
(499,398,l),
(474,434,o),
(445,466,o),
(410,490,c),
(374,513,o),
(334,527,o),
(287,527,cs),
(216,527,o),
(156,495,o),
(113,445,cs),
(70,395,o),
(46,327,o),
(46,258,cs),
(46,191,o),
(72,125,o),
(117,74,cs),
(161,23,o),
(224,-10,o),
(296,-10,cs)
);
},
{
closed = 1;
nodes = (
(232,10,o),
(174,40,o),
(133,86,cs),
(92,132,o),
(66,193,o),
(66,258,cs),
(66,317,o),
(87,379,o),
(124,427,cs),
(161,474,o),
(218,507,o),
(287,507,cs),
(331,507,o),
(377,491,o),
(414,464,cs),
(451,437,o),
(483,400,o),
(499,356,c),
(499,169,l),
(496,132,o),
(469,93,o),
(432,62,cs),
(395,31,o),
(345,10,o),
(296,10,cs)
);
}
);
width = 603;
}
);
leftKerningGroup = d2;
rightKerningGroup = g;
unicode = 103;
},
{
glyphname = h;
layers = (
{
layerId = "6504B2D0-4073-42C8-9B7C-2A4329A12EFE";
shapes = (
{
closed = 1;
nodes = (
(577,346,ls),
(577,385,o),
(573,432,o),
(550,470,cs),
(527,508,o),
(487,536,o),
(412,536,cs),
(375,536,o),
(341,529,o),
(311,514,cs),
(281,499,o),
(257,477,o),
(238,448,c),
(238,730,l),
(48,730,l),
(48,0,l),
(238,0,l),
(238,295,l),
(247,318,o),
(263,337,o),
(280,350,cs),
(296,363,o),
(314,370,o),
(326,370,cs),
(361,370,o),
(387,348,o),
(387,296,cs),
(387,0,l),
(577,0,l)
);
}
);
width = 621;
},
{
layerId = "16C3235A-0965-4506-9E91-995A1F108181";
shapes = (
{
closed = 1;
nodes = (
(548,328,ls),
(548,379,o),
(540,430,o),
(516,469,cs),
(492,508,o),
(451,534,o),
(383,534,cs),
(343,534,o),
(307,525,o),
(274,506,cs),
(241,487,o),
(215,460,o),
(195,427,c),
(195,730,l),
(61,730,l),
(61,0,l),
(195,0,l),
(195,306,l),
(206,338,o),
(226,365,o),
(250,385,cs),
(274,404,o),
(302,415,o),
(326,415,cs),
(381,415,o),
(414,377,o),
(414,294,cs),
(414,0,l),
(548,0,l)
);
}
);
width = 604;
},
{
layerId = "BB3EF6CB-1E12-4008-9D80-E52F161ACC69";
shapes = (
{
closed = 1;
nodes = (
(524,312,ls),
(524,375,o),
(513,429,o),
(488,468,cs),
(463,507,o),
(422,531,o),
(359,531,cs),
(317,531,o),
(278,520,o),
(243,499,cs),
(208,478,o),
(180,448,o),
(159,410,c),
(159,730,l),
(71,730,l),
(71,0,l),
(159,0,l),
(159,315,l),
(171,355,o),
(196,389,o),
(226,413,cs),
(256,437,o),
(291,452,o),
(326,452,cs),
(398,452,o),
(436,400,o),
(436,292,cs),
(436,0,l),
(524,0,l)
);
}
);
width = 590;
},
{
layerId = "3FABAEC4-ABD6-4E2D-B151-012D8FCAB9DA";
shapes = (
{
closed = 1;
nodes = (
(487,289,ls),
(487,368,o),
(473,427,o),
(445,467,cs),
(417,507,o),
(377,527,o),
(322,527,cs),
(277,527,o),
(235,514,o),
(196,489,cs),
(156,463,o),
(125,428,o),
(104,385,c),
(104,730,l),
(84,730,l),
(84,0,l),
(104,0,l),
(104,328,l),
(117,379,o),
(148,423,o),
(188,455,cs),
(227,487,o),
(275,507,o),
(323,507,cs),
(419,507,o),
(467,434,o),
(467,289,cs),
(467,0,l),
(487,0,l)
);
}
);
width = 565;
}
);
leftKerningGroup = b2;
rightKerningGroup = h;
unicode = 104;
},
{
glyphname = k;
layers = (
{
layerId = "6504B2D0-4073-42C8-9B7C-2A4329A12EFE";
shapes = (
{
closed = 1;
nodes = (
(596,0,l),
(397,296,l),
(578,526,l),
(378,526,l),
(238,331,l),
(238,730,l),
(48,730,l),
(48,0,l),
(238,0,l),
(238,150,l),
(276,192,l),
(395,0,l)
);
}
);
width = 582;
},
{
layerId = "16C3235A-0965-4506-9E91-995A1F108181";
shapes = (
{
closed = 1;
nodes = (
(562,0,l),
(352,301,l),
(548,524,l),
(406,524,l),
(195,289,l),
(195,730,l),
(61,730,l),
(61,0,l),
(195,0,l),
(195,156,l),
(266,226,l),
(419,0,l)
);
}
);
width = 558;
},
{
layerId = "BB3EF6CB-1E12-4008-9D80-E52F161ACC69";
shapes = (
{
closed = 1;
nodes = (
(534,0,l),
(316,305,l),
(524,521,l),
(429,521,l),
(159,253,l),
(159,730,l),
(71,730,l),
(71,0,l),
(159,0,l),
(159,161,l),
(258,254,l),
(439,0,l)
);
}
);
width = 539;
},
{
layerId = "3FABAEC4-ABD6-4E2D-B151-012D8FCAB9DA";
shapes = (
{
closed = 1;
nodes = (
(490,0,l),
(260,311,l),
(485,517,l),
(458,517,l),
(104,196,l),
(104,730,l),
(84,730,l),
(84,0,l),
(104,0,l),
(104,169,l),
(245,297,l),
(466,0,l)
);
}
);
width = 508;
}
);
leftKerningGroup = b2;
rightKerningGroup = k;
unicode = 107;
},
{
glyphname = l;
layers = (
{
layerId = "6504B2D0-4073-42C8-9B7C-2A4329A12EFE";
shapes = (
{
closed = 1;
nodes = (
(44,142,ls),
(44,43,o),
(101,-10,o),
(202,-10,cs),
(253,-10,o),
(314,3,o),
(359,24,c),
(335,164,l),
(319,155,o),
(299,149,o),
(283,149,cs),
(267,149,o),
(255,155,o),
(247,165,cs),
(238,175,o),
(234,189,o),
(234,209,cs),
(234,730,l),
(44,730,l)
);
}
);
width = 355;
},
{
layerId = "16C3235A-0965-4506-9E91-995A1F108181";
shapes = (
{
closed = 1;
nodes = (
(60,120,ls),
(60,39,o),
(108,-9,o),
(192,-9,cs),
(232,-9,o),
(284,3,o),
(320,18,c),
(302,122,l),
(285,114,o),
(261,107,o),
(238,107,cs),
(226,107,o),
(214,110,o),
(206,119,cs),
(198,128,o),
(194,143,o),
(194,168,cs),
(194,730,l),
(60,730,l)
);
}
);
width = 317;
},
{
layerId = "BB3EF6CB-1E12-4008-9D80-E52F161ACC69";
shapes = (
{
closed = 1;
nodes = (
(73,103,ls),
(73,34,o),
(115,-7,o),
(183,-7,cs),
(214,-7,o),
(259,2,o),
(288,14,c),
(274,86,l),
(257,79,o),
(230,72,o),
(202,72,cs),
(190,72,o),
(180,73,o),
(173,82,c),
(165,90,o),
(161,106,o),
(161,135,cs),
(161,730,l),
(73,730,l)
);
}
);
width = 286;
},
{
layerId = "3FABAEC4-ABD6-4E2D-B151-012D8FCAB9DA";
shapes = (
{
closed = 1;
nodes = (
(90,77,ls),
(90,28,o),
(122,-5,o),
(169,-5,cs),
(188,-5,o),
(219,0,o),
(238,7,c),
(231,23,l),
(214,18,o),
(191,14,o),
(176,14,cs),
(156,14,o),
(140,20,o),
(128,31,cs),
(116,42,o),
(110,57,o),
(110,77,cs),
(110,730,l),
(90,730,l)
);
}
);
width = 238;
}
);
leftKerningGroup = l2;
rightKerningGroup = l;
unicode = 108;
},
{
glyphname = m;
layers = (
{
layerId = "6504B2D0-4073-42C8-9B7C-2A4329A12EFE";
shapes = (
{
closed = 1;
nodes = (
(896,346,ls),
(896,382,o),
(891,429,o),
(870,468,cs),
(849,507,o),
(810,536,o),
(741,536,cs),
(658,536,o),
(591,502,o),
(554,445,c),
(547,468,o),
(532,489,o),
(510,508,cs),
(488,527,o),
(455,536,o),
(412,536,cs),
(323,536,o),
(256,505,o),
(219,448,c),
(219,526,l),
(48,526,l),
(48,0,l),
(238,0,l),
(238,295,l),
(246,318,o),
(260,336,o),
(276,349,cs),
(292,362,o),
(309,370,o),
(324,370,cs),
(353,370,o),
(377,348,o),
(377,296,cs),
(377,0,l),
(567,0,l),
(567,295,l),
(575,318,o),
(589,336,o),
(605,349,cs),
(621,362,o),
(638,370,o),
(653,370,cs),
(682,370,o),
(706,348,o),
(706,296,cs),
(706,0,l),
(896,0,l)
);
}
);
width = 940;
},
{
layerId = "16C3235A-0965-4506-9E91-995A1F108181";
shapes = (
{
closed = 1;
nodes = (
(875,328,ls),
(875,377,o),
(868,429,o),
(845,468,cs),
(822,507,o),
(783,534,o),
(718,534,cs),
(634,534,o),
(568,495,o),
(525,422,c),
(518,453,o),
(503,480,o),
(479,502,cs),
(455,523,o),
(421,534,o),
(378,534,cs),
(290,534,o),
(222,495,o),
(181,427,c),
(181,524,l),
(61,524,l),
(61,0,l),
(195,0,l),
(195,306,l),
(206,338,o),
(224,365,o),
(246,385,cs),
(268,404,o),
(294,415,o),
(319,415,cs),
(371,415,o),
(401,379,o),
(401,294,cs),
(401,0,l),
(535,0,l),
(535,305,l),
(544,337,o),
(562,365,o),
(585,385,cs),
(608,404,o),
(633,415,o),
(660,415,cs),
(711,415,o),
(741,378,o),
(741,294,cs),
(741,0,l),
(875,0,l)
);
}
);
width = 931;
},
{
layerId = "BB3EF6CB-1E12-4008-9D80-E52F161ACC69";
shapes = (
{
closed = 1;
nodes = (
(858,312,ls),
(858,375,o),
(848,429,o),
(824,469,cs),
(800,508,o),
(760,531,o),
(700,531,cs),
(615,531,o),
(548,488,o),
(501,404,c),
(495,441,o),
(479,472,o),
(453,496,cs),
(427,519,o),
(392,531,o),
(349,531,cs),
(264,531,o),
(194,487,o),
(151,410,c),
(151,522,l),
(71,522,l),
(71,0,l),
(159,0,l),
(159,315,l),
(171,356,o),
(193,390,o),
(221,414,cs),
(248,438,o),
(281,452,o),
(316,452,cs),
(385,452,o),
(420,404,o),
(420,292,cs),
(420,0,l),
(508,0,l),
(508,314,l),
(520,354,o),
(541,389,o),
(569,414,cs),
(596,438,o),
(629,452,o),
(665,452,cs),
(734,452,o),
(770,401,o),
(770,292,cs),
(770,0,l),
(858,0,l)
);
}
);
width = 924;
},
{
layerId = "3FABAEC4-ABD6-4E2D-B151-012D8FCAB9DA";
shapes = (
{
closed = 1;
nodes = (
(830,289,ls),
(830,369,o),
(818,429,o),
(791,469,cs),
(764,508,o),
(726,527,o),
(671,527,cs),
(583,527,o),
(515,477,o),
(463,376,c),
(458,422,o),
(442,459,o),
(413,486,cs),
(384,513,o),
(348,527,o),
(305,527,cs),
(222,527,o),
(149,476,o),
(104,385,c),
(104,519,l),
(84,519,l),
(84,0,l),
(104,0,l),
(104,328,l),
(119,381,o),
(146,426,o),
(182,458,cs),
(217,489,o),
(261,507,o),
(309,507,cs),
(405,507,o),
(447,440,o),
(447,289,cs),
(447,0,l),
(467,0,l),
(467,327,l),
(482,379,o),
(507,424,o),
(543,456,cs),
(578,488,o),
(622,507,o),
(671,507,cs),
(767,507,o),
(810,438,o),
(810,289,cs),
(810,0,l),
(830,0,l)
);
}
);
width = 908;
}
);
leftKerningGroup = m2;
rightKerningGroup = m;
unicode = 109;
},
{
glyphname = n;
layers = (
{
layerId = "6504B2D0-4073-42C8-9B7C-2A4329A12EFE";
shapes = (
{
closed = 1;
nodes = (
(577,346,ls),
(577,382,o),
(573,429,o),
(551,468,cs),
(529,507,o),
(489,536,o),
(417,536,cs),
(372,536,o),
(331,529,o),
(298,514,cs),
(265,498,o),
(238,476,o),
(219,448,c),
(219,526,l),
(48,526,l),
(48,0,l),
(238,0,l),
(238,295,l),
(246,318,o),
(261,336,o),
(278,349,cs),
(294,362,o),
(313,370,o),
(329,370,cs),
(360,370,o),
(387,348,o),
(387,296,cs),
(387,0,l),
(577,0,l)
);
}
);
width = 621;
},
{
layerId = "16C3235A-0965-4506-9E91-995A1F108181";
shapes = (
{
closed = 1;
nodes = (
(548,328,ls),
(548,377,o),
(541,429,o),
(518,468,cs),
(495,507,o),
(455,534,o),
(390,534,cs),
(345,534,o),
(302,524,o),
(267,505,cs),
(231,486,o),
(201,460,o),
(181,427,c),
(181,524,l),
(61,524,l),
(61,0,l),
(195,0,l),
(195,306,l),
(206,338,o),
(226,365,o),
(251,385,cs),
(275,404,o),
(304,415,o),
(331,415,cs),
(383,415,o),
(414,379,o),
(414,294,cs),
(414,0,l),
(548,0,l)
);
}
);
width = 604;
},
{
layerId = "BB3EF6CB-1E12-4008-9D80-E52F161ACC69";
shapes = (
{
closed = 1;
nodes = (
(524,312,ls),
(524,375,o),
(515,430,o),
(491,469,cs),
(467,508,o),
(428,531,o),
(368,531,cs),
(323,531,o),
(279,519,o),
(241,498,cs),
(203,477,o),
(171,446,o),
(151,410,c),
(151,522,l),
(71,522,l),
(71,0,l),
(159,0,l),
(159,315,l),
(171,355,o),
(196,389,o),
(228,413,cs),
(260,437,o),
(297,452,o),
(333,452,cs),
(402,452,o),
(436,404,o),
(436,292,cs),
(436,0,l),
(524,0,l)
);
}
);
width = 590;
},
{
layerId = "3FABAEC4-ABD6-4E2D-B151-012D8FCAB9DA";
shapes = (
{
closed = 1;
nodes = (
(487,289,ls),
(487,370,o),
(475,430,o),
(450,469,cs),
(425,508,o),
(386,527,o),
(333,527,cs),
(286,527,o),
(240,512,o),
(200,488,cs),
(160,463,o),
(125,428,o),
(104,385,c),
(104,519,l),
(84,519,l),
(84,0,l),
(104,0,l),
(104,328,l),
(119,379,o),
(151,424,o),
(192,456,cs),
(233,488,o),
(285,507,o),
(334,507,cs),
(427,507,o),
(467,441,o),
(467,289,cs),
(467,0,l),
(487,0,l)
);
}
);
width = 565;
}
);
leftKerningGroup = m2;
rightKerningGroup = m;
unicode = 110;
},
{
glyphname = o;
layers = (
{
layerId = "6504B2D0-4073-42C8-9B7C-2A4329A12EFE";
shapes = (
{
closed = 1;
nodes = (
(470,-10,o),
(595,95,o),
(595,264,cs),
(595,432,o),
(471,536,o),
(307,536,cs),
(143,536,o),
(19,431,o),
(19,264,cs),
(19,96,o),
(145,-10,o),
(308,-10,cs)
);
},
{
closed = 1;
nodes = (
(214,320,o),
(244,389,o),
(308,389,cs),
(371,389,o),
(400,320,o),
(400,263,cs),
(400,206,o),
(370,137,o),
(308,137,cs),
(245,137,o),
(214,207,o),
(214,264,cs)
);
}
);
width = 614;
},
{
layerId = "16C3235A-0965-4506-9E91-995A1F108181";
shapes = (
{
closed = 1;
nodes = (
(460,-10,o),
(578,103,o),
(578,262,cs),
(578,421,o),
(460,534,o),
(304,534,cs),
(146,534,o),
(28,418,o),
(28,262,cs),
(28,106,o),
(146,-10,o),
(304,-10,cs)
);
},
{
closed = 1;
nodes = (
(166,340,o),
(217,428,o),
(305,428,cs),
(390,428,o),
(440,344,o),
(440,263,cs),
(440,181,o),
(390,96,o),
(303,96,cs),
(216,96,o),
(166,182,o),
(166,261,cs)
);
}
);
width = 606;
},
{
layerId = "BB3EF6CB-1E12-4008-9D80-E52F161ACC69";
shapes = (
{
closed = 1;
nodes = (
(451,-10,o),
(563,110,o),
(563,260,cs),
(563,410,o),
(451,531,o),
(301,531,cs),
(149,531,o),
(36,408,o),
(36,259,cs),
(36,111,o),
(148,-10,o),
(300,-10,cs)
);
},
{
closed = 1;
nodes = (
(126,357,o),
(194,461,o),
(300,461,cs),
(404,461,o),
(473,360,o),
(473,262,cs),
(473,163,o),
(404,60,o),
(299,60,cs),
(195,60,o),
(126,161,o),
(126,259,cs)
);
}
);
width = 599;
},
{
layerId = "3FABAEC4-ABD6-4E2D-B151-012D8FCAB9DA";
shapes = (
{
closed = 1;
nodes = (
(436,-10,o),
(540,121,o),
(540,258,cs),
(540,395,o),
(437,527,o),
(294,527,cs),
(151,527,o),
(46,394,o),
(46,258,cs),
(46,122,o),
(151,-10,o),
(294,-10,cs)
);
},
{
closed = 1;
nodes = (
(66,382,o),
(160,507,o),
(293,507,cs),
(424,507,o),
(520,384,o),
(520,258,cs),
(520,133,o),
(425,10,o),
(292,10,cs),
(161,10,o),
(66,131,o),
(66,257,cs)
);
}
);
width = 586;
}
);
leftKerningGroup = c2;
rightKerningGroup = o;
unicode = 111;
},
{
glyphname = p;
layers = (
{
layerId = "6504B2D0-4073-42C8-9B7C-2A4329A12EFE";
shapes = (
{
closed = 1;
nodes = (
(466,-10,o),
(522,20,o),
(562,69,cs),
(602,117,o),
(626,186,o),
(626,265,cs),
(626,344,o),
(600,411,o),
(557,459,cs),
(514,507,o),
(454,536,o),
(383,536,cs),
(303,536,o),
(250,504,o),
(213,447,c),
(213,526,l),
(48,526,l),
(48,-213,l),
(238,-213,l),
(238,78,l),
(253,50,o),
(275,28,o),
(303,13,cs),
(331,-3,o),
(365,-10,o),
(402,-10,cs)
);
},
{
closed = 1;
nodes = (
(316,150,o),
(296,158,o),
(279,173,cs),
(262,188,o),
(247,208,o),
(238,231,c),
(238,322,l),
(250,341,o),
(264,354,o),
(279,363,cs),
(294,371,o),
(311,376,o),
(328,376,cs),
(359,376,o),
(386,365,o),
(404,346,cs),
(422,326,o),
(432,299,o),
(432,266,cs),
(432,234,o),
(421,205,o),
(405,184,cs),
(388,163,o),
(364,150,o),
(336,150,cs)
);
}
);
width = 647;
},
{
layerId = "16C3235A-0965-4506-9E91-995A1F108181";
shapes = (
{
closed = 1;
nodes = (
(442,-10,o),
(499,20,o),
(540,69,cs),
(580,117,o),
(604,187,o),
(604,263,cs),
(604,336,o),
(578,405,o),
(535,454,cs),
(491,502,o),
(430,534,o),
(359,534,cs),
(279,534,o),
(218,495,o),
(178,434,c),
(178,524,l),
(61,524,l),
(61,-213,l),
(195,-213,l),
(195,92,l),
(212,61,o),
(236,36,o),
(267,18,cs),
(298,-1,o),
(334,-10,o),
(375,-10,cs)
);
},
{
closed = 1;
nodes = (
(301,104,o),
(274,116,o),
(251,134,cs),
(227,152,o),
(207,179,o),
(195,208,c),
(195,331,l),
(203,356,o),
(223,379,o),
(247,395,cs),
(270,410,o),
(297,419,o),
(322,419,cs),
(363,419,o),
(400,402,o),
(426,374,cs),
(452,346,o),
(467,307,o),
(467,264,cs),
(467,221,o),
(453,183,o),
(429,153,cs),
(405,123,o),
(371,104,o),
(330,104,cs)
);
}
);
width = 633;
},
{
layerId = "BB3EF6CB-1E12-4008-9D80-E52F161ACC69";
shapes = (
{
closed = 1;
nodes = (
(421,-10,o),
(480,21,o),
(521,70,cs),
(562,118,o),
(586,186,o),
(586,261,cs),
(586,332,o),
(560,400,o),
(516,450,cs),
(472,500,o),
(411,531,o),
(339,531,cs),
(259,531,o),
(190,488,o),
(149,424,c),
(149,522,l),
(71,522,l),
(71,-213,l),
(159,-213,l),
(159,103,l),
(179,71,o),
(205,42,o),
(238,22,cs),
(270,2,o),
(309,-10,o),
(352,-10,cs)
);
},
{
closed = 1;
nodes = (
(289,66,o),
(255,80,o),
(227,102,cs),
(198,124,o),
(174,154,o),
(159,189,c),
(159,338,l),
(166,370,o),
(190,400,o),
(220,421,cs),
(250,441,o),
(285,455,o),
(317,455,cs),
(368,455,o),
(412,433,o),
(444,398,cs),
(476,362,o),
(496,313,o),
(496,261,cs),
(496,212,o),
(480,163,o),
(450,127,cs),
(420,90,o),
(377,66,o),
(325,66,cs)
);
}
);
width = 623;
},
{
layerId = "3FABAEC4-ABD6-4E2D-B151-012D8FCAB9DA";
shapes = (
{
closed = 1;
nodes = (
(388,-10,o),
(449,22,o),
(491,71,cs),
(533,120,o),
(557,187,o),
(557,258,cs),
(557,325,o),
(531,391,o),
(487,442,cs),
(443,493,o),
(380,527,o),
(307,527,cs),
(227,527,o),
(148,478,o),
(104,409,c),
(104,519,l),
(84,519,l),
(84,-213,l),
(104,-213,l),
(104,119,l),
(127,84,o),
(156,52,o),
(192,29,cs),
(228,5,o),
(271,-10,o),
(316,-10,cs)
);
},
{
closed = 1;
nodes = (
(271,10,o),
(226,27,o),
(190,54,cs),
(153,81,o),
(123,120,o),
(104,161,c),
(104,348,l),
(107,389,o),
(137,430,o),
(177,459,cs),
(217,488,o),
(267,507,o),
(307,507,cs),
(371,507,o),
(429,478,o),
(470,432,cs),
(511,386,o),
(537,323,o),
(537,258,cs),
(537,197,o),
(516,135,o),
(477,88,cs),
(438,41,o),
(384,10,o),
(316,10,cs)
);
}
);
width = 603;
}
);
leftKerningGroup = m2;
rightKerningGroup = b;
unicode = 112;
},
{
glyphname = q;
layers = (
{
layerId = "6504B2D0-4073-42C8-9B7C-2A4329A12EFE";
shapes = (
{
closed = 1;
nodes = (
(321,-10,o),
(378,21,o),
(409,78,c),
(409,-214,l),
(599,-214,l),
(599,526,l),
(434,526,l),
(434,445,l),
(415,473,o),
(393,496,o),
(365,512,cs),
(337,528,o),
(304,536,o),
(264,536,cs),
(195,536,o),
(133,507,o),
(90,459,cs),
(47,411,o),
(21,344,o),
(21,265,cs),
(21,186,o),
(45,117,o),
(85,69,cs),
(125,20,o),
(181,-10,o),
(245,-10,cs)
);
},
{
closed = 1;
nodes = (
(288,150,o),
(262,161,o),
(244,181,cs),
(226,200,o),
(215,227,o),
(215,260,cs),
(215,292,o),
(226,321,o),
(243,342,cs),
(259,363,o),
(283,376,o),
(311,376,cs),
(331,376,o),
(351,369,o),
(368,355,cs),
(385,341,o),
(400,321,o),
(409,298,c),
(409,204,l),
(397,187,o),
(383,172,o),
(368,164,cs),
(353,155,o),
(338,150,o),
(319,150,cs)
);
}
);
width = 647;
},
{
layerId = "16C3235A-0965-4506-9E91-995A1F108181";
shapes = (
{
closed = 1;
nodes = (
(338,-10,o),
(400,25,o),
(439,92,c),
(439,-214,l),
(573,-214,l),
(573,524,l),
(456,524,l),
(456,433,l),
(437,464,o),
(412,488,o),
(381,506,cs),
(350,524,o),
(315,534,o),
(275,534,cs),
(206,534,o),
(144,503,o),
(100,455,cs),
(56,406,o),
(30,338,o),
(30,263,cs),
(30,187,o),
(54,119,o),
(95,70,cs),
(135,21,o),
(192,-10,o),
(259,-10,cs)
);
},
{
closed = 1;
nodes = (
(268,104,o),
(231,121,o),
(207,149,cs),
(182,177,o),
(167,216,o),
(167,260,cs),
(167,301,o),
(182,342,o),
(207,371,cs),
(231,400,o),
(266,419,o),
(306,419,cs),
(334,419,o),
(364,408,o),
(388,389,cs),
(412,370,o),
(432,345,o),
(439,314,c),
(439,190,l),
(424,165,o),
(407,143,o),
(385,128,cs),
(363,113,o),
(338,104,o),
(309,104,cs)
);
}
);
width = 633;
},
{
layerId = "BB3EF6CB-1E12-4008-9D80-E52F161ACC69";
shapes = (
{
closed = 1;
nodes = (
(351,-10,o),
(417,28,o),
(464,103,c),
(464,-213,l),
(552,-213,l),
(552,522,l),
(474,522,l),
(474,423,l),
(454,455,o),
(427,481,o),
(395,501,c),
(362,520,o),
(324,531,o),
(284,531,cs),
(215,531,o),
(153,500,o),
(109,451,cs),
(64,402,o),
(37,334,o),
(37,261,cs),
(37,189,o),
(61,122,o),
(102,72,cs),
(143,22,o),
(202,-10,o),
(271,-10,cs)
);
},
{
closed = 1;
nodes = (
(250,66,o),
(207,88,o),
(176,123,cs),
(145,158,o),
(127,207,o),
(127,259,cs),
(127,308,o),
(145,358,o),
(177,395,cs),
(208,431,o),
(251,455,o),
(303,455,cs),
(338,455,o),
(375,440,o),
(405,417,cs),
(435,394,o),
(459,363,o),
(464,328,c),
(464,178,l),
(447,147,o),
(425,119,o),
(398,99,cs),
(370,79,o),
(338,66,o),
(301,66,cs)
);
}
);
width = 623;
},
{
layerId = "3FABAEC4-ABD6-4E2D-B151-012D8FCAB9DA";
shapes = (
{
closed = 1;
nodes = (
(368,-10,o),
(440,35,o),
(499,119,c),
(499,-213,l),
(519,-213,l),
(519,519,l),
(499,519,l),
(499,409,l),
(479,442,o),
(448,472,o),
(413,493,cs),
(377,514,o),
(337,527,o),
(296,527,cs),
(227,527,o),
(164,496,o),
(119,446,cs),
(74,396,o),
(46,329,o),
(46,258,cs),
(46,190,o),
(70,124,o),
(112,74,cs),
(154,24,o),
(214,-10,o),
(287,-10,cs)
);
},
{
closed = 1;
nodes = (
(223,10,o),
(168,40,o),
(129,85,cs),
(89,130,o),
(66,193,o),
(66,258,cs),
(66,319,o),
(90,381,o),
(131,429,cs),
(171,476,o),
(228,507,o),
(296,507,cs),
(340,507,o),
(388,488,o),
(427,459,cs),
(466,430,o),
(495,389,o),
(499,348,c),
(499,161,l),
(479,121,o),
(451,84,o),
(415,56,cs),
(379,28,o),
(336,10,o),
(287,10,cs)
);
}
);
width = 603;
}
);
leftKerningGroup = d2;
rightKerningGroup = g;
unicode = 113;
},
{
glyphname = r;
rightMetricsKey = "=10";
layers = (
{
layerId = "6504B2D0-4073-42C8-9B7C-2A4329A12EFE";
shapes = (
{
closed = 1;
nodes = (
(452,528,l),
(429,534,o),
(409,536,o),
(381,536,cs),
(316,536,o),
(259,496,o),
(222,426,c),
(222,526,l),
(48,526,l),
(48,0,l),
(238,0,l),
(238,312,l),
(252,330,o),
(274,345,o),
(296,355,cs),
(318,365,o),
(341,370,o),
(363,370,cs),
(377,370,o),
(391,368,o),
(405,364,c)
);
}
);
width = 442;
},
{
layerId = "16C3235A-0965-4506-9E91-995A1F108181";
shapes = (
{
closed = 1;
nodes = (
(415,527,l),
(402,531,o),
(375,534,o),
(351,534,cs),
(288,534,o),
(227,489,o),
(189,414,c),
(189,524,l),
(59,524,l),
(59,0,l),
(200,0,l),
(200,317,l),
(217,348,o),
(239,372,o),
(263,387,cs),
(288,403,o),
(314,411,o),
(338,411,cs),
(351,411,o),
(364,409,o),
(377,405,c)
);
}
);
width = 409;
},
{
layerId = "BB3EF6CB-1E12-4008-9D80-E52F161ACC69";
shapes = (
{
closed = 1;
nodes = (
(374,525,l),
(370,528,o),
(341,531,o),
(318,531,cs),
(257,531,o),
(193,481,o),
(153,401,c),
(153,522,l),
(71,522,l),
(71,0,l),
(159,0,l),
(159,322,l),
(174,361,o),
(199,398,o),
(227,421,cs),
(254,444,o),
(283,456,o),
(311,456,cs),
(323,456,o),
(335,454,o),
(347,450,c)
);
}
);
width = 374;
},
{
layerId = "3FABAEC4-ABD6-4E2D-B151-012D8FCAB9DA";
shapes = (
{
closed = 1;
nodes = (
(314,520,l),
(308,524,o),
(289,527,o),
(273,527,cs),
(214,527,o),
(146,470,o),
(104,385,c),
(104,519,l),
(84,519,l),
(84,0,l),
(104,0,l),
(104,328,l),
(117,377,o),
(138,417,o),
(170,453,cs),
(202,490,o),
(239,510,o),
(266,510,cs),
(277,510,o),
(290,508,o),
(306,502,c)
);
}
);
width = 324;
}
);
leftKerningGroup = m2;
rightKerningGroup = r;
unicode = 114;
},
{
glyphname = s;
layers = (
{
anchors = (
{
name = bottom;
position = "{259, 0}";
}
);
layerId = "6504B2D0-4073-42C8-9B7C-2A4329A12EFE";
shapes = (
{
closed = 1;
nodes = (
(326,-10,o),
(381,6,o),
(419,37,cs),
(457,68,o),
(477,111,o),
(477,167,cs),
(477,214,o),
(462,245,o),
(430,270,cs),
(398,294,o),
(350,313,o),
(282,333,cs),
(258,340,o),
(242,345,o),
(231,351,cs),
(220,357,o),
(215,365,o),
(215,374,cs),
(215,383,o),
(219,391,o),
(226,396,cs),
(233,400,o),
(244,402,o),
(257,402,cs),
(293,402,o),
(335,386,o),
(403,345,c),
(475,461,l),
(407,518,o),
(336,537,o),
(265,537,cs),
(194,537,o),
(138,518,o),
(99,485,cs),
(60,452,o),
(39,407,o),
(39,352,cs),
(39,305,o),
(54,276,o),
(85,253,cs),
(116,230,o),
(162,214,o),
(225,191,cs),
(249,183,o),
(266,178,o),
(278,172,cs),
(289,166,o),
(294,159,o),
(294,151,cs),
(294,134,o),
(281,127,o),
(253,127,cs),
(202,127,o),
(141,152,o),
(76,195,c),
(11,78,l),
(72,21,o),
(167,-10,o),
(259,-10,cs)
);
}
);
width = 501;
},
{
anchors = (
{
name = bottom;
position = "{254, 0}";
}
);
layerId = "16C3235A-0965-4506-9E91-995A1F108181";
shapes = (
{
closed = 1;
nodes = (
(318,-10,o),
(371,6,o),
(408,34,cs),
(444,62,o),
(464,104,o),
(464,156,cs),
(464,204,o),
(447,234,o),
(414,257,cs),
(381,280,o),
(333,296,o),
(270,315,cs),
(238,324,o),
(214,332,o),
(198,341,cs),
(182,350,o),
(175,362,o),
(175,381,cs),
(175,401,o),
(186,415,o),
(200,424,cs),
(214,432,o),
(235,435,o),
(256,435,cs),
(305,435,o),
(352,416,o),
(404,375,c),
(459,461,l),
(403,512,o),
(336,534,o),
(263,534,cs),
(198,534,o),
(145,517,o),
(108,488,cs),
(71,459,o),
(50,417,o),
(50,366,cs),
(50,321,o),
(65,292,o),
(94,269,cs),
(123,246,o),
(168,231,o),
(225,212,cs),
(260,201,o),
(287,194,o),
(306,185,cs),
(325,176,o),
(335,164,o),
(335,145,cs),
(335,108,o),
(301,90,o),
(249,90,cs),
(192,90,o),
(132,113,o),
(69,164,c),
(21,77,l),
(80,20,o),
(165,-10,o),
(254,-10,cs)
);
}
);
width = 494;
},
{
anchors = (
{
name = bottom;
position = "{250, 0}";
}
);
layerId = "BB3EF6CB-1E12-4008-9D80-E52F161ACC69";
shapes = (
{
closed = 1;
nodes = (
(311,-10,o),
(362,4,o),
(398,32,cs),
(434,59,o),
(454,98,o),
(454,147,cs),
(454,195,o),
(435,225,o),
(401,247,cs),
(367,269,o),
(319,283,o),
(260,300,cs),
(221,312,o),
(192,321,o),
(172,333,cs),
(152,345,o),
(142,361,o),
(142,386,cs),
(142,415,o),
(157,434,o),
(178,446,cs),
(199,458,o),
(227,462,o),
(255,462,cs),
(316,462,o),
(365,442,o),
(406,399,c),
(446,460,l),
(401,507,o),
(337,531,o),
(260,531,cs),
(201,531,o),
(151,517,o),
(116,491,cs),
(80,465,o),
(59,425,o),
(59,376,cs),
(59,335,o),
(74,306,o),
(102,283,cs),
(130,260,o),
(172,245,o),
(225,229,c),
(269,217,o),
(305,209,o),
(330,197,cs),
(354,185,o),
(368,169,o),
(368,141,cs),
(368,88,o),
(318,60,o),
(246,60,cs),
(182,60,o),
(124,82,o),
(64,138,c),
(30,76,l),
(86,19,o),
(162,-10,o),
(250,-10,cs)
);
}
);
width = 488;
},
{
anchors = (
{
name = bottom;
position = "{236, 0}";
}
);
layerId = "3FABAEC4-ABD6-4E2D-B151-012D8FCAB9DA";
shapes = (
{
closed = 1;
nodes = (
(294,-10,o),
(342,5,o),
(375,31,cs),
(408,57,o),
(428,94,o),
(428,139,cs),
(428,184,o),
(409,211,o),
(375,231,cs),
(341,251,o),
(291,262,o),
(228,277,cs),
(180,289,o),
(145,298,o),
(122,313,cs),
(98,328,o),
(88,348,o),
(88,383,cs),
(88,427,o),
(107,458,o),
(136,478,cs),
(164,498,o),
(204,507,o),
(247,507,cs),
(314,507,o),
(377,485,o),
(402,444,c),
(420,452,l),
(397,495,o),
(335,527,o),
(251,527,cs),
(202,527,o),
(156,516,o),
(123,492,cs),
(90,468,o),
(68,432,o),
(68,380,cs),
(68,339,o),
(81,314,o),
(108,297,cs),
(135,280,o),
(174,270,o),
(227,257,c),
(286,244,o),
(330,233,o),
(361,215,cs),
(392,197,o),
(408,173,o),
(408,136,cs),
(408,56,o),
(338,10,o),
(235,10,cs),
(160,10,o),
(105,35,o),
(52,87,c),
(37,74,l),
(89,17,o),
(155,-10,o),
(235,-10,cs)
);
}
);
width = 471;
}
);
leftKerningGroup = s2;
rightKerningGroup = s;
unicode = 115;
},
{
glyphname = t;
layers = (
{
anchors = (
{
name = bottom;
position = "{242, 0}";
}
);
layerId = "6504B2D0-4073-42C8-9B7C-2A4329A12EFE";
shapes = (
{
closed = 1;
nodes = (
(383,179,l),
(371,174,o),
(359,170,o),
(347,167,cs),
(335,164,o),
(324,162,o),
(315,162,cs),
(290,162,o),
(274,174,o),
(274,209,cs),
(274,383,l),
(377,383,l),
(377,526,l),
(274,526,l),
(274,691,l),
(84,691,l),
(84,526,l),
(19,526,l),
(19,383,l),
(84,383,l),
(84,142,ls),
(84,85,o),
(102,47,o),
(131,23,cs),
(159,-1,o),
(199,-11,o),
(242,-11,cs),
(271,-11,o),
(302,-7,o),
(332,1,cs),
(362,8,o),
(390,17,o),
(417,29,c)
);
}
);
width = 423;
},
{
anchors = (
{
name = bottom;
position = "{227, 0}";
}
);
layerId = "16C3235A-0965-4506-9E91-995A1F108181";
shapes = (
{
closed = 1;
nodes = (
(349,133,l),
(340,129,o),
(329,124,o),
(317,121,cs),
(304,117,o),
(288,114,o),
(275,114,cs),
(248,114,o),
(226,128,o),
(225,165,c),
(225,422,l),
(336,422,l),
(336,524,l),
(225,524,l),
(225,693,l),
(91,693,l),
(91,524,l),
(22,524,l),
(22,422,l),
(91,422,l),
(91,120,ls),
(91,73,o),
(106,41,o),
(131,21,cs),
(156,0,o),
(190,-9,o),
(227,-9,cs),
(255,-9,o),
(284,-4,o),
(309,3,cs),
(334,10,o),
(357,19,o),
(376,28,c)
);
}
);
width = 384;
},
{
anchors = (
{
name = bottom;
position = "{214, 0}";
}
);
layerId = "BB3EF6CB-1E12-4008-9D80-E52F161ACC69";
shapes = (
{
closed = 1;
nodes = (
(320,96,l),
(315,93,o),
(304,87,o),
(291,83,cs),
(278,78,o),
(260,74,o),
(243,74,cs),
(212,74,o),
(187,90,o),
(184,129,c),
(184,453,l),
(301,453,l),
(301,522,l),
(184,522,l),
(184,696,l),
(96,696,l),
(96,522,l),
(25,522,l),
(25,453,l),
(96,453,l),
(96,102,ls),
(96,65,o),
(110,38,o),
(131,20,cs),
(152,2,o),
(182,-7,o),
(214,-7,cs),
(242,-7,o),
(269,-1,o),
(291,6,cs),
(313,13,o),
(330,21,o),
(341,26,c)
);
}
);
width = 352;
},
{
anchors = (
{
name = bottom;
position = "{191, 2}";
}
);
layerId = "3FABAEC4-ABD6-4E2D-B151-012D8FCAB9DA";
shapes = (
{
closed = 1;
nodes = (
(275,40,l),
(274,39,o),
(265,33,o),
(250,27,cs),
(234,21,o),
(214,15,o),
(191,15,cs),
(156,15,o),
(124,36,o),
(121,75,c),
(121,499,l),
(246,499,l),
(246,519,l),
(121,519,l),
(121,700,l),
(101,700,l),
(101,519,l),
(26,519,l),
(26,499,l),
(101,499,l),
(101,75,ls),
(101,51,o),
(112,32,o),
(128,18,cs),
(144,4,o),
(167,-5,o),
(191,-5,cs),
(219,-5,o),
(242,2,o),
(259,9,cs),
(275,16,o),
(286,24,o),
(286,24,c)
);
}
);
width = 295;
}
);
leftKerningGroup = t2;
rightKerningGroup = t;
unicode = 116;
},
{
glyphname = u;
layers = (
{
layerId = "6504B2D0-4073-42C8-9B7C-2A4329A12EFE";
shapes = (
{
closed = 1;
nodes = (
(572,0,l),
(572,526,l),
(382,526,l),
(382,204,l),
(366,181,o),
(351,168,o),
(336,160,cs),
(321,152,o),
(307,150,o),
(295,150,cs),
(274,150,o),
(259,157,o),
(249,170,cs),
(239,182,o),
(233,200,o),
(233,223,cs),
(233,526,l),
(43,526,l),
(43,180,ls),
(43,116,o),
(58,68,o),
(87,37,c),
(115,5,o),
(159,-10,o),
(218,-10,cs),
(253,-10,o),
(287,-5,o),
(317,8,cs),
(347,20,o),
(373,41,o),
(390,70,c),
(390,0,l)
);
}
);
width = 620;
},
{
layerId = "16C3235A-0965-4506-9E91-995A1F108181";
shapes = (
{
closed = 1;
nodes = (
(546,0,l),
(546,524,l),
(412,524,l),
(412,199,l),
(397,170,o),
(378,145,o),
(355,129,cs),
(332,112,o),
(305,104,o),
(281,104,cs),
(246,104,o),
(222,117,o),
(209,138,cs),
(196,159,o),
(190,191,o),
(190,224,cs),
(190,524,l),
(56,524,l),
(56,196,ls),
(56,133,o),
(67,83,o),
(95,47,c),
(122,10,o),
(166,-10,o),
(229,-10,cs),
(268,-10,o),
(304,-1,o),
(337,15,cs),
(370,31,o),
(398,56,o),
(417,91,c),
(417,0,l)
);
}
);
width = 606;
},
{
layerId = "BB3EF6CB-1E12-4008-9D80-E52F161ACC69";
shapes = (
{
closed = 1;
nodes = (
(525,0,l),
(525,522,l),
(437,522,l),
(437,195,l),
(424,159,o),
(399,126,o),
(370,103,cs),
(341,80,o),
(305,66,o),
(269,66,cs),
(224,66,o),
(194,84,o),
(177,113,cs),
(160,141,o),
(154,182,o),
(154,226,cs),
(154,522,l),
(66,522,l),
(66,209,ls),
(66,149,o),
(76,94,o),
(102,54,cs),
(128,14,o),
(171,-10,o),
(238,-10,cs),
(279,-10,o),
(319,1,o),
(355,21,cs),
(390,41,o),
(420,70,o),
(440,107,c),
(440,0,l)
);
}
);
width = 596;
},
{
layerId = "3FABAEC4-ABD6-4E2D-B151-012D8FCAB9DA";
shapes = (
{
closed = 1;
nodes = (
(491,0,l),
(491,519,l),
(471,519,l),
(471,189,l),
(458,144,o),
(429,98,o),
(390,65,cs),
(350,32,o),
(301,10,o),
(248,10,cs),
(187,10,o),
(149,35,o),
(127,75,cs),
(105,115,o),
(98,169,o),
(98,228,cs),
(98,519,l),
(78,519,l),
(78,228,ls),
(78,171,o),
(84,111,o),
(109,66,cs),
(133,21,o),
(176,-10,o),
(248,-10,cs),
(293,-10,o),
(338,5,o),
(378,30,cs),
(417,54,o),
(450,91,o),
(471,132,c),
(471,0,l)
);
}
);
width = 575;
}
);
leftKerningGroup = u2;
rightKerningGroup = u;
unicode = 117;
},
{
glyphname = v;
layers = (
{
layerId = "6504B2D0-4073-42C8-9B7C-2A4329A12EFE";
shapes = (
{
closed = 1;
nodes = (
(385,0,l),
(562,526,l),
(385,526,l),
(290,169,l),
(196,526,l),
(1,526,l),
(178,0,l)
);
}
);
width = 563;
},
{
layerId = "16C3235A-0965-4506-9E91-995A1F108181";
shapes = (
{
closed = 1;
nodes = (
(347,0,l),
(540,524,l),
(413,524,l),
(280,122,l),
(148,524,l),
(9,524,l),
(202,0,l)
);
}
);
width = 549;
},
{
layerId = "BB3EF6CB-1E12-4008-9D80-E52F161ACC69";
shapes = (
{
closed = 1;
nodes = (
(317,0,l),
(522,522,l),
(436,522,l),
(272,84,l),
(108,522,l),
(16,522,l),
(221,0,l)
);
}
);
width = 539;
},
{
layerId = "3FABAEC4-ABD6-4E2D-B151-012D8FCAB9DA";
shapes = (
{
closed = 1;
nodes = (
(269,0,l),
(495,519,l),
(473,519,l),
(260,29,l),
(47,519,l),
(25,519,l),
(251,0,l)
);
}
);
width = 520;
}
);
unicode = 118;
},
{
glyphname = w;
layers = (
{
anchors = (
{
name = top;
position = "{446, 526}";
}
);
layerId = "6504B2D0-4073-42C8-9B7C-2A4329A12EFE";
shapes = (
{
closed = 1;
nodes = (
(713,0,l),
(890,526,l),
(716,526,l),
(612,203,l),
(529,471,l),
(368,471,l),
(284,203,l),
(181,526,l),
(3,526,l),
(183,0,l),
(368,0,l),
(446,255,l),
(527,0,l)
);
}
);
width = 895;
},
{
anchors = (
{
name = top;
position = "{418, 522}";
}
);
layerId = "BB3EF6CB-1E12-4008-9D80-E52F161ACC69";
shapes = (
{
closed = 1;
nodes = (
(633,0,l),
(816,522,l),
(734,522,l),
(589,97,l),
(455,471,l),
(380,471,l),
(247,97,l),
(101,522,l),
(20,522,l),
(203,0,l),
(285,0,l),
(418,375,l),
(549,0,l)
);
}
);
width = 835;
},
{
anchors = (
{
name = top;
position = "{400, 519}";
}
);
layerId = "3FABAEC4-ABD6-4E2D-B151-012D8FCAB9DA";
shapes = (
{
closed = 1;
nodes = (
(582,0,l),
(768,519,l),
(746,519,l),
(574,30,l),
(409,471,l),
(389,471,l),
(224,30,l),
(52,519,l),
(31,519,l),
(215,0,l),
(233,0,l),
(400,451,l),
(564,0,l)
);
}
);
width = 798;
},
{
anchors = (
{
name = top;
position = "{431, 524}";
}
);
layerId = "16C3235A-0965-4506-9E91-995A1F108181";
shapes = (
{
closed = 1;
nodes = (
(669,0,l),
(849,524,l),
(726,524,l),
(599,145,l),
(488,471,l),
(375,471,l),
(264,145,l),
(137,524,l),
(12,524,l),
(194,0,l),
(322,0,l),
(431,321,l),
(539,0,l)
);
}
);
width = 862;
}
);
rightKerningGroup = w;
unicode = 119;
},
{
glyphname = x;
layers = (
{
layerId = "6504B2D0-4073-42C8-9B7C-2A4329A12EFE";
shapes = (
{
closed = 1;
nodes = (
(-1,526,l),
(168,261,l),
(-6,0,l),
(187,0,l),
(268,129,l),
(277,149,l),
(286,129,l),
(367,0,l),
(560,0,l),
(386,266,l),
(555,526,l),
(362,526,l),
(287,397,l),
(277,376,l),
(267,397,l),
(192,526,l)
);
}
);
width = 554;
},
{
layerId = "16C3235A-0965-4506-9E91-995A1F108181";
shapes = (
{
closed = 1;
nodes = (
(7,524,l),
(189,261,l),
(4,0,l),
(145,0,l),
(257,163,l),
(266,180,l),
(275,163,l),
(387,0,l),
(528,0,l),
(343,263,l),
(525,524,l),
(384,524,l),
(275,360,l),
(266,342,l),
(257,360,l),
(147,524,l)
);
}
);
width = 531;
},
{
layerId = "BB3EF6CB-1E12-4008-9D80-E52F161ACC69";
shapes = (
{
closed = 1;
nodes = (
(13,522,l),
(206,260,l),
(12,0,l),
(110,0,l),
(248,191,l),
(256,206,l),
(265,191,l),
(403,0,l),
(501,0,l),
(307,260,l),
(500,522,l),
(402,522,l),
(265,330,l),
(256,314,l),
(248,330,l),
(110,522,l)
);
}
);
width = 513;
},
{
layerId = "3FABAEC4-ABD6-4E2D-B151-012D8FCAB9DA";
shapes = (
{
closed = 1;
nodes = (
(20,519,l),
(228,258,l),
(22,0,l),
(48,0,l),
(233,232,l),
(241,244,l),
(249,232,l),
(434,0,l),
(460,0,l),
(254,258,l),
(462,519,l),
(436,519,l),
(249,285,l),
(241,273,l),
(233,285,l),
(46,519,l)
);
}
);
width = 482;
}
);
unicode = 120;
},
{
glyphname = y;
layers = (
{
anchors = (
{
name = bottom;
position = "{498, 0}";
},
{
name = top;
position = "{293, 526}";
}
);
layerId = "6504B2D0-4073-42C8-9B7C-2A4329A12EFE";
shapes = (
{
closed = 1;
nodes = (
(551,526,l),
(374,526,l),
(293,195,l),
(193,526,l),
(-2,526,l),
(189,0,l),
(185,-20,ls),
(178,-55,o),
(171,-72,o),
(140,-72,cs),
(120,-72,o),
(91,-66,o),
(69,-58,c),
(37,-202,l),
(90,-222,o),
(138,-232,o),
(183,-232,cs),
(279,-232,o),
(347,-150,o),
(386,-20,cs)
);
}
);
width = 555;
},
{
anchors = (
{
name = bottom;
position = "{435, 0}";
},
{
name = top;
position = "{286, 524}";
}
);
layerId = "16C3235A-0965-4506-9E91-995A1F108181";
shapes = (
{
closed = 1;
nodes = (
(538,524,l),
(410,524,l),
(286,137,l),
(145,524,l),
(6,524,l),
(213,0,l),
(207,-19,ls),
(187,-82,o),
(167,-115,o),
(121,-115,cs),
(98,-115,o),
(68,-107,o),
(48,-96,c),
(21,-197,l),
(63,-217,o),
(107,-228,o),
(150,-228,cs),
(247,-228,o),
(304,-146,o),
(349,-19,cs)
);
}
);
width = 550;
},
{
anchors = (
{
name = bottom;
position = "{383, 0}";
},
{
name = top;
position = "{281, 522}";
}
);
layerId = "BB3EF6CB-1E12-4008-9D80-E52F161ACC69";
shapes = (
{
closed = 1;
nodes = (
(527,522,l),
(440,522,l),
(281,89,l),
(105,522,l),
(12,522,l),
(233,0,l),
(226,-19,ls),
(195,-104,o),
(163,-150,o),
(105,-150,cs),
(79,-150,o),
(49,-141,o),
(30,-128,c),
(8,-193,l),
(40,-213,o),
(82,-225,o),
(123,-225,cs),
(221,-225,o),
(269,-142,o),
(318,-19,cs)
);
}
);
width = 545;
},
{
anchors = (
{
name = bottom;
position = "{353, 0}";
},
{
name = top;
position = "{272, 519}";
}
);
layerId = "3FABAEC4-ABD6-4E2D-B151-012D8FCAB9DA";
shapes = (
{
closed = 1;
nodes = (
(511,519,l),
(489,519,l),
(272,25,l),
(43,519,l),
(21,519,l),
(262,0,l),
(252,-24,ls),
(204,-141,o),
(163,-204,o),
(87,-204,cs),
(56,-204,o),
(24,-191,o),
(8,-175,c),
(-7,-189,l),
(11,-209,o),
(50,-223,o),
(88,-223,cs),
(174,-223,o),
(214,-159,o),
(273,-24,cs)
);
}
);
width = 536;
}
);
leftKerningGroup = y2;
rightKerningGroup = y;
unicode = 121;
},
{
glyphname = z;
layers = (
{
layerId = "6504B2D0-4073-42C8-9B7C-2A4329A12EFE";
shapes = (
{
closed = 1;
nodes = (
(22,0,l),
(469,0,l),
(469,130,l),
(221,130,l),
(460,414,l),
(460,526,l),
(37,526,l),
(37,396,l),
(262,396,l),
(22,112,l)
);
}
);
width = 494;
},
{
layerId = "16C3235A-0965-4506-9E91-995A1F108181";
shapes = (
{
closed = 1;
nodes = (
(27,0,l),
(463,0,l),
(463,93,l),
(172,93,l),
(459,442,l),
(459,524,l),
(38,524,l),
(38,430,l),
(316,430,l),
(27,82,l)
);
}
);
width = 494;
},
{
layerId = "BB3EF6CB-1E12-4008-9D80-E52F161ACC69";
shapes = (
{
closed = 1;
nodes = (
(30,0,l),
(459,0,l),
(459,64,l),
(131,64,l),
(458,465,l),
(458,522,l),
(39,522,l),
(39,458,l),
(359,458,l),
(30,57,l)
);
}
);
width = 493;
},
{
layerId = "3FABAEC4-ABD6-4E2D-B151-012D8FCAB9DA";
shapes = (
{
closed = 1;
nodes = (
(33,0,l),
(450,0,l),
(450,20,l),
(59,20,l),
(454,499,l),
(454,519,l),
(38,519,l),
(38,499,l),
(429,499,l),
(33,20,l)
);
}
);
width = 488;
}
);
leftKerningGroup = z2;
rightKerningGroup = z;
unicode = 122;
},
{
glyphname = braceleft;
layers = (
{
layerId = "6504B2D0-4073-42C8-9B7C-2A4329A12EFE";
shapes = (
{
closed = 1;
nodes = (
(320,590,l),
(320,740,l),
(118,740,ls),
(110,740,o),
(95,734,o),
(95,710,cs),
(95,501,ls),
(95,482,o),
(87,464,o),
(76,450,cs),
(64,436,o),
(50,426,o),
(35,426,c),
(35,296,l),
(63,289,o),
(95,262,o),
(95,219,cs),
(95,-1,ls),
(95,-26,o),
(110,-31,o),
(118,-31,cs),
(320,-31,l),
(320,119,l),
(265,119,l),
(265,284,ls),
(265,320,o),
(244,341,o),
(224,360,c),
(245,379,o),
(265,399,o),
(265,436,cs),
(265,590,l)
);
}
);
width = 374;
},
{
layerId = "16C3235A-0965-4506-9E91-995A1F108181";
shapes = (
{
closed = 1;
nodes = (
(267,632,l),
(267,740,l),
(115,740,ls),
(108,740,o),
(92,734,o),
(92,710,cs),
(92,473,ls),
(92,460,o),
(86,442,o),
(77,430,cs),
(68,418,o),
(57,408,o),
(42,408,c),
(42,314,l),
(69,309,o),
(92,283,o),
(92,247,cs),
(92,-1,ls),
(92,-25,o),
(104,-31,o),
(115,-31,cs),
(267,-31,l),
(267,77,l),
(212,77,l),
(212,291,ls),
(212,318,o),
(198,341,o),
(178,360,c),
(199,379,o),
(212,402,o),
(212,429,cs),
(212,632,l)
);
}
);
width = 318;
},
{
layerId = "BB3EF6CB-1E12-4008-9D80-E52F161ACC69";
shapes = (
{
closed = 1;
nodes = (
(224,668,l),
(224,740,l),
(112,740,ls),
(105,740,o),
(89,735,o),
(89,710,cs),
(89,450,ls),
(89,441,o),
(86,426,o),
(79,414,cs),
(71,402,o),
(62,393,o),
(47,393,c),
(47,329,l),
(72,325,o),
(89,299,o),
(89,270,cs),
(89,-1,ls),
(89,-24,o),
(101,-31,o),
(112,-31,cs),
(224,-31,l),
(224,41,l),
(169,41,l),
(169,296,ls),
(169,315,o),
(160,341,o),
(140,360,c),
(161,379,o),
(169,405,o),
(169,424,cs),
(169,668,l)
);
}
);
width = 271;
},
{
layerId = "3FABAEC4-ABD6-4E2D-B151-012D8FCAB9DA";
shapes = (
{
closed = 1;
nodes = (
(173,720,l),
(173,740,l),
(121,740,ls),
(116,740,o),
(98,737,o),
(98,710,cs),
(98,416,ls),
(98,412,o),
(98,401,o),
(94,391,cs),
(90,381,o),
(83,371,o),
(68,371,c),
(68,351,l),
(92,348,o),
(98,324,o),
(98,304,cs),
(98,-1,ls),
(98,-24,o),
(110,-31,o),
(121,-31,cs),
(173,-31,l),
(173,-11,l),
(118,-11,l),
(118,304,ls),
(118,311,o),
(118,341,o),
(97,360,c),
(118,379,o),
(118,409,o),
(118,416,cs),
(118,720,l)
);
}
);
width = 229;
}
);
unicode = 123;
},
{
glyphname = bar;
layers = (
{
layerId = "6504B2D0-4073-42C8-9B7C-2A4329A12EFE";
shapes = (
{
closed = 1;
nodes = (
(236,-130,l),
(236,775,l),
(76,775,l),
(76,-130,l)
);
}
);
width = 312;
},
{
layerId = "16C3235A-0965-4506-9E91-995A1F108181";
shapes = (
{
closed = 1;
nodes = (
(194,-130,l),
(194,775,l),
(79,775,l),
(79,-130,l)
);
}
);
width = 272;
},
{
layerId = "BB3EF6CB-1E12-4008-9D80-E52F161ACC69";
shapes = (
{
closed = 1;
nodes = (
(158,-130,l),
(158,775,l),
(82,775,l),
(82,-130,l)
);
}
);
width = 240;
},
{
layerId = "3FABAEC4-ABD6-4E2D-B151-012D8FCAB9DA";
shapes = (
{
closed = 1;
nodes = (
(115,-130,l),
(115,775,l),
(95,775,l),
(95,-130,l)
);
}
);
width = 210;
}
);
unicode = 124;
},
{
glyphname = braceright;
layers = (
{
layerId = "6504B2D0-4073-42C8-9B7C-2A4329A12EFE";
shapes = (
{
closed = 1;
nodes = (
(109,590,l),
(109,436,ls),
(109,399,o),
(129,379,o),
(150,360,c),
(130,341,o),
(109,320,o),
(109,284,cs),
(109,119,l),
(54,119,l),
(54,-31,l),
(256,-31,ls),
(264,-31,o),
(279,-26,o),
(279,-1,cs),
(279,219,ls),
(279,262,o),
(311,289,o),
(339,296,c),
(339,426,l),
(326,426,o),
(310,436,o),
(299,450,cs),
(287,464,o),
(279,482,o),
(279,501,cs),
(279,710,ls),
(279,734,o),
(264,740,o),
(256,740,cs),
(54,740,l),
(54,590,l)
);
}
);
width = 374;
},
{
layerId = "16C3235A-0965-4506-9E91-995A1F108181";
shapes = (
{
closed = 1;
nodes = (
(105,632,l),
(105,429,ls),
(105,402,o),
(119,379,o),
(140,360,c),
(119,341,o),
(105,318,o),
(105,291,cs),
(105,77,l),
(50,77,l),
(50,-31,l),
(202,-31,ls),
(211,-31,o),
(225,-25,o),
(225,-1,cs),
(225,247,ls),
(225,283,o),
(248,309,o),
(276,314,c),
(276,408,l),
(263,408,o),
(249,418,o),
(241,430,cs),
(232,442,o),
(225,460,o),
(225,473,cs),
(225,710,ls),
(225,734,o),
(210,740,o),
(202,740,cs),
(50,740,l),
(50,632,l)
);
}
);
width = 318;
},
{
layerId = "BB3EF6CB-1E12-4008-9D80-E52F161ACC69";
shapes = (
{
closed = 1;
nodes = (
(102,668,l),
(102,424,ls),
(102,405,o),
(110,379,o),
(131,360,c),
(110,341,o),
(102,315,o),
(102,296,cs),
(102,41,l),
(47,41,l),
(47,-31,l),
(159,-31,ls),
(168,-31,o),
(182,-24,o),
(182,-1,cs),
(182,270,ls),
(182,299,o),
(197,325,o),
(224,329,c),
(224,393,l),
(211,393,o),
(200,402,o),
(193,414,cs),
(185,426,o),
(182,441,o),
(182,450,cs),
(182,710,ls),
(182,735,o),
(166,740,o),
(159,740,cs),
(47,740,l),
(47,668,l)
);
}
);
width = 271;
},
{
layerId = "3FABAEC4-ABD6-4E2D-B151-012D8FCAB9DA";
shapes = (
{
closed = 1;
nodes = (
(111,720,l),
(111,416,ls),
(111,409,o),
(111,379,o),
(132,360,c),
(111,341,o),
(111,311,o),
(111,304,cs),
(111,-11,l),
(56,-11,l),
(56,-31,l),
(108,-31,ls),
(119,-31,o),
(131,-24,o),
(131,-1,cs),
(131,304,ls),
(131,324,o),
(137,348,o),
(161,351,c),
(161,371,l),
(148,371,o),
(140,381,o),
(136,391,cs),
(132,401,o),
(131,412,o),
(131,416,cs),
(131,710,ls),
(131,737,o),
(113,740,o),
(108,740,cs),
(56,740,l),
(56,720,l)
);
}
);
width = 229;
}
);
unicode = 125;
},
{
glyphname = asciitilde;
layers = (
{
layerId = "6504B2D0-4073-42C8-9B7C-2A4329A12EFE";
shapes = (
{
closed = 1;
nodes = (
(146,216,l),
(146,217,o),
(147,229,o),
(155,241,cs),
(163,253,o),
(179,264,o),
(210,264,cs),
(242,264,o),
(270,252,o),
(300,240,cs),
(330,228,o),
(360,216,o),
(399,216,cs),
(464,216,o),
(507,250,o),
(533,287,cs),
(559,324,o),
(569,363,o),
(569,374,c),
(469,374,l),
(469,373,o),
(466,359,o),
(457,347,cs),
(448,335,o),
(431,323,o),
(400,323,cs),
(368,323,o),
(341,336,o),
(312,349,cs),
(283,361,o),
(251,374,o),
(211,374,cs),
(147,374,o),
(107,343,o),
(81,308,cs),
(55,272,o),
(45,232,o),
(45,216,c)
);
}
);
width = 610;
},
{
layerId = "16C3235A-0965-4506-9E91-995A1F108181";
shapes = (
{
closed = 1;
nodes = (
(130,227,l),
(130,228,o),
(133,242,o),
(142,255,cs),
(150,267,o),
(166,280,o),
(194,280,cs),
(223,280,o),
(248,267,o),
(276,255,cs),
(304,242,o),
(334,227,o),
(370,227,cs),
(425,227,o),
(461,256,o),
(483,287,cs),
(505,318,o),
(514,350,o),
(514,358,c),
(440,358,l),
(440,355,o),
(437,342,o),
(427,330,cs),
(417,318,o),
(399,306,o),
(371,306,cs),
(342,306,o),
(315,320,o),
(288,333,cs),
(260,346,o),
(231,360,o),
(195,360,cs),
(142,360,o),
(107,334,o),
(86,304,cs),
(65,274,o),
(56,239,o),
(56,227,c)
);
}
);
width = 568;
},
{
layerId = "BB3EF6CB-1E12-4008-9D80-E52F161ACC69";
shapes = (
{
closed = 1;
nodes = (
(117,237,l),
(117,238,o),
(121,252,o),
(131,266,cs),
(141,280,o),
(157,293,o),
(181,293,cs),
(206,293,o),
(230,280,o),
(257,266,cs),
(284,252,o),
(313,237,o),
(346,237,cs),
(393,237,o),
(423,262,o),
(442,288,cs),
(461,314,o),
(468,340,o),
(468,344,c),
(416,344,l),
(416,341,o),
(412,328,o),
(401,316,cs),
(390,304,o),
(374,292,o),
(347,292,cs),
(319,292,o),
(294,307,o),
(268,321,cs),
(242,335,o),
(214,349,o),
(182,349,cs),
(138,349,o),
(110,326,o),
(91,300,cs),
(72,274,o),
(65,245,o),
(65,237,c)
);
}
);
width = 532;
},
{
layerId = "3FABAEC4-ABD6-4E2D-B151-012D8FCAB9DA";
shapes = (
{
closed = 1;
nodes = (
(90,251,l),
(90,252,o),
(95,267,o),
(107,283,cs),
(118,298,o),
(134,312,o),
(154,312,cs),
(175,312,o),
(197,297,o),
(221,282,cs),
(245,266,o),
(271,251,o),
(303,251,cs),
(338,251,o),
(360,270,o),
(374,288,cs),
(388,306,o),
(393,324,o),
(393,324,c),
(373,325,l),
(373,322,o),
(368,309,o),
(356,296,cs),
(344,283,o),
(327,271,o),
(303,271,cs),
(276,271,o),
(253,286,o),
(229,302,cs),
(205,317,o),
(181,332,o),
(154,332,cs),
(125,332,o),
(104,313,o),
(90,293,cs),
(76,273,o),
(70,254,o),
(70,251,c)
);
}
);
width = 462;
}
);
unicode = 126;
},
{
glyphname = exclamdown;
layers = (
{
layerId = "6504B2D0-4073-42C8-9B7C-2A4329A12EFE";
shapes = (
{
closed = 1;
nodes = (
(126,257,l),
(86,7,l),
(86,-198,l),
(276,-198,l),
(276,7,l),
(236,257,l)
);
},
{
closed = 1;
nodes = (
(275,468,o),
(266,490,o),
(248,509,c),
(229,527,o),
(207,536,o),
(181,536,cs),
(155,536,o),
(133,527,o),
(115,509,cs),
(96,490,o),
(87,468,o),
(87,442,cs),
(87,416,o),
(96,394,o),
(115,376,c),
(133,357,o),
(155,348,o),
(181,348,cs),
(207,348,o),
(229,357,o),
(248,376,cs),
(266,394,o),
(275,416,o),
(275,442,cs)
);
}
);
width = 362;
},
{
layerId = "16C3235A-0965-4506-9E91-995A1F108181";
shapes = (
{
closed = 1;
nodes = (
(112,276,l),
(86,20,l),
(86,-198,l),
(221,-198,l),
(221,20,l),
(195,276,l)
);
},
{
closed = 1;
nodes = (
(227,481,o),
(220,498,o),
(206,513,c),
(191,527,o),
(174,534,o),
(154,534,cs),
(134,534,o),
(117,527,o),
(103,513,cs),
(88,498,o),
(81,481,o),
(81,461,cs),
(81,441,o),
(88,424,o),
(103,409,cs),
(117,394,o),
(134,387,o),
(154,387,cs),
(174,387,o),
(191,394,o),
(206,409,cs),
(220,424,o),
(227,441,o),
(227,461,cs)
);
}
);
width = 307;
},
{
layerId = "BB3EF6CB-1E12-4008-9D80-E52F161ACC69";
shapes = (
{
closed = 1;
nodes = (
(102,288,l),
(87,28,l),
(87,-198,l),
(175,-198,l),
(175,28,l),
(160,288,l)
);
},
{
closed = 1;
nodes = (
(187,490,o),
(182,504,o),
(171,515,cs),
(160,526,o),
(146,531,o),
(131,531,cs),
(116,531,o),
(103,526,o),
(92,515,cs),
(81,504,o),
(75,490,o),
(75,475,cs),
(75,460,o),
(81,447,o),
(92,436,cs),
(103,425,o),
(116,419,o),
(131,419,cs),
(146,419,o),
(160,425,o),
(171,436,cs),
(182,447,o),
(187,460,o),
(187,475,cs)
);
}
);
width = 262;
},
{
layerId = "3FABAEC4-ABD6-4E2D-B151-012D8FCAB9DA";
shapes = (
{
closed = 1;
nodes = (
(104,319,l),
(104,119,l),
(104,-198,l),
(124,-198,l),
(124,119,l),
(124,319,l)
);
},
{
closed = 1;
nodes = (
(149,502,o),
(146,510,o),
(139,517,cs),
(132,524,o),
(124,527,o),
(115,527,cs),
(106,527,o),
(98,524,o),
(91,517,cs),
(84,510,o),
(81,502,o),
(81,493,cs),
(81,484,o),
(84,476,o),
(91,470,cs),
(98,463,o),
(106,460,o),
(115,460,cs),
(124,460,o),
(132,463,o),
(139,470,cs),
(146,476,o),
(149,484,o),
(149,493,cs)
);
}
);
width = 228;
}
);
unicode = 161;
},
{
glyphname = cent;
layers = (
{
layerId = "6504B2D0-4073-42C8-9B7C-2A4329A12EFE";
shapes = (
{
closed = 1;
nodes = (
(356,-120,l),
(356,-10,l),
(388,-10,o),
(434,2,o),
(477,26,cs),
(520,49,o),
(560,85,o),
(583,133,c),
(398,189,l),
(394,182,o),
(389,177,o),
(382,171,cs),
(375,165,o),
(367,159,o),
(356,155,c),
(356,370,l),
(371,367,o),
(389,353,o),
(398,337,c),
(583,393,l),
(534,486,o),
(444,531,o),
(356,534,c),
(356,645,l),
(276,645,l),
(276,534,l),
(196,519,o),
(136,484,o),
(96,436,cs),
(56,387,o),
(36,326,o),
(36,258,cs),
(36,194,o),
(62,130,o),
(104,81,cs),
(146,32,o),
(207,-4,o),
(276,-9,c),
(276,-120,l)
);
},
{
closed = 1;
nodes = (
(232,282,o),
(236,305,o),
(244,323,cs),
(252,341,o),
(263,353,o),
(276,361,c),
(276,164,l),
(261,175,o),
(250,189,o),
(243,205,cs),
(235,221,o),
(232,239,o),
(232,258,cs)
);
}
);
width = 618;
},
{
layerId = "16C3235A-0965-4506-9E91-995A1F108181";
shapes = (
{
closed = 1;
nodes = (
(336,-120,l),
(336,-10,l),
(371,-10,o),
(416,1,o),
(457,24,cs),
(497,47,o),
(535,81,o),
(555,126,c),
(424,166,l),
(419,150,o),
(405,138,o),
(389,128,cs),
(373,118,o),
(355,111,o),
(336,107,c),
(336,415,l),
(371,412,o),
(403,392,o),
(422,359,c),
(552,399,l),
(509,484,o),
(429,529,o),
(336,532,c),
(336,645,l),
(276,645,l),
(276,532,l),
(199,520,o),
(141,485,o),
(101,437,cs),
(61,388,o),
(39,326,o),
(39,258,cs),
(39,194,o),
(64,130,o),
(106,81,cs),
(148,32,o),
(207,-4,o),
(276,-9,c),
(276,-120,l)
);
},
{
closed = 1;
nodes = (
(177,293,o),
(186,328,o),
(203,356,cs),
(220,383,o),
(244,402,o),
(276,409,c),
(276,114,l),
(247,122,o),
(221,143,o),
(204,168,cs),
(187,193,o),
(177,226,o),
(177,258,cs)
);
}
);
width = 592;
},
{
layerId = "BB3EF6CB-1E12-4008-9D80-E52F161ACC69";
shapes = (
{
closed = 1;
nodes = (
(320,-120,l),
(320,-10,l),
(356,-10,o),
(400,1,o),
(440,23,cs),
(480,45,o),
(515,77,o),
(532,121,c),
(446,147,l),
(439,124,o),
(419,105,o),
(395,92,cs),
(371,79,o),
(344,71,o),
(320,68,c),
(320,452,l),
(371,449,o),
(415,425,o),
(442,377,c),
(527,404,l),
(488,481,o),
(417,527,o),
(320,530,c),
(320,645,l),
(276,645,l),
(276,530,l),
(203,522,o),
(144,487,o),
(104,439,cs),
(64,390,o),
(42,326,o),
(42,258,cs),
(42,194,o),
(67,130,o),
(108,81,cs),
(149,32,o),
(208,-4,o),
(276,-9,c),
(276,-120,l)
);
},
{
closed = 1;
nodes = (
(132,302,o),
(145,347,o),
(170,383,cs),
(194,418,o),
(231,444,o),
(276,449,c),
(276,72,l),
(235,80,o),
(199,105,o),
(173,138,cs),
(147,171,o),
(132,214,o),
(132,258,cs)
);
}
);
width = 570;
},
{
layerId = "3FABAEC4-ABD6-4E2D-B151-012D8FCAB9DA";
shapes = (
{
closed = 1;
nodes = (
(296,-120,l),
(296,-10,l),
(335,-10,o),
(378,1,o),
(416,22,cs),
(454,42,o),
(485,73,o),
(498,113,c),
(478,119,l),
(470,86,o),
(440,59,o),
(405,40,cs),
(370,21,o),
(328,10,o),
(296,10,c),
(296,507,l),
(371,504,o),
(432,473,o),
(471,404,c),
(490,411,l),
(457,478,o),
(400,524,o),
(296,527,c),
(296,645,l),
(276,645,l),
(276,527,l),
(208,523,o),
(150,491,o),
(110,441,cs),
(70,391,o),
(46,326,o),
(46,258,cs),
(46,194,o),
(70,130,o),
(111,81,cs),
(151,32,o),
(208,-4,o),
(276,-9,c),
(276,-120,l)
);
},
{
closed = 1;
nodes = (
(66,315,o),
(85,376,o),
(121,423,cs),
(157,470,o),
(209,503,o),
(276,507,c),
(276,11,l),
(216,16,o),
(165,48,o),
(127,93,cs),
(89,137,o),
(66,197,o),
(66,258,cs)
);
}
);
width = 541;
}
);
unicode = 162;
},
{
glyphname = sterling;
layers = (
{
layerId = "6504B2D0-4073-42C8-9B7C-2A4329A12EFE";
shapes = (
{
closed = 1;
nodes = (
(61,308,l),
(474,308,l),
(474,408,l),
(61,408,l)
);
},
{
closed = 1;
nodes = (
(49,0,l),
(545,0,l),
(545,170,l),
(256,170,l),
(269,186,o),
(279,203,o),
(287,220,cs),
(298,244,o),
(303,269,o),
(303,297,cs),
(303,344,o),
(288,383,o),
(273,418,cs),
(257,453,o),
(242,482,o),
(242,510,cs),
(242,526,o),
(248,539,o),
(258,548,cs),
(268,557,o),
(283,562,o),
(300,562,cs),
(343,562,o),
(400,532,o),
(435,493,c),
(531,610,l),
(474,677,o),
(389,715,o),
(301,715,cs),
(237,715,o),
(181,694,o),
(140,662,cs),
(99,629,o),
(74,583,o),
(74,531,cs),
(74,488,o),
(91,448,o),
(108,408,cs),
(124,368,o),
(141,329,o),
(141,289,cs),
(141,258,o),
(131,224,o),
(115,195,cs),
(98,166,o),
(76,141,o),
(49,125,c)
);
}
);
width = 586;
},
{
layerId = "16C3235A-0965-4506-9E91-995A1F108181";
shapes = (
{
closed = 1;
nodes = (
(57,308,l),
(439,308,l),
(439,392,l),
(57,392,l)
);
},
{
closed = 1;
nodes = (
(51,0,l),
(523,0,l),
(523,127,l),
(210,127,l),
(232,151,o),
(247,174,o),
(258,196,cs),
(272,224,o),
(277,251,o),
(277,281,cs),
(277,334,o),
(259,377,o),
(240,416,c),
(220,454,o),
(202,488,o),
(202,522,cs),
(202,545,o),
(210,564,o),
(225,578,cs),
(239,592,o),
(260,600,o),
(283,600,cs),
(331,600,o),
(388,568,o),
(421,523,c),
(495,610,l),
(444,676,o),
(366,715,o),
(284,715,cs),
(226,715,o),
(174,695,o),
(137,663,cs),
(99,631,o),
(75,586,o),
(75,536,cs),
(75,490,o),
(96,449,o),
(116,407,cs),
(136,365,o),
(156,323,o),
(156,275,cs),
(156,244,o),
(147,211,o),
(129,180,cs),
(111,149,o),
(86,119,o),
(51,92,c)
);
}
);
width = 550;
},
{
layerId = "BB3EF6CB-1E12-4008-9D80-E52F161ACC69";
shapes = (
{
closed = 1;
nodes = (
(53,307,l),
(402,307,l),
(402,375,l),
(53,375,l)
);
},
{
closed = 1;
nodes = (
(53,0,l),
(497,0,l),
(497,80,l),
(161,80,l),
(192,114,o),
(213,143,o),
(227,171,cs),
(243,202,o),
(249,232,o),
(249,264,cs),
(249,324,o),
(227,370,o),
(204,413,cs),
(180,456,o),
(158,494,o),
(158,535,cs),
(158,566,o),
(169,592,o),
(189,611,cs),
(208,630,o),
(235,642,o),
(264,642,cs),
(317,642,o),
(374,608,o),
(406,556,c),
(455,610,l),
(412,675,o),
(342,715,o),
(266,715,cs),
(214,715,o),
(167,696,o),
(133,665,cs),
(99,633,o),
(77,590,o),
(77,542,cs),
(77,493,o),
(101,450,o),
(125,406,cs),
(148,362,o),
(172,316,o),
(172,260,cs),
(172,228,o),
(164,197,o),
(145,164,cs),
(126,131,o),
(96,96,o),
(53,56,c)
);
}
);
width = 512;
},
{
layerId = "3FABAEC4-ABD6-4E2D-B151-012D8FCAB9DA";
shapes = (
{
closed = 1;
nodes = (
(48,346,l),
(354,346,l),
(354,366,l),
(48,366,l)
);
},
{
closed = 1;
nodes = (
(17,0,l),
(416,0,l),
(416,20,l),
(58,20,l),
(101,67,o),
(129,104,o),
(148,139,cs),
(167,174,o),
(174,206,o),
(174,242,cs),
(174,311,o),
(146,362,o),
(118,410,cs),
(90,457,o),
(62,500,o),
(62,552,cs),
(62,592,o),
(78,628,o),
(103,654,cs),
(128,680,o),
(164,695,o),
(201,695,cs),
(261,695,o),
(316,658,o),
(348,598,c),
(365,610,l),
(330,674,o),
(270,715,o),
(203,715,cs),
(159,715,o),
(117,697,o),
(88,667,cs),
(59,637,o),
(40,595,o),
(40,550,cs),
(40,494,o),
(68,451,o),
(97,405,cs),
(125,359,o),
(153,309,o),
(153,241,cs),
(153,208,o),
(146,178,o),
(126,143,cs),
(105,108,o),
(72,67,o),
(17,10,c)
);
}
);
width = 467;
}
);
unicode = 163;
},
{
glyphname = currency;
layers = (
{
layerId = "6504B2D0-4073-42C8-9B7C-2A4329A12EFE";
shapes = (
{
closed = 1;
nodes = (
(114,578,l),
(43,507,l),
(108,441,l),
(89,410,o),
(80,375,o),
(80,338,cs),
(80,299,o),
(90,264,o),
(109,233,c),
(43,167,l),
(109,101,l),
(181,169,l),
(210,154,o),
(245,147,o),
(286,147,cs),
(326,147,o),
(360,153,o),
(388,168,c),
(459,101,l),
(525,167,l),
(461,231,l),
(481,262,o),
(492,299,o),
(492,338,cs),
(492,377,o),
(481,413,o),
(462,444,c),
(525,507,l),
(454,578,l),
(386,509,l),
(358,521,o),
(325,529,o),
(286,529,cs),
(246,529,o),
(212,522,o),
(183,507,c)
);
},
{
closed = 1;
nodes = (
(213,362,o),
(221,383,o),
(234,396,cs),
(246,409,o),
(265,417,o),
(286,417,cs),
(307,417,o),
(326,409,o),
(339,396,cs),
(351,383,o),
(359,362,o),
(359,338,cs),
(359,314,o),
(351,293,o),
(339,280,cs),
(326,267,o),
(307,259,o),
(286,259,cs),
(265,259,o),
(246,267,o),
(234,280,cs),
(221,293,o),
(213,314,o),
(213,338,cs)
);
}
);
width = 569;
},
{
layerId = "16C3235A-0965-4506-9E91-995A1F108181";
shapes = (
{
closed = 1;
nodes = (
(100,567,l),
(45,513,l),
(114,443,l),
(94,412,o),
(84,375,o),
(84,338,cs),
(84,298,o),
(95,262,o),
(115,231,c),
(45,161,l),
(95,112,l),
(167,180,l),
(198,161,o),
(234,151,o),
(277,151,cs),
(318,151,o),
(355,161,o),
(383,180,c),
(457,112,l),
(506,161,l),
(437,230,l),
(458,261,o),
(469,298,o),
(469,338,cs),
(469,377,o),
(458,413,o),
(438,444,c),
(506,513,l),
(452,567,l),
(381,496,l),
(352,515,o),
(317,524,o),
(277,524,cs),
(236,524,o),
(199,515,o),
(170,496,c)
);
},
{
closed = 1;
nodes = (
(183,366,o),
(194,393,o),
(210,411,cs),
(226,429,o),
(249,440,o),
(277,440,cs),
(302,440,o),
(326,430,o),
(343,412,cs),
(360,394,o),
(370,369,o),
(370,338,cs),
(370,307,o),
(360,282,o),
(343,264,cs),
(326,246,o),
(302,235,o),
(277,235,cs),
(249,235,o),
(226,246,o),
(210,263,cs),
(194,280,o),
(183,308,o),
(183,337,cs)
);
}
);
width = 552;
},
{
layerId = "BB3EF6CB-1E12-4008-9D80-E52F161ACC69";
shapes = (
{
closed = 1;
nodes = (
(89,558,l),
(48,517,l),
(119,445,l),
(98,414,o),
(87,377,o),
(87,337,cs),
(87,297,o),
(99,260,o),
(120,229,c),
(48,157,l),
(84,121,l),
(157,190,l),
(188,167,o),
(225,154,o),
(269,154,cs),
(313,154,o),
(351,167,o),
(380,190,c),
(454,121,l),
(490,157,l),
(417,229,l),
(440,260,o),
(451,297,o),
(451,337,cs),
(451,377,o),
(439,414,o),
(418,445,c),
(490,517,l),
(449,558,l),
(378,486,l),
(347,509,o),
(312,521,o),
(269,521,cs),
(226,521,o),
(189,509,o),
(160,486,c)
);
},
{
closed = 1;
nodes = (
(159,371,o),
(171,402,o),
(191,424,cs),
(211,446,o),
(238,459,o),
(269,459,cs),
(300,459,o),
(327,447,o),
(347,425,cs),
(367,403,o),
(379,373,o),
(379,338,cs),
(379,303,o),
(367,273,o),
(347,251,cs),
(327,229,o),
(300,215,o),
(269,215,cs),
(238,215,o),
(211,229,o),
(191,250,cs),
(171,271,o),
(159,303,o),
(159,336,cs)
);
}
);
width = 538;
},
{
layerId = "3FABAEC4-ABD6-4E2D-B151-012D8FCAB9DA";
shapes = (
{
closed = 1;
nodes = (
(79,534,l),
(64,520,l),
(132,452,l),
(105,420,o),
(90,379,o),
(90,335,cs),
(90,290,o),
(106,249,o),
(134,217,c),
(64,148,l),
(79,134,l),
(148,202,l),
(179,174,o),
(218,157,o),
(265,157,cs),
(312,157,o),
(353,174,o),
(385,205,c),
(457,134,l),
(472,148,l),
(399,219,l),
(426,251,o),
(442,292,o),
(442,335,cs),
(442,378,o),
(426,418,o),
(401,450,c),
(472,520,l),
(457,534,l),
(387,465,l),
(356,496,o),
(313,515,o),
(265,515,cs),
(218,515,o),
(177,498,o),
(146,467,c)
);
},
{
closed = 1;
nodes = (
(111,379,o),
(129,420,o),
(157,449,cs),
(185,478,o),
(224,496,o),
(265,496,cs),
(308,496,o),
(347,478,o),
(375,450,cs),
(403,421,o),
(421,380,o),
(421,336,cs),
(421,292,o),
(403,252,o),
(375,223,cs),
(347,194,o),
(308,175,o),
(265,175,cs),
(224,175,o),
(185,193,o),
(157,222,cs),
(129,250,o),
(111,290,o),
(111,334,cs)
);
}
);
width = 533;
}
);
unicode = 164;
},
{
glyphname = yen;
layers = (
{
layerId = "6504B2D0-4073-42C8-9B7C-2A4329A12EFE";
shapes = (
{
closed = 1;
nodes = (
(710,710,l),
(498,710,l),
(368,403,l),
(241,710,l),
(30,710,l),
(172,432,l),
(107,432,l),
(107,312,l),
(233,312,l),
(271,237,l),
(271,202,l),
(106,202,l),
(106,82,l),
(271,82,l),
(271,0,l),
(465,0,l),
(465,82,l),
(631,82,l),
(631,202,l),
(465,202,l),
(465,235,l),
(504,312,l),
(630,312,l),
(630,432,l),
(566,432,l)
);
}
);
width = 742;
},
{
layerId = "16C3235A-0965-4506-9E91-995A1F108181";
shapes = (
{
closed = 1;
nodes = (
(681,710,l),
(531,710,l),
(354,369,l),
(178,710,l),
(30,710,l),
(205,402,l),
(131,402,l),
(131,314,l),
(250,314,l),
(285,251,l),
(285,218,l),
(130,218,l),
(130,131,l),
(285,131,l),
(285,0,l),
(423,0,l),
(423,131,l),
(578,131,l),
(578,218,l),
(423,218,l),
(423,249,l),
(458,314,l),
(577,314,l),
(577,402,l),
(504,402,l)
);
}
);
width = 712;
},
{
layerId = "BB3EF6CB-1E12-4008-9D80-E52F161ACC69";
shapes = (
{
closed = 1;
nodes = (
(658,710,l),
(559,710,l),
(342,340,l),
(127,710,l),
(29,710,l),
(233,377,l),
(150,377,l),
(150,317,l),
(265,317,l),
(297,261,l),
(297,231,l),
(150,231,l),
(150,171,l),
(297,171,l),
(297,0,l),
(387,0,l),
(387,171,l),
(536,171,l),
(536,231,l),
(387,231,l),
(387,259,l),
(421,317,l),
(535,317,l),
(535,377,l),
(454,377,l)
);
}
);
width = 687;
},
{
layerId = "3FABAEC4-ABD6-4E2D-B151-012D8FCAB9DA";
shapes = (
{
closed = 1;
nodes = (
(623,710,l),
(600,710,l),
(325,298,l),
(51,710,l),
(28,710,l),
(273,341,l),
(179,341,l),
(179,321,l),
(286,321,l),
(315,277,l),
(315,251,l),
(179,251,l),
(179,231,l),
(315,231,l),
(315,0,l),
(335,0,l),
(335,231,l),
(472,231,l),
(472,251,l),
(335,251,l),
(335,275,l),
(366,321,l),
(472,321,l),
(472,341,l),
(379,341,l)
);
}
);
width = 651;
}
);
unicode = 165;
},
{
glyphname = brokenbar;
layers = (
{
layerId = "6504B2D0-4073-42C8-9B7C-2A4329A12EFE";
shapes = (
{
closed = 1;
nodes = (
(78,254,l),
(78,-130,l),
(238,-130,l),
(238,254,l)
);
},
{
closed = 1;
nodes = (
(78,775,l),
(78,391,l),
(238,391,l),
(238,775,l)
);
}
);
width = 316;
},
{
layerId = "16C3235A-0965-4506-9E91-995A1F108181";
shapes = (
{
closed = 1;
nodes = (
(80,264,l),
(80,-130,l),
(195,-130,l),
(195,264,l)
);
},
{
closed = 1;
nodes = (
(80,775,l),
(80,381,l),
(195,381,l),
(195,775,l)
);
}
);
width = 275;
},
{
layerId = "BB3EF6CB-1E12-4008-9D80-E52F161ACC69";
shapes = (
{
closed = 1;
nodes = (
(83,273,l),
(83,-130,l),
(159,-130,l),
(159,273,l)
);
},
{
closed = 1;
nodes = (
(83,775,l),
(83,372,l),
(159,372,l),
(159,775,l)
);
}
);
width = 242;
},
{
layerId = "3FABAEC4-ABD6-4E2D-B151-012D8FCAB9DA";
shapes = (
{
closed = 1;
nodes = (
(97,285,l),
(97,-130,l),
(117,-130,l),
(117,285,l)
);
},
{
closed = 1;
nodes = (
(97,775,l),
(97,360,l),
(117,360,l),
(117,775,l)
);
}
);
width = 214;
}
);
unicode = 166;
},
